<svg width="88" height="85" viewBox="0 0 88 85" fill="none" xmlns="http://www.w3.org/2000/svg">
<path d="M64.8494 16.3055C64.3312 14.7133 63.7536 13.2935 63.0966 11.9973C62.6119 11.0411 61.4716 9.08655 61.3394 8.98527C61.3047 8.95869 61.0184 8.58897 60.7031 8.16368C59.8563 7.02125 57.093 4.31825 55.685 3.25508C53.8843 1.89534 51.4883 0.739675 49.0563 0.0577893C48.644 -0.0578057 52.9953 0.0951874 54.0064 0.231838C58.8082 0.88077 62.7171 2.28605 66.6246 4.76805C70.0372 6.93576 72.983 9.83211 75.2242 13.2232C76.0063 14.4066 77.3161 16.8035 77.4903 17.3703L77.5572 17.5878L71.4114 17.5862L65.2657 17.5847L64.8494 16.3055Z" fill="#E30514"/>
<path d="M32.1673 50.3537C25.9095 49.4081 20.5565 42.5939 18.8801 33.4395C18.3894 30.7603 18.2308 26.8602 18.5165 24.4988C19.535 16.0784 23.6892 9.18382 29.3525 6.51442C31.1796 5.65319 31.9514 5.53113 33.2695 5.89489C34.8718 6.33705 37.1193 7.65698 37.8138 8.56377L38.0763 8.90649L37.4998 9.4029C34.2837 12.1723 32.0631 15.5168 30.6703 19.689C29.5555 23.0283 29.142 26.2185 29.2324 30.7815C29.2634 32.3426 29.331 33.3857 29.4391 33.9712C30.2835 38.5434 32.2926 42.2142 35.9285 45.828C37.1059 46.9984 37.166 47.077 37.166 47.4487C37.166 48.3847 36.4665 49.4578 35.5391 49.9445C34.6311 50.4211 33.5118 50.5569 32.1673 50.3537Z" fill="#E30514"/>
<path d="M50.8518 55.8231C51.092 55.6999 51.4415 55.5218 51.6283 55.4273C52.344 55.0652 54.7631 53.4174 55.5792 52.736C56.8594 51.6672 59.4162 48.9792 60.6354 47.4203C62.2173 45.3978 63.7384 42.5192 64.6906 39.7464L64.9645 38.949H71.1572C74.5631 38.949 77.3499 38.9838 77.3499 39.0263C77.3499 39.0689 77.1115 39.5645 76.8201 40.1278C74.1976 45.1974 70.2331 49.2744 65.0715 52.2096C63.6301 53.0293 60.9501 54.1711 59.2477 54.6908C56.6696 55.4778 53.0726 56.0675 50.9489 56.0512L50.415 56.0472L50.8518 55.8231Z" fill="#E30514"/>
<path d="M29.5639 55.9553C24.4935 55.4324 19.7435 53.7456 15.5734 50.9871C11.0633 48.0037 7.25896 43.5367 5.21852 38.8285C1.9427 31.2696 2.1975 23.0139 5.93186 15.716C6.62834 14.3549 8.18978 11.9858 9.13281 10.8594C10.5971 9.11036 12.9107 6.9283 14.5327 5.76653C19.0273 2.54719 24.2517 0.59868 29.7408 0.0944091C31.1151 -0.0318448 33.9066 -0.0313949 35.2733 0.0953154C44.6753 0.966909 52.8901 5.87452 57.8393 13.5765C58.4848 14.581 59.8786 17.2348 59.8786 17.4592C59.8786 17.5648 58.7809 17.5878 53.7293 17.5878H47.58L47.3588 16.8387C45.3506 10.038 41.0962 4.67337 36.2439 2.82318C35.8169 2.66033 35.0131 2.43055 34.4577 2.31254C33.573 2.12454 33.2607 2.10459 31.9341 2.15127C30.3286 2.20777 29.5231 2.36229 28.2605 2.856C22.9924 4.91594 18.6817 10.7732 16.7426 18.506C16.0325 21.3377 15.7227 23.6754 15.6475 26.7702C15.4699 34.0813 17.1665 40.7278 20.5381 45.9286C21.6072 47.5778 23.5065 49.6886 24.8088 50.675C29.5406 54.2587 34.9199 54.299 39.6119 50.7856C41.2116 49.5879 43.2244 47.2987 44.4231 45.3139C45.4143 43.6725 46.4486 41.4487 47.0124 39.7464L47.2765 38.949H53.4805C58.0888 38.949 59.6845 38.9776 59.6845 39.0601C59.6845 39.2869 58.3209 41.7761 57.6063 42.8537C54.1466 48.0711 48.9834 52.0964 42.9898 54.2489C40.8294 55.0247 39.2912 55.4106 36.9234 55.7706C35.3788 56.0055 31.0934 56.113 29.5639 55.9553Z" fill="#322783"/>
<path d="M7.59429 81.6748L6.68569 83.7031C6.52921 84.0449 6.40303 84.2761 6.30712 84.3967C6.21121 84.5123 6.10521 84.5701 5.98911 84.5701C5.87806 84.5701 5.77963 84.5224 5.69382 84.4269C5.63829 84.3666 5.50958 84.1454 5.30767 83.7634C5.11081 83.3813 4.94676 83.042 4.81552 82.7455L3.81607 80.5061C3.67978 80.1945 3.53592 80.0386 3.38449 80.0386C3.22296 80.0386 3.13463 80.1718 3.11949 80.4382C3.08415 81.0314 3.06648 81.5793 3.06648 82.082C3.06648 82.6047 3.09173 82.9591 3.1422 83.1451C3.17754 83.2557 3.22297 83.3361 3.27849 83.3864C3.33907 83.4367 3.49807 83.5271 3.7555 83.6578C3.92207 83.7433 4.00536 83.8915 4.00536 84.1027C4.00536 84.6656 3.28102 84.9471 1.83232 84.9471C0.610776 84.9471 0 84.6732 0 84.1253C0 83.9845 0.0302844 83.884 0.0908561 83.8237C0.156476 83.7583 0.320528 83.6628 0.583009 83.5372C0.749584 83.4618 0.860636 83.3587 0.916161 83.228C0.976734 83.0973 1.02721 82.8435 1.06759 82.4665C1.11303 82.0644 1.15593 81.4059 1.19631 80.491C1.23669 79.5711 1.25688 78.7845 1.25688 78.131C1.25688 77.3117 1.19379 76.7562 1.06759 76.4647C1.02216 76.3642 0.969161 76.2888 0.908592 76.2385C0.853068 76.1882 0.744538 76.1228 0.583009 76.0424C0.224621 75.8715 0.045428 75.6504 0.045428 75.3789C0.045428 75.203 0.111054 75.0421 0.242296 74.8964C0.378584 74.7506 0.557777 74.6476 0.779877 74.5872C1.00198 74.5219 1.29726 74.4666 1.66575 74.4213C2.03928 74.3711 2.35476 74.3459 2.6122 74.3459C3.2583 74.3459 3.71512 74.3987 3.98265 74.5043C4.11389 74.5545 4.21737 74.6224 4.29309 74.7078C4.3688 74.7933 4.47732 74.9692 4.61866 75.2356L6.19355 78.1234C6.36517 78.4401 6.48379 78.6336 6.54942 78.704C6.61504 78.7744 6.70589 78.8096 6.82199 78.8096C6.92294 78.8096 7.01128 78.7719 7.087 78.6965C7.16776 78.6211 7.26114 78.4803 7.36714 78.2742L8.43473 76.2007C8.56597 75.9343 8.65178 75.7609 8.69216 75.6805C8.9395 75.1778 9.18432 74.8436 9.42661 74.6777C9.73452 74.4615 10.2948 74.3535 11.1075 74.3535C12.536 74.3535 13.2502 74.6777 13.2502 75.3261C13.2502 75.4719 13.2225 75.59 13.167 75.6805C13.1114 75.7659 12.9979 75.8715 12.8262 75.9972C12.594 76.1731 12.4477 76.4269 12.3871 76.7587C12.271 77.4524 12.2129 78.2969 12.2129 79.2921C12.2129 80.5739 12.2735 81.6974 12.3947 82.6625C12.4249 82.8988 12.4704 83.0596 12.531 83.1451C12.5966 83.2305 12.7606 83.3587 13.0231 83.5296C13.2048 83.6502 13.2957 83.8111 13.2957 84.0121C13.2957 84.364 13.061 84.6128 12.5915 84.7586C12.3492 84.839 12.0943 84.8918 11.8268 84.9169C11.5593 84.9421 11.1479 84.9547 10.5926 84.9547C9.73957 84.9547 9.10355 84.8944 8.6846 84.7737C8.2202 84.638 7.98801 84.4068 7.98801 84.0801C7.98801 83.9594 8.0183 83.8614 8.07887 83.786C8.13944 83.7056 8.29592 83.5623 8.54831 83.3562C8.67955 83.2507 8.76788 83.0471 8.81331 82.7455C8.86378 82.4439 8.88902 81.9312 8.88902 81.2073C8.88902 80.8052 8.86883 80.5413 8.82845 80.4156C8.79312 80.29 8.71487 80.2271 8.59373 80.2271C8.45239 80.2271 8.3161 80.3252 8.18486 80.5212C8.05362 80.7122 7.85677 81.0967 7.59429 81.6748Z" fill="#322783"/>
<path d="M23.4884 79.5862L24.9194 82.6399C25.0557 82.9214 25.1693 83.1074 25.2602 83.1979C25.351 83.2833 25.4898 83.3411 25.6766 83.3713C26.04 83.4265 26.2217 83.61 26.2217 83.9217C26.2217 84.2886 25.9996 84.5525 25.5554 84.7134C25.1112 84.8742 24.3844 84.9547 23.3748 84.9547C22.234 84.9547 21.3886 84.9069 20.8384 84.8114C20.586 84.7662 20.3841 84.6757 20.2326 84.54C20.0862 84.3992 20.0131 84.2308 20.0131 84.0348C20.0131 83.884 20.0509 83.7684 20.1266 83.688C20.2074 83.6025 20.3538 83.5246 20.5658 83.4542C20.803 83.3738 20.9216 83.2381 20.9216 83.0471C20.9216 82.7103 20.7172 82.5117 20.3083 82.4514C19.8692 82.3911 19.2508 82.3609 18.4533 82.3609C17.782 82.3609 17.3807 82.4011 17.2494 82.4816C17.1687 82.5319 17.098 82.6223 17.0374 82.753C16.9769 82.8837 16.9466 83.0094 16.9466 83.13C16.9466 83.2406 16.9668 83.3135 17.0071 83.3487C17.0526 83.3788 17.1939 83.4316 17.4311 83.507C17.7391 83.5975 17.893 83.7784 17.893 84.0499C17.893 84.648 17.1737 84.9471 15.7351 84.9471C14.9174 84.9471 14.3167 84.8918 13.9331 84.7813C13.5797 84.6757 13.4031 84.4445 13.4031 84.0876C13.4031 83.9318 13.4409 83.8111 13.5166 83.7257C13.5974 83.6402 13.7387 83.5623 13.9407 83.4919C14.2688 83.3763 14.5161 83.2155 14.6827 83.0094C14.8543 82.7982 15.0966 82.3509 15.4095 81.6672L16.4771 79.3374C16.8709 78.4829 17.1333 77.8445 17.2646 77.4223C17.4009 76.995 17.4715 76.5778 17.4766 76.1706C17.4816 75.7383 17.5069 75.4392 17.5523 75.2734C17.6028 75.1025 17.7113 74.9366 17.8779 74.7757C18.2262 74.4239 18.6704 74.2479 19.2105 74.2479C19.7203 74.2479 20.2074 74.4465 20.6718 74.8436C21.3179 75.3865 22.2568 76.9673 23.4884 79.5862ZM18.2186 80.5363H19.7026C19.9752 80.5363 20.1115 80.4759 20.1115 80.3553C20.1115 80.1894 19.9222 79.7823 19.5436 79.1338C19.372 78.8372 19.2407 78.6387 19.1499 78.5382C19.059 78.4376 18.9631 78.3874 18.8622 78.3874C18.6805 78.3874 18.529 78.5558 18.4079 78.8925C18.3877 78.9377 18.3145 79.1162 18.1883 79.4279C17.9763 79.9406 17.8703 80.2472 17.8703 80.3477C17.8703 80.4734 17.9864 80.5363 18.2186 80.5363Z" fill="#322783"/>
<path d="M30.3449 74.8662L34.1156 78.1536C34.4689 78.4603 34.7238 78.6136 34.8803 78.6136C35.1428 78.6136 35.274 78.3346 35.274 77.7766C35.274 77.1433 35.2362 76.711 35.1604 76.4798C35.0847 76.2485 34.9257 76.0751 34.6834 75.9595C34.4866 75.864 34.3478 75.7635 34.267 75.6579C34.1862 75.5473 34.1458 75.4066 34.1458 75.2357C34.1458 74.8134 34.4361 74.542 35.0166 74.4214C35.2538 74.3711 35.6677 74.3459 36.2583 74.3459C37.0205 74.3459 37.548 74.3912 37.8408 74.4816C38.3052 74.6224 38.5374 74.8888 38.5374 75.2809C38.5374 75.6076 38.3481 75.8539 37.9695 76.0198C37.8181 76.0851 37.7146 76.1429 37.6591 76.1932C37.6035 76.2435 37.5556 76.3189 37.5152 76.4194C37.3789 76.7512 37.3082 77.3795 37.3032 78.3044V80.7624C37.3032 81.1394 37.3057 81.6547 37.3107 82.3081C37.3157 83.1928 37.2627 83.8312 37.1517 84.2233C37.0154 84.7109 36.768 84.9546 36.4097 84.9546C36.2532 84.9546 36.1169 84.922 36.0008 84.8566C35.8897 84.7913 35.703 84.6405 35.4405 84.4042L30.9505 80.4005C30.6376 80.119 30.3776 79.9783 30.1707 79.9783C29.8628 79.9783 29.7088 80.403 29.7088 81.2525C29.7088 81.9512 29.7467 82.4288 29.8224 82.6851C29.9032 82.9415 30.0647 83.13 30.307 83.2506C30.6452 83.4165 30.8143 83.6326 30.8143 83.899C30.8143 84.5978 30.0596 84.9471 28.5504 84.9471C27.8689 84.9471 27.3389 84.8591 26.9603 84.6832C26.5868 84.5022 26.4 84.2484 26.4 83.9217C26.4 83.7508 26.4354 83.6226 26.506 83.5371C26.5767 83.4517 26.7357 83.3361 26.983 83.1903C27.2203 83.0496 27.3642 82.8007 27.4146 82.4438C27.5004 81.7954 27.5433 80.863 27.5433 79.6465C27.5433 78.3496 27.4676 77.4046 27.3162 76.8115C27.2607 76.5954 27.19 76.4345 27.1042 76.3289C27.0184 76.2234 26.877 76.1228 26.6802 76.0273C26.453 75.9168 26.294 75.8087 26.2032 75.7031C26.1174 75.5976 26.0745 75.4694 26.0745 75.3186C26.0745 74.836 26.4909 74.5319 27.3238 74.4062C27.6064 74.366 28.1011 74.3459 28.8078 74.3459C29.2116 74.3459 29.5044 74.3786 29.6861 74.4439C29.8729 74.5042 30.0925 74.645 30.3449 74.8662Z" fill="#322783"/>
<path d="M48.1422 79.5862L49.5732 82.6399C49.7095 82.9214 49.8231 83.1074 49.9139 83.1979C50.0048 83.2833 50.1436 83.3411 50.3304 83.3713C50.6938 83.4265 50.8755 83.61 50.8755 83.9217C50.8755 84.2886 50.6534 84.5525 50.2092 84.7134C49.765 84.8742 49.0381 84.9547 48.0286 84.9547C46.8878 84.9547 46.0423 84.9069 45.4921 84.8114C45.2397 84.7662 45.0378 84.6757 44.8864 84.54C44.74 84.3992 44.6668 84.2308 44.6668 84.0348C44.6668 83.884 44.7047 83.7684 44.7804 83.688C44.8612 83.6025 45.0075 83.5246 45.2195 83.4542C45.4568 83.3738 45.5754 83.2381 45.5754 83.0471C45.5754 82.7103 45.371 82.5117 44.9621 82.4514C44.523 82.3911 43.9046 82.3609 43.1071 82.3609C42.4357 82.3609 42.0345 82.4011 41.9032 82.4816C41.8224 82.5319 41.7518 82.6223 41.6912 82.753C41.6306 82.8837 41.6003 83.0094 41.6003 83.13C41.6003 83.2406 41.6205 83.3135 41.661 83.3487C41.7064 83.3788 41.8477 83.4316 42.085 83.507C42.3929 83.5975 42.5468 83.7784 42.5468 84.0499C42.5468 84.648 41.8275 84.9471 40.3889 84.9471C39.5712 84.9471 38.9705 84.8918 38.5869 84.7813C38.2336 84.6757 38.0569 84.4445 38.0569 84.0876C38.0569 83.9318 38.0947 83.8111 38.1705 83.7257C38.2512 83.6402 38.3926 83.5623 38.5945 83.4919C38.9226 83.3763 39.1699 83.2155 39.3365 83.0094C39.5081 82.7982 39.7504 82.3509 40.0633 81.6672L41.131 79.3374C41.5247 78.4829 41.7872 77.8445 41.9184 77.4223C42.0547 76.995 42.1253 76.5778 42.1304 76.1706C42.1354 75.7383 42.1606 75.4392 42.2061 75.2734C42.2566 75.1025 42.3652 74.9366 42.5317 74.7757C42.88 74.4239 43.3242 74.2479 43.8643 74.2479C44.3741 74.2479 44.8612 74.4465 45.3256 74.8436C45.9717 75.3865 46.9105 76.9673 48.1422 79.5862ZM42.8724 80.5363H44.3564C44.629 80.5363 44.7653 80.4759 44.7653 80.3553C44.7653 80.1894 44.576 79.7823 44.1974 79.1338C44.0258 78.8372 43.8945 78.6387 43.8037 78.5382C43.7128 78.4376 43.6169 78.3874 43.516 78.3874C43.3342 78.3874 43.1828 78.5558 43.0617 78.8925C43.0415 78.9377 42.9683 79.1162 42.8421 79.4279C42.6301 79.9406 42.5241 80.2472 42.5241 80.3477C42.5241 80.4734 42.6402 80.5363 42.8724 80.5363Z" fill="#322783"/>
<path d="M56.7434 74.2932C57.4047 74.2932 58.028 74.3862 58.6136 74.5722C58.8761 74.6576 59.0553 74.7003 59.1512 74.7003C59.2521 74.7003 59.4641 74.6425 59.7872 74.5269C59.8932 74.4917 60.0017 74.4742 60.1128 74.4742C60.3954 74.4742 60.6655 74.6401 60.9229 74.9718C61.3368 75.5046 61.5438 76.0877 61.5438 76.7211C61.5438 77.1534 61.4327 77.5027 61.2106 77.7691C60.9936 78.0355 60.7059 78.1687 60.3475 78.1687C60.0547 78.1687 59.767 78.0632 59.4843 77.8521C59.3985 77.7867 59.189 77.5505 58.8559 77.1433C58.3006 76.4647 57.6621 76.1254 56.9403 76.1254C56.2841 76.1254 55.7616 76.3642 55.3729 76.8417C54.9893 77.3193 54.7975 77.9627 54.7975 78.772C54.7975 79.9733 55.1054 80.9962 55.7212 81.8407C55.9534 82.1473 56.2311 82.3936 56.5541 82.5796C56.8772 82.7606 57.1977 82.8511 57.5157 82.8511C57.7782 82.8511 57.9927 82.7656 58.1593 82.5947C58.3309 82.4188 58.4167 82.1951 58.4167 81.9237C58.4167 81.6824 58.346 81.5115 58.2047 81.4109C58.1492 81.3707 58.0962 81.3481 58.0457 81.3431C58.0003 81.3331 57.8565 81.3281 57.6141 81.3281C57.3971 81.3281 57.2154 81.2602 57.069 81.1245C56.9276 80.9837 56.857 80.8078 56.857 80.5967C56.857 80.1795 57.1346 79.8829 57.6899 79.707C58.3006 79.5159 59.0048 79.4204 59.8023 79.4204C60.6554 79.4204 61.3722 79.5084 61.9526 79.6843C62.5029 79.8552 62.778 80.1644 62.778 80.6117C62.778 80.7927 62.7149 80.9511 62.5887 81.0868C62.4625 81.2175 62.2984 81.2954 62.0965 81.3205C61.9198 81.3456 61.8037 81.3858 61.7482 81.4411C61.6977 81.4914 61.6447 81.6196 61.5892 81.8257C61.3722 82.6249 60.9481 83.2935 60.3172 83.8313C59.8831 84.1983 59.3581 84.4848 58.7423 84.6909C58.1315 84.897 57.4879 85 56.8115 85C55.7061 85 54.6915 84.7462 53.7678 84.2385C52.8188 83.7207 52.097 82.9969 51.6023 82.067C51.1884 81.2929 50.9814 80.4559 50.9814 79.5562C50.9814 78.6463 51.2288 77.7817 51.7234 76.9624C52.2484 76.0827 52.9829 75.4042 53.9268 74.9266C54.7496 74.5044 55.6884 74.2932 56.7434 74.2932Z" fill="#322783"/>
<path d="M74.3465 78.2743V80.114C74.3465 81.2249 74.2632 82.0116 74.0966 82.474C73.7382 83.4492 72.9508 84.1554 71.7343 84.5927C70.9973 84.8642 70.1645 84.9999 69.2357 84.9999C67.6154 84.9999 66.3181 84.6154 65.3439 83.8463C64.8694 83.4693 64.5413 83.032 64.3596 82.5343C64.1779 82.0367 64.087 81.3179 64.087 80.3779C64.087 80.011 64.0996 79.4078 64.1249 78.5683C64.1401 77.9752 64.1476 77.5831 64.1476 77.3921C64.1476 76.9749 64.1148 76.6858 64.0492 76.525C63.9886 76.3641 63.8523 76.2133 63.6403 76.0726C63.3072 75.8564 63.1406 75.6152 63.1406 75.3488C63.1406 75.1527 63.2239 74.9793 63.3905 74.8285C63.5621 74.6777 63.7867 74.5746 64.0644 74.5194C64.6196 74.4088 65.2758 74.3535 66.033 74.3535C66.8658 74.3535 67.5574 74.4163 68.1076 74.542C68.6477 74.6626 68.9177 74.9366 68.9177 75.3638C68.9177 75.575 68.8395 75.7434 68.683 75.869C68.6477 75.8992 68.4963 75.9771 68.2287 76.1028C68.0672 76.1731 67.9562 76.3013 67.8956 76.4873C67.8401 76.6733 67.8123 76.9799 67.8123 77.4072C67.8123 77.8445 67.7921 78.7895 67.7517 80.2422C67.7264 81.1068 67.9611 81.7653 68.4559 82.2177C68.8597 82.5896 69.3796 82.7756 70.0156 82.7756C70.4194 82.7756 70.7854 82.7027 71.1135 82.557C71.4416 82.4062 71.6914 82.2026 71.8631 81.9462C71.9993 81.7502 72.0927 81.5315 72.1432 81.2903C72.1937 81.049 72.219 80.7197 72.219 80.3025V78.6437C72.1937 77.372 72.1559 76.628 72.1054 76.4119C72.06 76.1907 71.8985 76.0173 71.6208 75.8916C71.3583 75.776 71.1791 75.6705 71.0832 75.575C70.9873 75.4794 70.9394 75.3613 70.9394 75.2206C70.9394 74.919 71.1186 74.7003 71.477 74.5646C71.8404 74.4239 72.4209 74.3535 73.2184 74.3535C74.0008 74.3535 74.5661 74.4213 74.9144 74.5571C75.2678 74.6928 75.4444 74.9089 75.4444 75.2055C75.4444 75.3513 75.4142 75.4593 75.3536 75.5297C75.293 75.6001 75.134 75.7082 74.8766 75.8539C74.609 76.0047 74.4551 76.1681 74.4147 76.344C74.3794 76.5149 74.3566 77.1583 74.3465 78.2743Z" fill="#322783"/>
<path d="M85.2667 79.5862L86.6977 82.6399C86.834 82.9214 86.9476 83.1074 87.0384 83.1979C87.1293 83.2833 87.2681 83.3411 87.4549 83.3713C87.8183 83.4265 88 83.61 88 83.9217C88 84.2886 87.7779 84.5525 87.3337 84.7134C86.8895 84.8742 86.1626 84.9547 85.1531 84.9547C84.0123 84.9547 83.1668 84.9069 82.6166 84.8114C82.3643 84.7662 82.1623 84.6757 82.0109 84.54C81.8645 84.3992 81.7913 84.2308 81.7913 84.0348C81.7913 83.884 81.8292 83.7684 81.9049 83.688C81.9857 83.6025 82.1321 83.5246 82.3441 83.4542C82.5813 83.3738 82.6999 83.2381 82.6999 83.0471C82.6999 82.7103 82.4955 82.5117 82.0866 82.4514C81.6475 82.3911 81.0291 82.3609 80.2316 82.3609C79.5602 82.3609 79.159 82.4011 79.0277 82.4816C78.947 82.5319 78.8763 82.6223 78.8157 82.753C78.7551 82.8837 78.7248 83.0094 78.7248 83.13C78.7248 83.2406 78.7451 83.3135 78.7855 83.3487C78.8309 83.3788 78.9722 83.4316 79.2095 83.507C79.5174 83.5975 79.6713 83.7784 79.6713 84.0499C79.6713 84.648 78.952 84.9471 77.5134 84.9471C76.6957 84.9471 76.095 84.8918 75.7114 84.7813C75.3581 84.6757 75.1814 84.4445 75.1814 84.0876C75.1814 83.9318 75.2193 83.8111 75.295 83.7257C75.3757 83.6402 75.5171 83.5623 75.719 83.4919C76.0471 83.3763 76.2944 83.2155 76.461 83.0094C76.6326 82.7982 76.8749 82.3509 77.1879 81.6672L78.2555 79.3374C78.6492 78.4829 78.9117 77.8445 79.0429 77.4223C79.1792 76.995 79.2498 76.5778 79.2549 76.1706C79.2599 75.7383 79.2851 75.4392 79.3307 75.2734C79.3812 75.1025 79.4897 74.9366 79.6562 74.7757C80.0045 74.4239 80.4487 74.2479 80.9888 74.2479C81.4986 74.2479 81.9857 74.4465 82.4501 74.8436C83.0962 75.3865 84.035 76.9673 85.2667 79.5862ZM79.9969 80.5363H81.4809C81.7535 80.5363 81.8898 80.4759 81.8898 80.3553C81.8898 80.1894 81.7005 79.7823 81.3219 79.1338C81.1503 78.8372 81.019 78.6387 80.9282 78.5382C80.8373 78.4376 80.7414 78.3874 80.6405 78.3874C80.4587 78.3874 80.3073 78.5558 80.1862 78.8925C80.166 78.9377 80.0928 79.1162 79.9666 79.4279C79.7546 79.9406 79.6486 80.2472 79.6486 80.3477C79.6486 80.4734 79.7647 80.5363 79.9969 80.5363Z" fill="#322783"/>
<path d="M7.98314 66.8185L9.34045 67.3073C9.24928 67.7609 9.10569 68.1397 8.90967 68.4439C8.71365 68.748 8.46977 68.9775 8.17802 69.1323C7.88855 69.2871 7.51931 69.3645 7.07029 69.3645C6.52555 69.3645 6.07995 69.2708 5.7335 69.0834C5.38933 68.8933 5.09189 68.5607 4.84117 68.0854C4.59045 67.6101 4.46509 67.0018 4.46509 66.2604C4.46509 65.2719 4.68504 64.5128 5.12494 63.9833C5.56712 63.451 6.19163 63.1848 6.9985 63.1848C7.62985 63.1848 8.1256 63.3369 8.48573 63.6411C8.84813 63.9452 9.11708 64.4123 9.29259 65.0424L7.92502 65.405C7.87716 65.223 7.82701 65.0899 7.77459 65.0057C7.68798 64.8645 7.58199 64.7559 7.45663 64.6799C7.33127 64.6038 7.1911 64.5658 7.03611 64.5658C6.6851 64.5658 6.41614 64.7342 6.22924 65.0709C6.08793 65.3208 6.01727 65.7132 6.01727 66.2482C6.01727 66.9108 6.1016 67.3657 6.27027 67.6129C6.43894 67.8573 6.67598 67.9795 6.98141 67.9795C7.27771 67.9795 7.50108 67.8804 7.65151 67.6821C7.80422 67.4839 7.91477 67.196 7.98314 66.8185Z" fill="#322783"/>
<path d="M10.0913 63.2867H14.2419V64.5617H11.6435V65.5109H14.0538V66.7289H11.6435V67.9062H14.3171V69.2586H10.0913V63.2867Z" fill="#322783"/>
<path d="M15.114 63.2867H16.5602L18.4474 66.5904V63.2867H19.9073V69.2586H18.4474L16.5705 65.9793V69.2586H15.114V63.2867Z" fill="#322783"/>
<path d="M20.4871 63.2867H25.1949V64.7613H23.6154V69.2586H22.0666V64.7613H20.4871V63.2867Z" fill="#322783"/>
<path d="M25.8191 69.2586V63.2867H28.4004C28.879 63.2867 29.2448 63.3356 29.4978 63.4333C29.7508 63.5311 29.9548 63.7131 30.1098 63.9792C30.2648 64.2426 30.3423 64.5644 30.3423 64.9446C30.3423 65.276 30.283 65.5625 30.1645 65.8042C30.046 66.0432 29.883 66.2373 29.6756 66.3867C29.5434 66.4818 29.3622 66.5605 29.132 66.623C29.3166 66.6963 29.4511 66.7696 29.5354 66.8429C29.5924 66.8918 29.6745 66.9964 29.7816 67.1566C29.891 67.3169 29.9639 67.4404 30.0004 67.5273L30.7491 69.2586H28.9987L28.1713 67.4336C28.0665 67.1973 27.973 67.0439 27.8909 66.9733C27.7793 66.881 27.6528 66.8348 27.5114 66.8348H27.3747V69.2586H25.8191ZM27.3747 65.7064H28.0277C28.0984 65.7064 28.2351 65.6792 28.438 65.6249C28.5405 65.6005 28.6237 65.538 28.6876 65.4375C28.7537 65.337 28.7867 65.2216 28.7867 65.0913C28.7867 64.8985 28.7354 64.7504 28.6329 64.6472C28.5303 64.5441 28.3377 64.4925 28.0551 64.4925H27.3747V65.7064Z" fill="#322783"/>
<path d="M31.0522 66.2767C31.0522 65.3018 31.2802 64.5427 31.736 63.9996C32.1919 63.4564 32.8267 63.1848 33.6403 63.1848C34.4746 63.1848 35.1173 63.4523 35.5686 63.9873C36.0199 64.5196 36.2456 65.2665 36.2456 66.2278C36.2456 66.9258 36.1464 67.4988 35.9481 67.9469C35.7521 68.3923 35.4672 68.7399 35.0934 68.9897C34.7219 69.2369 34.258 69.3604 33.7019 69.3604C33.1366 69.3604 32.6682 69.2532 32.2967 69.0386C31.9275 68.8241 31.6278 68.4846 31.3975 68.0202C31.1673 67.5558 31.0522 66.9747 31.0522 66.2767ZM32.601 66.2852C32.601 66.8881 32.6945 67.3212 32.8814 67.5846C33.0705 67.8481 33.327 67.9798 33.6506 67.9798C33.9834 67.9798 34.2409 67.8508 34.4233 67.5928C34.6056 67.3348 34.6968 66.8717 34.6968 66.2037C34.6968 65.6415 34.6011 65.2314 34.4096 64.9734C34.2204 64.7127 33.9629 64.5824 33.6369 64.5824C33.3247 64.5824 33.074 64.7141 32.8848 64.9775C32.6956 65.2409 32.601 65.6768 32.601 66.2852Z" fill="#322783"/>
<path d="M42.6567 66.8185L44.014 67.3073C43.9229 67.7609 43.7793 68.1397 43.5832 68.4439C43.3872 68.748 43.1434 68.9775 42.8516 69.1323C42.5621 69.2871 42.1929 69.3645 41.7439 69.3645C41.1991 69.3645 40.7535 69.2708 40.4071 69.0834C40.0629 68.8933 39.7655 68.5607 39.5148 68.0854C39.264 67.6101 39.1387 67.0018 39.1387 66.2604C39.1387 65.2719 39.3586 64.5128 39.7985 63.9833C40.2407 63.451 40.8652 63.1848 41.6721 63.1848C42.3034 63.1848 42.7992 63.3369 43.1593 63.6411C43.5217 63.9452 43.7907 64.4123 43.9662 65.0424L42.5986 65.405C42.5508 65.223 42.5006 65.0899 42.4482 65.0057C42.3616 64.8645 42.2556 64.7559 42.1302 64.6799C42.0049 64.6038 41.8647 64.5658 41.7097 64.5658C41.3587 64.5658 41.0897 64.7342 40.9028 65.0709C40.7615 65.3208 40.6909 65.7132 40.6909 66.2482C40.6909 66.9108 40.7752 67.3657 40.9439 67.6129C41.1125 67.8573 41.3496 67.9795 41.655 67.9795C41.9513 67.9795 42.1747 67.8804 42.3251 67.6821C42.4778 67.4839 42.5884 67.196 42.6567 66.8185Z" fill="#322783"/>
<path d="M44.4741 66.2767C44.4741 65.3018 44.702 64.5427 45.1579 63.9996C45.6137 63.4564 46.2485 63.1848 47.0622 63.1848C47.8964 63.1848 48.5392 63.4523 48.9905 63.9873C49.4418 64.5196 49.6674 65.2665 49.6674 66.2278C49.6674 66.9258 49.5683 67.4988 49.37 67.9469C49.174 68.3923 48.8891 68.7399 48.5153 68.9897C48.1437 69.2369 47.6799 69.3604 47.1238 69.3604C46.5585 69.3604 46.0901 69.2532 45.7186 69.0386C45.3494 68.8241 45.0496 68.4846 44.8194 68.0202C44.5892 67.5558 44.4741 66.9747 44.4741 66.2767ZM46.0229 66.2852C46.0229 66.8881 46.1163 67.3212 46.3032 67.5846C46.4924 67.8481 46.7488 67.9798 47.0725 67.9798C47.4053 67.9798 47.6628 67.8508 47.8452 67.5928C48.0275 67.3348 48.1187 66.8717 48.1187 66.2037C48.1187 65.6415 48.0229 65.2314 47.8315 64.9734C47.6423 64.7127 47.3847 64.5824 47.0588 64.5824C46.7465 64.5824 46.4958 64.7141 46.3066 64.9775C46.1175 65.2409 46.0229 65.6768 46.0229 66.2852Z" fill="#322783"/>
<path d="M50.4373 63.2867H52.4749L53.2613 66.9203L54.0442 63.2867H56.075V69.2586H54.81V64.7043L53.8288 69.2586H52.6835L51.7057 64.7043V69.2586H50.4373V63.2867Z" fill="#322783"/>
<path d="M57.012 63.2867H61.1625V64.5617H58.5642V65.5109H60.9745V66.7289H58.5642V67.9062H61.2377V69.2586H57.012V63.2867Z" fill="#322783"/>
<path d="M61.9954 69.2586V63.2867H64.5766C65.0553 63.2867 65.4211 63.3356 65.6741 63.4333C65.9271 63.5311 66.1311 63.7131 66.2861 63.9792C66.4411 64.2426 66.5186 64.5644 66.5186 64.9446C66.5186 65.276 66.4593 65.5625 66.3408 65.8042C66.2223 66.0432 66.0593 66.2373 65.8519 66.3867C65.7197 66.4818 65.5385 66.5605 65.3083 66.623C65.4929 66.6963 65.6274 66.7696 65.7117 66.8429C65.7687 66.8918 65.8507 66.9964 65.9579 67.1566C66.0673 67.3169 66.1402 67.4404 66.1767 67.5273L66.9254 69.2586H65.1749L64.3476 67.4336C64.2427 67.1973 64.1493 67.0439 64.0672 66.9733C63.9555 66.881 63.829 66.8348 63.6877 66.8348H63.551V69.2586H61.9954ZM63.551 65.7064H64.204C64.2746 65.7064 64.4114 65.6792 64.6142 65.6249C64.7168 65.6005 64.8 65.538 64.8638 65.4375C64.9299 65.337 64.963 65.2216 64.963 65.0913C64.963 64.8985 64.9117 64.7504 64.8091 64.6472C64.7066 64.5441 64.514 64.4925 64.2313 64.4925H63.551V65.7064Z" fill="#322783"/>
<path d="M70.6111 66.8185L71.9684 67.3073C71.8772 67.7609 71.7336 68.1397 71.5376 68.4439C71.3416 68.748 71.0977 68.9775 70.8059 69.1323C70.5165 69.2871 70.1472 69.3645 69.6982 69.3645C69.1535 69.3645 68.7079 69.2708 68.3614 69.0834C68.0173 68.8933 67.7198 68.5607 67.4691 68.0854C67.2184 67.6101 67.093 67.0018 67.093 66.2604C67.093 65.2719 67.313 64.5128 67.7529 63.9833C68.195 63.451 68.8196 63.1848 69.6264 63.1848C70.2578 63.1848 70.7535 63.3369 71.1136 63.6411C71.476 63.9452 71.745 64.4123 71.9205 65.0424L70.553 65.405C70.5051 65.223 70.455 65.0899 70.4025 65.0057C70.3159 64.8645 70.2099 64.7559 70.0846 64.6799C69.9592 64.6038 69.819 64.5658 69.664 64.5658C69.313 64.5658 69.0441 64.7342 68.8572 65.0709C68.7159 65.3208 68.6452 65.7132 68.6452 66.2482C68.6452 66.9108 68.7295 67.3657 68.8982 67.6129C69.0669 67.8573 69.3039 67.9795 69.6093 67.9795C69.9056 67.9795 70.129 67.8804 70.2794 67.6821C70.4321 67.4839 70.5427 67.196 70.6111 66.8185Z" fill="#322783"/>
<path d="M72.7844 63.2867H74.3366V69.2586H72.7844V63.2867Z" fill="#322783"/>
<path d="M78.5337 68.2728H76.7695L76.5268 69.2586H74.9438L76.8277 63.2867H78.5166L80.4004 69.2586H78.7799L78.5337 68.2728ZM78.2089 66.9814L77.6551 64.8347L77.1046 66.9814H78.2089Z" fill="#322783"/>
<path d="M80.8984 63.2867H82.4472V67.788H84.8644V69.2586H80.8984V63.2867Z" fill="#322783"/>
</svg>
