<svg width="40" height="27" viewBox="0 0 40 27" fill="none" xmlns="http://www.w3.org/2000/svg">
<path d="M20.1709 16.54C21.2771 16.54 22.338 16.1428 23.1202 15.4358C23.9024 14.7288 24.3418 13.7698 24.3418 12.77C24.3418 11.7701 23.9024 10.8112 23.1202 10.1042C22.338 9.39719 21.2771 9 20.1709 9C19.0647 9 18.0038 9.39719 17.2216 10.1042C16.4394 10.8112 16 11.7701 16 12.77C16 13.7698 16.4394 14.7288 17.2216 15.4358C18.0038 16.1428 19.0647 16.54 20.1709 16.54Z" fill="#B4B9CA"/>
<path fill-rule="evenodd" clip-rule="evenodd" d="M0 13.195C2.65686 5.54754 10.5607 -3.8147e-06 19.8994 -3.8147e-06C29.238 -3.8147e-06 37.1419 5.54754 39.7987 13.195C37.1419 20.8424 29.238 26.3899 19.8994 26.3899C10.5607 26.3899 2.65686 20.8424 0 13.195ZM28.2412 13.195C28.2412 15.1947 27.3623 17.1125 25.7979 18.5265C24.2335 19.9405 22.1117 20.7349 19.8994 20.7349C17.687 20.7349 15.5652 19.9405 14.0008 18.5265C12.4364 17.1125 11.5576 15.1947 11.5576 13.195C11.5576 11.1952 12.4364 9.27741 14.0008 7.86339C15.5652 6.44937 17.687 5.65498 19.8994 5.65498C22.1117 5.65498 24.2335 6.44937 25.7979 7.86339C27.3623 9.27741 28.2412 11.1952 28.2412 13.195Z" fill="#B4B9CA"/>
</svg>
