<svg width="40" height="27" viewBox="0 0 40 27" fill="none" xmlns="http://www.w3.org/2000/svg">
<path d="M20 18C22.1217 18 24.1566 17.3151 25.6569 16.0962C27.1571 14.8772 28 13.2239 28 11.5C28 9.77606 27.1571 8.12276 25.6569 6.90378C24.1566 5.68479 22.1217 4.99997 20 4.99997C17.8783 4.99997 15.8434 5.68479 14.3431 6.90378C12.8429 8.12276 12 9.77606 12 11.5C12 13.2239 12.8429 14.8772 14.3431 16.0962C15.8434 17.3151 17.8783 18 20 18Z" fill="#B4B9CA"/>
<path fill-rule="evenodd" clip-rule="evenodd" d="M0 13.1949C2.65686 5.54751 10.5607 -3.05176e-05 19.8994 -3.05176e-05C29.238 -3.05176e-05 37.1419 5.54751 39.7987 13.1949C37.1419 20.8424 29.238 26.3899 19.8994 26.3899C10.5607 26.3899 2.65686 20.8424 0 13.1949ZM28.2412 13.1949C28.2412 15.1947 27.3623 17.1125 25.7979 18.5265C24.2335 19.9405 22.1117 20.7349 19.8994 20.7349C17.687 20.7349 15.5652 19.9405 14.0008 18.5265C12.4364 17.1125 11.5576 15.1947 11.5576 13.1949C11.5576 11.1952 12.4364 9.27738 14.0008 7.86336C15.5652 6.44934 17.687 5.65495 19.8994 5.65495C22.1117 5.65495 24.2335 6.44934 25.7979 7.86336C27.3623 9.27738 28.2412 11.1952 28.2412 13.1949Z" fill="#B4B9CA"/>
</svg>
