<svg width="305" height="50" viewBox="0 0 305 50" fill="none" xmlns="http://www.w3.org/2000/svg">
<path d="M0 39.4878L40.5676 37.4203C40.5676 36.8791 40.5943 36.3457 40.6057 35.8123C15.1843 37.9304 0 39.4878 0 39.4878Z" fill="#FF7622"/>
<path d="M305 23.9411C283.634 23.8866 262.123 24.1669 240.97 24.6886V27.2077L305 23.9411Z" fill="#FF7622"/>
<path d="M40.2589 46.4725H54.6504V36.7077L40.5486 37.428C40.4851 40.3585 40.3885 43.3733 40.2589 46.4725Z" fill="#FF7622"/>
<path d="M54.658 30.9609C56.4036 30.9167 58.9852 30.896 62.4026 30.8986C70.6122 30.8986 78.4178 31.0439 85.8193 31.3346V19.1247C78.4178 19.3843 71.1407 19.514 63.9881 19.514C59.8414 19.514 56.7314 19.4933 54.658 19.4518V12.8951H87.8164V1.24587H40.2589C40.5841 9.29238 40.7468 16.8301 40.7468 23.8592C40.7468 27.6903 40.6972 31.6773 40.5981 35.8199C44.9837 35.4539 49.6678 35.0724 54.6504 34.6752L54.658 30.9609Z" fill="#FF7622"/>
<path d="M129.173 1.24587H106.736L95.2484 31.6656C109.064 30.7195 123.967 29.7694 139.684 28.8817L129.173 1.24587ZM111.492 27.8461C114.257 20.2045 116.35 14.4941 117.773 10.7148L119.233 14.764C120.862 19.1247 122.448 23.4854 123.993 27.8461H111.492Z" fill="#FF7622"/>
<path d="M89.661 46.4726H104.967L108.016 37.5644H127.454C128.755 41.136 129.792 44.1054 130.564 46.4726H146.358L140.969 32.3043L94.0898 34.6988L89.661 46.4726Z" fill="#FF7622"/>
<path d="M186.251 33.3359C186.251 34.0887 185.56 34.783 184.178 35.4189C182.796 36.0549 180.417 36.3728 177.043 36.3728C173.437 36.3297 169.851 35.8182 166.372 34.8505C163.365 34.079 160.462 32.9349 157.727 31.4437L156.001 31.5333C155.322 33.5208 154.541 35.4703 153.661 37.3735C152.631 39.5306 151.485 41.6284 150.231 43.6575C154.204 45.8209 158.45 47.4128 162.85 48.3881C167.366 49.4473 171.983 49.9879 176.616 50C185.032 50 191.313 48.6451 195.459 45.9352C199.606 43.2254 201.681 38.7816 201.683 32.604C201.689 31.4628 201.538 30.3264 201.234 29.2283L182.97 30.1589C185.157 30.8311 186.251 31.8902 186.251 33.3359Z" fill="#FF7622"/>
<path d="M195.825 22.7846C191.922 20.6458 185.662 19.5764 177.043 19.5764C173.549 19.5764 170.881 19.2571 169.039 18.6186C167.197 17.9801 166.274 17.1313 166.268 16.0723C166.268 15.0132 166.939 14.2112 168.277 13.6583C169.615 13.1054 172.222 12.8329 176.086 12.8329C179.295 12.8329 182.995 13.439 187.185 14.6511C191.375 15.8633 194.504 17.3727 196.572 19.1792C196.735 18.7406 196.938 18.08 197.182 17.1975C198.485 13.0081 199.727 9.45854 200.906 6.54882C197.107 4.43109 193.058 2.81905 188.858 1.75206C184.608 0.610657 180.233 0.0219824 175.839 0C168.564 0 162.649 1.41074 158.093 4.23221C153.537 7.05368 151.261 11.4416 151.263 17.396C151.263 21.5854 153.133 24.6171 156.874 26.4912C157.976 27.0259 159.124 27.4548 160.304 27.7721C173.053 27.1258 186.221 26.5262 199.667 26.0045C198.629 24.6601 197.319 23.5615 195.825 22.7846Z" fill="#FF7622"/>
<path d="M225.709 27.9864V46.4726H240.955V27.2077L225.709 27.9864Z" fill="#FF7622"/>
<path d="M240.955 13.9544C246.969 13.9933 253.169 14.1231 259.554 14.3437V1.26164H207.172V14.3437C213.47 14.1335 219.65 14.0037 225.71 13.9544V25.1053C230.766 24.9547 235.848 24.8158 240.955 24.6886V13.9544Z" fill="#FF7622"/>
</svg>
