<svg width="168" height="109" viewBox="0 0 168 109" fill="none" xmlns="http://www.w3.org/2000/svg">
<g clip-path="url(#clip0_73_1899)">
<path d="M23.6771 75.2426C22.1376 75.7471 20.848 76.4793 19.5702 77.1786C16.2978 78.9807 12.6668 80.0431 8.93525 80.2903C3.43741 80.6517 0.00715653 77.5259 0.00244141 72.0276C0.00244141 61.5331 3.89478 52.6813 11.3187 45.2493C14.558 42.0014 18.0543 39.1666 22.2201 37.2047C24.3993 36.2021 26.7673 35.671 29.1679 35.6465C32.7419 35.562 36.0708 39.3801 35.4861 43.5338C35.3683 44.3716 34.7789 44.7752 34.0009 44.74C33.2229 44.7048 32.2987 44.6931 32.1808 43.6488C31.8956 41.1707 30.3867 40.4291 27.8665 40.3165C25.9746 40.1928 24.0939 40.6872 22.5101 41.7245C16.4299 45.7139 11.3235 50.588 8.34822 57.3207C6.81195 60.7936 5.87925 64.5009 5.58987 68.2846C5.42955 70.3708 6.316 71.5371 8.31285 72.274C10.1753 72.9662 12.1156 72.978 14.0087 72.694C18.4127 72.0088 22.6869 70.8425 26.4024 68.2658C29.1631 66.3532 30.5824 63.4738 31.6834 60.4184C31.9451 59.6933 31.5419 59.3905 30.896 59.3178C29.5734 59.1699 28.2484 59.0596 26.9258 58.9141C26.5741 58.8801 26.2275 58.8053 25.8932 58.6912C24.7144 58.2711 24.5305 57.363 25.4712 56.5628C26.4423 55.7629 27.588 55.2003 28.8166 54.9201C31.5218 54.2279 34.3467 54.1358 37.0916 54.6502C39.4492 55.0984 40.0763 56.1685 39.1215 58.3744C38.1439 60.6319 37.1427 62.8785 36.118 65.1142C31.6103 74.9563 26.452 84.4651 21.3172 93.9787C19.9774 96.46 18.3126 98.7532 16.3663 100.798C13.7871 103.513 10.6398 104.975 6.85117 104.168C4.18948 103.6 2.25392 101.873 1.03034 99.4418C0.808021 99.042 0.726026 98.5798 0.797339 98.1284C0.868651 97.677 1.08919 97.2622 1.42405 96.9496C2.1549 96.2222 3.04606 96.2667 3.9325 96.6704C4.70107 97.02 5.23623 97.663 5.8492 98.2051C7.62209 99.768 9.02955 99.761 10.6492 98.0432C12.4857 96.0954 13.7753 93.7464 15.1828 91.4982C18.3372 86.4575 20.9282 81.1117 23.5616 75.7917C23.6162 75.6124 23.6548 75.4286 23.6771 75.2426Z" fill="#00A9E8"/>
<path d="M158.921 54.4038C157.961 54.446 156.641 54.2419 156.255 55.3002C155.868 56.3586 157.056 56.9828 157.799 57.5507C160.015 59.2341 162.205 60.9464 164.369 62.6877C169.488 66.8038 168.417 71.5019 165.895 75.4678C164.261 78.0375 161.991 80.0486 159.371 81.6303C157.568 82.7168 156.587 82.4305 155.54 80.5719C155.367 80.267 155.217 79.9492 155.092 79.6215C154.222 77.3053 154.42 76.8735 156.684 75.8668C158.482 75.0821 160.164 74.0556 161.682 72.8161C163.025 71.7061 163.285 70.5397 162.585 68.9628C161.677 66.9211 160.05 65.5295 158.299 64.2412C156.25 62.7346 154.102 61.343 152.431 59.3835C150.405 57.0086 150.622 54.7206 153.11 52.8268C154.816 51.5244 156.785 50.7429 158.874 50.29C159.646 50.1047 160.46 50.2031 161.165 50.5669C161.95 50.9846 162.24 51.6511 162.21 52.5076C162.181 53.3126 161.738 53.8077 161.048 54.1222C160.379 54.4105 159.642 54.508 158.921 54.4038Z" fill="#00A9E8"/>
<path d="M98.0888 29.7469C99.1686 24.5841 100.512 19.4965 103.143 14.857C103.936 13.449 104.876 12.1395 106.475 11.5224C109.304 10.4288 112.069 11.276 114.108 14.0005C114.698 14.789 115.052 14.7491 115.726 14.2117C116.513 13.5804 117.376 13.0501 118.402 12.3343C118.311 14.3123 118.075 16.281 117.694 18.2246C116.987 22.1882 116.115 26.1072 114.231 29.7234C113.54 31.0493 112.718 32.2837 111.402 33.1051C111.209 33.2294 111.034 33.4125 110.695 33.2412C111.541 30.6598 112.418 28.0502 113.078 25.3867C113.437 23.9435 113.752 22.4932 113.764 21.0031C113.776 19.5129 113.314 19.2477 111.958 19.8297C109.419 20.9233 107.194 22.5284 105.006 24.1782C102.599 25.9922 100.251 27.8836 98.3175 30.2233C97.8531 30.2444 98.0605 29.9511 98.0888 29.7469Z" fill="#D73832"/>
<path d="M100.178 60.8033C100.913 58.6513 101.632 56.5792 102.33 54.4883C102.517 53.851 102.798 53.2445 103.162 52.6883C104.021 51.4704 105.39 51.2029 106.67 51.9984C107.079 52.2298 107.464 52.501 107.819 52.808C108.291 53.2791 108.862 53.641 109.49 53.8681C110.119 54.0952 110.79 54.1819 111.456 54.1222C111.862 54.0917 112.366 53.9814 112.588 54.5C112.781 54.9482 112.567 55.373 112.288 55.6921C111.774 56.3104 111.131 56.8106 110.405 57.1585C109.678 57.5065 108.884 57.6939 108.078 57.708C107.22 57.7314 106.359 57.5883 105.499 57.5484C104.638 57.5085 104.197 57.8628 103.914 58.7429C102.309 63.7437 101.347 68.8642 100.769 74.0692C100.578 75.8199 100.126 76.0757 98.4472 75.5476C96.3089 74.8718 95.8728 74.2875 95.6794 72.0487C95.3918 68.6718 95.7007 65.2573 95.347 61.8663C95.1796 60.3152 95.0075 58.7663 94.8071 57.2175C94.7034 56.4055 94.272 55.8095 93.5812 55.3213C92.2468 54.3639 92.3128 52.8291 93.7156 51.9749C94.5716 51.4116 95.5706 51.1015 96.5965 51.0808C98.4967 51.0808 99.5293 52.0594 99.5223 53.965C99.5017 55.877 99.5993 57.7885 99.8146 59.6886C99.8453 60.0382 99.791 60.409 100.178 60.8033Z" fill="#00A9E8"/>
<path d="M102.905 12.6253C101.545 10.2082 100.361 7.68548 98.6617 5.47488C98.2915 5.00554 97.8742 4.14195 97.2754 4.46579C96.4856 4.89524 97.3037 5.56405 97.5112 6.0639C98.9752 9.45255 99.923 12.9022 99.3171 16.6476C98.9752 18.7596 97.7823 21.0922 96.1273 22.4698C95.486 20.8787 95.3611 19.2289 95.1843 17.5956C94.6491 12.6675 94.7269 7.77466 96.0071 2.95217C96.1804 2.3117 96.4281 1.69349 96.745 1.11C97.5065 -0.298026 98.3953 -0.36843 99.2982 0.931648C99.698 1.51074 100.039 2.12781 100.317 2.77382C101.592 5.72363 102.438 8.80721 103.099 11.9424C103.148 12.2029 103.412 12.5221 102.905 12.6253Z" fill="#EEB243"/>
<path d="M120.745 32.3658C118.717 33.3045 116.636 34.1 114.653 35.1396C113.347 35.8249 112.343 36.7213 111.763 38.0824C111.55 38.5846 111.258 39.0539 111.02 39.5468C110.273 41.0909 109.134 41.9826 107.363 42.3065C103.862 42.9401 100.336 43.5526 97.1151 45.2047C96.9213 45.2562 96.7216 45.2822 96.521 45.2821C98.5438 42.2549 101.071 39.9246 103.959 37.9674C108.816 34.682 114.193 32.7812 120.019 32.1006C120.302 32.0819 120.674 31.7932 120.745 32.3658Z" fill="#94C691"/>
<path d="M78.2759 14.4628C81.1851 13.7846 84.0684 13.0548 87.0955 13.571C88.9061 13.8808 90.224 14.7561 90.9666 16.4317C92.558 20.0175 92.9777 23.8238 93.1238 27.717C89.8492 21.4325 85.8201 16.0351 78.2759 14.4628Z" fill="#FCE749"/>
<path d="M84.4056 20.0949C84.1344 21.2964 83.5615 22.4604 83.3942 23.7299C82.9226 27.4049 83.1278 31.0845 89.4602 31.5468C86.9564 33.0065 84.6201 34.1845 81.8217 33.7081C80.558 33.4923 79.9026 32.5348 79.5702 31.3919C78.2688 26.9614 81.369 21.93 83.9152 20.1066C83.9789 20.0408 84.0661 20.0027 84.1579 20.0005C84.2497 19.9983 84.3387 20.0322 84.4056 20.0949Z" fill="#6EC4EF"/>
<path d="M59.6156 83.2777C60.0048 83.2908 60.3925 83.3324 60.7755 83.4021C61.1409 83.4936 61.7563 83.3786 61.6266 84.0779C61.5299 84.5848 61.2447 84.911 60.6576 84.9016C59.479 84.8792 58.3009 84.964 57.1378 85.1551C55.5276 85.4249 55.2517 86.0069 56.1335 87.3633C56.902 88.5367 57.7838 89.6514 58.5193 90.8459C59.8679 93.0259 59.2855 95.2647 57.1048 96.5765C55.1881 97.7264 53.1747 97.8273 51.1166 97.0459C50.1405 96.6798 49.4545 96.0626 49.5111 94.8658C49.5511 94.0468 50.1123 93.7652 50.7064 93.629C51.4254 93.4648 51.1779 94.1618 51.2957 94.5067C51.739 95.8045 53.5826 96.4944 55.2046 95.9593C56.7865 95.4407 57.4891 94.1289 57.0176 92.5613C56.7323 91.6085 56.1217 90.8365 55.5771 90.0222C54.8392 88.9239 53.9268 87.9101 53.5849 86.596C53.2337 85.2255 53.4694 84.7468 54.7826 84.2352C56.3244 83.6391 57.9653 83.4561 59.6156 83.2777Z" fill="#1559A5"/>
<path d="M95.0616 43.867C89.7429 38.9085 83.0663 38.0191 76.3425 37.2212C80.0533 36.4749 83.7476 36.5899 87.4349 37.1813C88.9413 37.4159 90.436 37.7445 91.8364 38.3969C94.2176 39.5045 95.5095 41.6095 95.0616 43.867Z" fill="#0170B6"/>
<path d="M112.649 49.6353C112.088 49.5438 111.562 49.4006 111.326 48.9054C111.11 48.4502 111.59 48.2179 111.843 47.9668C113.576 46.1621 115.259 44.2989 117.194 42.7031C118.689 41.4711 120.837 42.0484 121.32 43.7122C121.488 44.2871 121.367 44.7095 120.893 45.0381C118.479 46.7207 115.874 48.0888 113.283 49.464C113.079 49.5452 112.866 49.6027 112.649 49.6353Z" fill="#00A9E8"/>
<path d="M130.847 84.0591C130.312 84.4065 130.909 85.493 129.984 85.5376C129.383 85.5657 128.949 85.026 128.961 84.3642C128.961 83.7705 129.244 83.3082 129.928 83.2918C130.406 83.2777 130.732 83.5006 130.847 84.0591Z" fill="#2060A8"/>
<path d="M120.745 32.3658C120.573 32.0819 120.273 32.1804 120.019 32.1124C120.417 31.819 120.856 31.8777 121.304 31.9575C121.28 32.3447 121.004 32.3423 120.745 32.3658Z" fill="#94C691"/>
<path d="M102.905 12.6253C103.141 12.4423 103.035 12.17 103.099 11.9424C103.393 12.332 103.36 12.7661 103.294 13.2237C102.945 13.151 103.002 12.8389 102.905 12.6253Z" fill="#EEB243"/>
<path d="M98.0888 29.7469C98.1619 29.9065 98.2374 30.066 98.3246 30.2162C98.2656 30.3852 98.1336 30.6856 98.0181 30.5729C97.7234 30.3312 97.8696 30.0121 98.0888 29.7469Z" fill="#D73832"/>
<path d="M92.9282 68.822C92.5321 68.1977 91.9333 68.0616 91.2779 68.3315C90.8376 68.5013 90.4324 68.7502 90.0826 69.066C88.4323 70.6571 86.4025 71.0114 84.2099 70.9434C81.1663 70.8472 80.0064 69.9648 79.2072 67.0291C78.8866 65.8557 79.1435 65.3113 80.3035 64.8279C81.3502 64.389 82.4017 63.9596 83.4697 63.57C87.3644 62.1432 88.5596 59.522 88.4795 55.0022C88.4606 53.9532 87.8972 53.1647 87.0178 52.5945C84.3797 50.8908 80.2775 51.3038 78.1062 53.559C76.4797 55.2668 75.3057 57.3507 74.6901 59.6229C74.1266 61.6105 74.1832 63.6428 74.1243 65.668C74.096 66.6325 73.6928 67.2849 72.8111 67.6932C71.6684 68.2014 70.4857 68.615 69.2748 68.9299C68.4072 69.1646 68.0158 68.7797 67.931 67.9607C67.797 66.9935 67.7701 66.0145 67.8508 65.0414C68.3978 60.3879 69.1923 55.7696 69.9443 51.1466C70.7129 46.4132 71.2858 41.6424 73.0728 37.1226C73.5676 35.9593 73.6998 34.6749 73.4524 33.4359C73.0681 31.7604 71.4909 31.2019 70.1306 32.2813C69.4636 32.8324 68.9192 33.5158 68.5321 34.2878C68.1313 35.0514 67.5594 35.713 66.8606 36.2215C65.9317 36.9044 65.887 37.3714 66.8229 38.0167C67.615 38.5635 67.8319 39.2464 67.7848 40.1287C67.7079 40.9833 67.5645 41.8307 67.3557 42.6632C66.1062 48.6215 64.7624 54.561 63.9325 60.5991C63.6048 62.9974 63.3007 65.3981 62.9895 67.7988C62.7655 69.5143 61.8532 70.5773 60.0991 70.8683C59.7526 70.9246 59.4154 71.0396 59.0712 71.103C56.8245 71.5958 56.1266 70.927 56.3341 68.6202C56.6453 65.1447 57.4893 61.7748 58.3121 58.3979C58.4724 57.7338 58.7836 57.2245 59.4697 57.0649C59.8422 56.9734 59.9671 56.8467 59.8917 56.4243C59.3942 53.6082 57.5341 52.111 54.6791 52.2988C54.0516 52.3345 53.4305 52.4432 52.8284 52.6226C47.4532 54.3076 43.0587 57.3935 39.784 61.9625C37.351 65.3629 37.1152 69.0543 38.7655 72.8583C39.619 74.8131 40.7742 75.4115 42.8889 75.1299C45.3809 74.799 47.1325 73.1892 48.8583 71.6099C49.8508 70.704 50.7113 69.6574 51.6308 68.6718L51.916 68.8666C51.7947 70.4618 52.1014 72.0605 52.8048 73.499C53.7361 75.3975 55.2213 76.1672 57.3125 75.8645C58.8001 75.6486 60.085 74.9633 61.2473 74.1115C62.1903 73.4074 62.683 73.323 63.3549 74.4775C64.298 76.0968 66.0072 76.2704 67.4854 75.09C67.9019 74.7337 68.2912 74.347 68.65 73.9331C70.3003 72.1238 72.2712 70.7181 74.4661 69.4861C74.6288 69.9132 74.775 70.3051 74.9211 70.697C76.0999 73.8392 80.6595 76.5919 83.7691 75.726C87.171 74.7873 90.0968 72.8325 92.7561 70.528C93.3149 70.0469 93.3101 69.4204 92.9282 68.822ZM53.8539 57.9567C53.0241 62.0658 50.3294 65.025 47.6583 67.9983C46.9015 68.8431 46.1046 69.6668 45.0932 70.2159C44.3459 70.6242 43.5632 71.1382 42.6697 70.6688C41.6866 70.1502 41.7266 69.1294 41.5946 68.3221C41.7007 66.081 42.863 64.389 43.9828 62.69C46.0316 59.5924 48.8559 57.5578 52.5031 56.7012C54.0543 56.3375 54.1581 56.4689 53.8539 57.9567ZM78.6272 61.8663C78.7875 60.2823 78.8253 58.6795 79.4807 57.1729C79.7043 56.6327 80.0175 56.1337 80.4072 55.6968C81.1734 54.8731 82.0976 54.3615 83.2363 54.7581C84.375 55.1547 84.3561 56.2248 84.415 56.8162C84.4787 58.9681 83.7549 60.2823 82.1306 61.0637C81.2158 61.5018 80.3003 61.9391 79.384 62.3756C78.8441 62.636 78.5612 62.5375 78.6272 61.8663Z" fill="#00A9E8"/>
<path d="M158.513 69.1411C157.464 68.1414 156.415 68.0874 155.272 69.0332C154.503 69.6996 153.67 70.2898 152.787 70.7955C150.413 72.0909 148.18 71.3095 147.35 68.7375C146.17 65.1797 145.313 61.5238 144.79 57.8135C144.721 57.2926 144.705 56.8749 145.221 56.49C145.903 55.9995 145.693 55.4105 145.181 54.8989C144.167 53.8632 143.043 52.9402 141.829 52.1462C140.558 51.3226 139.172 51.1231 137.67 51.2522C133.606 51.6018 130.42 53.6153 127.657 56.4149C124.772 59.346 122.963 64.6824 125.623 69.3758C125.778 69.648 125.934 69.8709 125.679 70.2136C125.409 70.5737 125.05 70.8585 124.637 71.0408C124.224 71.223 123.771 71.2966 123.321 71.2544C122.872 71.2123 122.44 71.0558 122.069 70.7999C121.697 70.5441 121.398 70.1976 121.2 69.7935C120.499 68.3497 120.022 66.8084 119.785 65.2221C119.207 61.4382 118.881 57.6204 118.809 53.7936C118.795 52.9699 118.611 52.2119 117.84 51.7872C116.603 51.1043 115.247 50.9424 113.851 51.0292C113.085 51.0761 112.673 51.6206 112.552 52.3387C112.439 53.0098 112.552 53.5989 113.354 53.7983C113.951 53.9509 114.094 54.3475 114.111 54.9365C114.17 57.1213 114.191 59.3154 114.408 61.4885C114.7 64.4219 114.502 67.4257 115.726 70.2394C116.843 72.8208 118.581 74.684 121.254 75.6368C123.14 76.315 124.828 75.8574 126.16 74.3978C126.724 73.7782 126.978 72.5345 127.811 72.6096C128.518 72.6729 129.138 73.6069 129.8 74.1537C132.924 76.7351 135.897 76.4769 138.523 73.4004C138.857 73.0167 139.165 72.6114 139.445 72.1871C140.244 70.9363 141.015 69.6715 141.84 68.3432C141.911 68.4047 141.975 68.4731 142.031 68.5474C142.145 68.7523 142.246 68.9639 142.333 69.181C143.422 71.9971 145.372 74.0551 148.022 75.489C149.401 76.2329 150.835 76.5051 152.325 75.9583C154.934 74.9844 156.917 73.1423 158.716 71.1147C159.315 70.467 159.145 69.7466 158.513 69.1411ZM137.387 67.0854C136.949 68.1226 136.444 69.1411 135.657 69.9859C134.185 71.57 132.535 71.5512 131.154 69.9202C129.463 67.9232 128.796 65.6774 129.807 63.1875C131.066 60.0547 132.705 57.0861 136.196 56.0277C139.179 55.1172 139.026 55.3237 139.511 58.0365C139.586 58.6157 139.63 59.1985 139.643 59.7824C139.759 62.4882 138.382 64.7363 137.387 67.0901V67.0854Z" fill="#00A9E8"/>
<path d="M151.141 89.1539C151.053 89.0806 150.974 88.9971 150.905 88.9051C150.198 87.7317 149.87 87.6918 148.878 88.6704C147.885 89.649 145.448 89.9729 144.363 89.2383C144.96 89.0248 145.07 88.654 144.74 88.1588C144.41 87.6637 144.033 87.476 143.448 87.7177C141.944 88.3466 140.586 89.1844 139.518 90.4258C138.83 91.2284 138.493 92.2562 139.082 93.1315C139.855 94.2838 139.264 94.6334 138.361 95.0441C137.998 95.2107 137.675 95.4618 137.269 95.2436C136.776 94.9784 136.897 94.4903 136.974 94.0937C137.194 92.9461 137.519 91.815 137.712 90.6628C137.842 89.8907 138.292 88.8746 137.422 88.4053C136.552 87.9359 135.97 88.8746 135.383 89.4073C134.695 90.0386 134.162 90.8482 133.24 91.3691C133.24 90.4445 133.676 89.757 133.796 88.9943C133.86 88.5813 134.094 88.0556 133.537 87.8796C133.066 87.7247 132.627 87.9664 132.288 88.3489C131.998 88.6775 132.031 89.0717 132.021 89.4589C131.986 91.2002 131.536 92.8546 130.958 94.4785C130.68 95.26 129.977 95.7786 129.249 95.6284C128.391 95.4501 128.853 94.6029 128.9 94.0327C129.032 92.4252 129.562 90.9045 130.015 89.3721C130.272 88.5109 129.675 88.4803 129.166 88.3231C128.657 88.1659 128.202 88.4358 128.28 88.9239C128.572 90.7496 127.492 92.3055 127.36 94.0397C127.316 94.624 126.097 95.3961 125.58 95.2131C124.791 94.9432 125.01 94.2744 125.109 93.7206C125.345 92.4158 125.642 91.1227 125.889 89.8203C125.974 89.3768 126.191 88.8511 125.653 88.5437C125.116 88.2363 124.663 88.5296 124.286 88.9004C123.343 89.8391 122.4 90.7778 121.457 91.7165C120.917 91.8009 121.117 91.4818 121.188 91.2307C121.298 90.8154 121.377 90.3926 121.424 89.9658C121.448 89.4566 121.825 88.7925 121.202 88.4757C120.58 88.1589 120.186 88.7103 119.788 89.0858C118.845 89.9564 117.949 90.8505 116.947 91.8197C117.183 90.8271 117.418 89.9283 117.624 89.0201C117.701 88.654 117.756 88.0087 117.301 88.0814C116.442 88.1987 115.782 88.8699 115.141 89.4237C114.585 89.8931 115.469 89.9494 115.525 90.2639C115.578 90.53 115.583 90.8031 115.542 91.0711C115.278 92.4111 115.07 93.7651 114.54 95.0394C114.372 95.4769 114.226 95.9225 114.104 96.3747C114.021 96.6539 114.033 96.9402 114.34 97.0787C114.408 97.119 114.483 97.145 114.562 97.155C114.64 97.165 114.72 97.1588 114.796 97.1368C114.872 97.1148 114.943 97.0774 115.004 97.0271C115.065 96.9767 115.115 96.9144 115.151 96.844C115.33 96.5413 115.514 96.2409 115.681 95.9311C116.456 94.4814 117.402 93.1294 118.501 91.9042C118.736 91.6508 118.993 91.2565 119.356 91.402C119.828 91.5897 119.625 92.106 119.545 92.4369C119.257 93.6502 118.923 94.854 118.555 96.0461C118.413 96.5014 118.281 96.8933 118.845 97.1022C119.408 97.311 119.625 96.9496 119.804 96.5131C119.922 96.2245 120.073 95.9499 120.196 95.6613C120.767 94.24 121.641 92.959 122.758 91.9065C123.011 91.6719 123.265 91.3011 123.645 91.4982C124.024 91.6953 123.838 92.1342 123.786 92.4533C123.595 93.6478 123.345 94.8329 123.159 96.0274C122.999 97.0482 123.506 97.4565 124.444 97.0083C125.169 96.6212 125.867 96.1852 126.533 95.7035C126.917 95.4477 127.117 95.3304 127.36 95.9382C127.912 97.3016 128.539 97.4448 129.812 96.6868C129.97 96.5953 130.069 96.2785 130.362 96.5272C131.305 97.3204 131.335 97.3251 131.743 96.1893C132.394 94.3399 133.465 92.6648 134.872 91.2941C135.18 90.9913 135.482 90.576 135.956 90.8083C136.43 91.0406 136.114 91.5123 136.05 91.8596C135.869 92.8194 135.553 93.7534 135.426 94.7179C135.324 95.4853 134.64 96.4521 135.426 97.0106C136.265 97.6114 137.029 96.7243 137.719 96.2667C138.295 95.8842 138.681 95.9007 139.261 96.3113C141.447 97.8578 142.713 99.883 142.883 102.572C142.982 104.126 142.828 105.623 141.345 106.482C139.735 107.421 138.021 107.618 136.31 106.646C135.15 105.987 135.013 105.18 136.046 104.365C136.824 103.75 136.941 102.791 137.595 102.124C136.627 102.353 135.718 102.78 134.926 103.377C133.983 104.055 133.792 104.914 134.251 105.947C135.117 107.89 136.673 108.854 138.759 108.998C141.48 109.181 144.302 107.59 144.434 104.525C144.575 101.263 143.689 98.4609 141.352 96.1142C140.912 95.6707 139.992 95.2975 140.211 94.6592C140.376 94.1899 141.341 94.4762 141.93 94.3072C143.288 93.913 144.934 93.6807 145.268 92.099C145.575 90.6464 146.549 90.7402 147.626 90.4C146.968 91.8643 146.24 93.1198 145.888 94.5208C145.653 95.4125 145.794 96.2644 146.567 96.8511C147.341 97.4377 148.112 97.1913 148.887 96.7994C150.373 96.0508 151.264 94.7954 151.907 93.3334C152.853 91.172 152.777 90.813 151.141 89.1539ZM143.677 92.045C143.173 92.5143 142.152 93.0025 141.416 93.0189C140.945 93.0189 140.556 92.742 140.523 92.0661C140.478 91.1885 141.4 89.8649 142.258 89.6443C142.965 89.4613 143.616 89.6443 144.005 90.2685C144.394 90.8928 144.219 91.5287 143.677 92.045ZM151.221 91.0476C150.891 92.6903 150.332 94.2157 148.864 95.1825C148.036 95.7293 147.385 95.4172 147.35 94.3776C147.763 92.9454 148.388 91.5826 149.206 90.3343C149.599 89.7382 150.127 90.3037 150.587 90.3812C150.924 90.4375 151.308 90.5689 151.221 91.0476Z" fill="#1459A4"/>
<path d="M106.449 86.2956C104.919 85.0682 103.108 84.437 101.262 83.8784C100.682 83.7048 100.039 83.7024 99.7557 82.9562C99.7144 82.8756 99.6548 82.8058 99.5815 82.7523C99.5083 82.6988 99.4235 82.6631 99.3339 82.6481C99.2443 82.633 99.1524 82.639 99.0656 82.6656C98.9788 82.6923 98.8994 82.7387 98.8339 82.8013C98.1266 83.5875 97.2142 83.1228 96.7757 83.2237C95.4673 83.3856 94.437 83.0336 93.6354 83.8808C93.3596 84.1718 92.7514 84.2492 92.9989 84.8195C93.2182 85.317 93.6072 85.554 94.2343 85.4155C95.1197 85.2366 96.0245 85.1711 96.9266 85.2208C97.648 85.2489 97.9191 85.4554 97.6952 86.204C97.259 87.659 96.8017 89.1163 96.4881 90.5994C96.125 92.3243 94.8166 93.7816 95.0736 95.6824C95.1254 96.0532 94.6963 95.9992 94.4747 96.1118C94.1659 96.2714 93.5529 96.072 93.6425 96.6844C93.7321 97.2969 94.2908 97.1538 94.694 97.1538C96.0873 97.1749 97.4241 96.8252 98.7278 96.4075C101.571 95.497 104.386 94.4903 106.628 92.4181C108.757 90.4445 108.672 88.0767 106.449 86.2956ZM105.506 90.7731C103.059 93.3005 99.8877 94.5044 96.3113 95.6801C97.5743 92.5118 98.6203 89.262 99.4421 85.9529C99.5364 85.5845 99.6991 85.4672 100.105 85.5305C101.903 85.8145 103.641 86.2744 105.164 87.3023C106.687 88.3302 106.807 89.4308 105.506 90.7731Z" fill="#1459A5"/>
<path d="M77.6345 94.9831C77.354 94.563 77.0758 94.8986 76.8424 95.0207C76.4534 95.2225 76.0762 95.49 75.6447 95.2107C75.152 94.8845 75.317 94.3847 75.409 93.9318C75.6895 92.6082 76.0149 91.2706 76.2506 89.9283C76.3449 89.3815 76.4864 88.6681 75.8239 88.363C75.2015 88.0791 74.7064 88.5296 74.2797 88.9403C73.4451 89.7405 72.6294 90.5549 71.6982 91.4677C71.6298 90.4821 72.0683 89.764 72.2192 88.9896C72.2923 88.6165 72.455 88.1448 72.04 87.9219C71.5685 87.6872 71.13 87.9336 70.7764 88.2785C70.6252 88.432 70.5097 88.6166 70.438 88.8193C70.3663 89.0221 70.3402 89.238 70.3614 89.4519C70.4534 91.0946 69.9324 92.6012 69.5151 94.1453C69.2557 95.1051 68.5556 95.4313 67.7634 95.6707C67.1245 95.8655 66.7214 95.5252 66.8204 94.8798C67.0561 93.4178 67.3721 91.9277 68.0581 90.637C68.4471 89.9095 68.44 89.4636 68.0746 88.8582C67.6809 88.2175 67.0891 88.1542 66.4243 88.3278C64.4204 88.8394 62.7418 89.8626 61.5088 91.5311C60.7001 92.627 60.1838 93.8426 60.4243 95.2483C60.7308 97.0506 62.0416 97.5762 63.442 96.4428C64.1304 95.8842 64.7481 95.2412 65.4459 94.5912C65.4688 94.728 65.4845 94.8658 65.4931 95.0042C65.5049 97.1303 66.2475 97.6255 68.1595 96.7572C68.4212 96.6399 68.5202 96.5225 68.8078 96.8182C69.4656 97.4636 69.8616 97.1139 70.1139 96.3489C70.7492 94.4117 71.8498 92.658 73.3202 91.2401C73.6385 90.928 73.9944 90.5361 74.4212 90.8153C74.7889 91.05 74.5414 91.5194 74.4613 91.8995C74.1689 93.2723 73.8223 94.6358 73.6031 96.018C73.4333 97.1022 73.9992 97.4964 74.9823 96.9684C75.9041 96.4709 76.8377 95.957 77.6086 95.2201C77.6322 95.2201 77.6581 95.1943 77.684 95.1427C77.71 95.091 77.7029 95.0394 77.6345 94.9831ZM66.3677 90.6745C65.8326 92.6411 64.5571 94.0843 63.0813 95.3891C62.8196 95.6237 62.4825 95.7763 62.1147 95.5487C61.7068 95.2976 61.7681 94.8939 61.7752 94.5959C61.8695 92.8429 64.1634 90.2897 65.7689 90.0268C66.3654 89.9236 66.5422 90.0269 66.3677 90.6745Z" fill="#1559A5"/>
<path d="M84.0307 89.4449C83.9332 89.4049 83.831 89.3773 83.7266 89.3627C83.7802 89.4626 83.8605 89.5458 83.9588 89.603C84.057 89.6601 84.1692 89.6891 84.2829 89.6866C84.2503 89.6177 84.2018 89.5574 84.1415 89.5106C84.3772 89.2759 84.6578 89.1046 84.9148 88.9028L84.4433 88.4522C84.8205 89.0577 84.4079 89.2431 84.0307 89.4449Z" fill="#1559A5"/>
<path d="M87.3313 89.1351C87.2735 89.0831 87.2192 89.0274 87.1686 88.9685C86.301 87.6825 85.905 87.6708 84.9054 88.9028C84.8323 89.2736 84.5447 89.473 84.2735 89.6866C83.5014 91.0436 82.8308 92.4555 82.2673 93.9106C81.9254 94.8493 80.98 95.0652 80.1714 95.1873C79.5396 95.2811 79.2779 94.5982 79.3227 94.0139C79.4323 92.8093 79.7059 91.6251 80.136 90.4938C80.1919 90.3484 80.288 90.2217 80.4131 90.1283C80.5383 90.0349 80.6874 89.9785 80.8433 89.9658C81.7981 89.7617 82.7576 89.5645 83.7148 89.3627C83.9505 89.0577 84.7215 89.1679 84.4221 88.4522C83.2433 88.4522 82.0645 88.7596 80.8056 88.5836C80.9447 88.0908 81.0696 87.6825 81.1733 87.2695C81.2629 86.9175 81.5788 86.4904 81.0177 86.2745C80.5722 86.1032 80.0299 86.0398 79.6975 86.427C79.4618 86.6945 79.3934 87.131 79.3462 87.5135C79.2449 88.3091 79.0704 88.9732 78.0449 88.9403C77.9052 88.9245 77.7647 88.9613 77.6508 89.0433C77.537 89.1254 77.458 89.2468 77.4295 89.3839C77.3753 89.7875 77.736 89.8884 78.0189 89.9963C78.3561 90.1278 78.8205 90.0456 78.6484 90.7004C78.2688 92.1084 77.9623 93.554 77.6252 94.9854L77.6111 95.2201C77.6725 95.3572 77.7192 95.5003 77.7502 95.6472C77.9199 97.2899 78.4975 97.5833 79.938 96.7361C80.6028 96.3442 81.2441 95.91 81.9018 95.4923C82.7341 97.3298 83.6394 97.6044 85.3486 96.6375C86.5981 95.9335 87.3737 94.8306 87.9844 93.5868C89.057 91.4349 88.9675 90.9022 87.3313 89.1351ZM84.8323 95.2952C84.0071 95.6191 83.4838 95.2647 83.5545 94.2838C84.0122 92.9257 84.6153 91.6204 85.3533 90.3906C85.6763 89.879 86.0936 90.1184 86.4896 90.2897C86.8857 90.461 87.3855 90.3319 87.4563 90.9468C87.593 92.0779 85.9168 94.8728 84.8346 95.2952H84.8323Z" fill="#1559A5"/>
<path d="M112.147 88.0392C111.529 87.8162 111.088 88.1729 110.732 88.5789C110.43 88.9358 110.158 89.3173 109.919 89.7194C108.948 91.2377 108.111 92.8265 107.693 94.5865C107.484 95.4618 107.616 96.3301 108.431 96.891C109.167 97.4002 109.933 97.182 110.652 96.8018C112.849 95.6284 113.776 93.6408 114.224 91.6836C114.262 90.6159 112.793 88.2739 112.147 88.0392ZM110.798 95.0793C110.426 95.3468 109.987 95.6003 109.502 95.314C109.016 95.0277 109.117 94.4738 109.247 94.0561C109.646 92.8406 110.172 91.6702 110.817 90.5642C111.303 89.6866 111.888 90.3296 112.437 90.4023C112.908 90.4657 113.092 90.7614 112.996 91.2354C112.557 92.6763 112.123 94.1406 110.798 95.084V95.0793Z" fill="#165AA5"/>
</g>
<defs>
<clipPath id="clip0_73_1899">
<rect width="168" height="109" fill="white"/>
</clipPath>
</defs>
</svg>
