<svg width="295" height="56" viewBox="0 0 295 56" fill="none" xmlns="http://www.w3.org/2000/svg">
<g clip-path="url(#clip0_73_1923)">
<path d="M0.280736 31.6782C-0.558047 25.8291 0.487206 20.295 3.18422 15.0726C5.70857 10.1572 9.66294 6.11486 14.5304 3.47408C14.8885 3.43552 14.853 3.68619 14.853 3.8983C14.4239 4.25825 15.0143 4.0847 15.0207 4.21968C15.4434 4.75638 15.5627 5.42164 15.8079 6.03225C15.9563 6.54003 16.1983 7.01567 16.3628 7.51701C16.511 8.02436 16.6954 8.52054 16.9145 9.00178C17.1145 9.54491 17.2596 10.1105 17.4984 10.644C17.6424 10.9369 17.7153 11.2595 17.7113 11.5857C17.6694 12.0581 17.3467 12.3441 17.008 12.6205C12.606 16.1589 9.46743 21.0178 8.05884 26.4751C7.82978 27.3364 7.70397 28.2201 7.50718 29.0879C7.47808 29.1765 7.43328 29.2592 7.37491 29.3321C6.9168 29.6535 6.35224 29.7146 5.87155 29.9749C5.32311 30.1709 4.76178 30.3219 4.22624 30.5469C3.84879 30.7044 3.46166 30.8394 3.07776 30.9776C2.45512 31.1543 1.87443 31.4468 1.25502 31.6203C0.932408 31.7199 0.61625 31.9192 0.280736 31.6782Z" fill="#DD0000"/>
<path d="M72.3773 37.1223H66.2219C67.9672 35.9107 67.8769 34.2042 67.9124 32.623C67.9898 29.1843 67.9479 25.7423 67.9285 22.3004C67.9285 21.4294 67.8124 20.5617 66.8252 20.1632C66.6962 20.1118 66.5187 20.0411 66.5445 19.8418C66.5703 19.6426 66.7478 19.5558 66.9284 19.5204C67.8963 19.228 68.8641 18.942 69.8319 18.6399C70.3029 18.492 70.4191 18.6784 70.4094 19.1251C70.39 20.1471 70.4094 21.1723 70.4771 22.2264C72.0547 19.4626 74.1871 17.83 77.5519 17.9843C80.9168 18.1385 82.9202 19.8097 84.0041 22.9849C84.2203 22.4578 84.3558 22.0882 84.5171 21.7315C85.6591 19.2441 87.6173 17.9585 90.3498 17.9585C91.151 17.9501 91.9509 18.0233 92.7371 18.1771C96.06 18.8488 97.9537 20.957 98.2215 24.3186C98.386 26.3754 98.2731 28.4322 98.3118 30.489C98.3344 31.7456 98.3409 33.0054 98.3764 34.262C98.4118 35.4125 98.699 36.4538 99.841 37.1191H93.5663C95.76 35.6247 95.3761 33.4682 95.3858 31.4757C95.3858 28.7793 95.6406 26.0637 95.0632 23.393C94.6954 21.6833 93.9437 20.1793 92.279 19.3726C91.6858 19.0742 91.0373 18.9006 90.3737 18.8628C89.7102 18.825 89.046 18.9238 88.4225 19.1529C87.799 19.3821 87.2296 19.7367 86.7497 20.1947C86.2698 20.6527 85.8898 21.2043 85.6333 21.8151C84.8719 23.5312 84.6816 25.3502 84.6655 27.2142C84.6655 29.2389 84.6655 31.2668 84.6655 33.2947C84.6655 34.773 84.7042 36.2192 86.2785 37.0998H80.0199C80.0199 37.0709 79.9844 36.9744 80.0038 36.9616C81.2136 36.2835 81.6168 35.1747 81.6426 33.8796C81.7491 30.3444 81.9652 26.8093 81.5426 23.3031C81.2007 20.5231 79.0005 18.7524 76.397 18.9323C74.9872 19.0287 73.9 19.7711 73.0032 20.7931C71.4783 22.5154 70.6454 24.7378 70.6642 27.0342C70.6449 28.9625 70.6642 30.8908 70.6642 32.8383C70.6578 34.4259 70.6933 35.991 72.3773 37.1223Z" fill="#4F4F4F"/>
<path d="M221.474 22.2297C223.913 17.1905 230.723 17.1616 233.979 19.2698C235.934 20.536 236.759 22.4 236.782 24.6625C236.811 27.6095 236.821 30.5566 236.84 33.5036C236.84 35.5475 236.84 35.5475 238.55 37.1191H231.646C234.114 35.9621 233.82 33.8603 233.853 31.977C233.891 29.4607 234.03 26.9411 233.733 24.4279C233.684 23.9409 233.596 23.4585 233.472 22.9849C232.92 21.0341 231.859 19.5237 229.739 19.0834C227.42 18.6013 225.394 19.1509 223.781 20.9281C222.478 22.393 221.756 24.2803 221.748 26.2372C221.677 28.6283 221.748 31.0258 221.781 33.42C221.813 34.8855 221.955 36.3381 223.545 37.1126H217.145C218.59 36.3221 218.822 34.9819 218.916 33.6161C219.137 29.9004 219.154 26.1754 218.968 22.4578C218.929 21.4616 218.89 20.3914 217.648 19.9672C217.325 19.8547 217.325 19.5847 217.68 19.4819C218.803 19.1627 219.931 18.8627 221.064 18.582C221.523 18.4696 221.458 18.8327 221.461 19.0962C221.477 20.1439 221.474 21.1884 221.474 22.2297Z" fill="#4F4F4F"/>
<path d="M24.7763 0.179966C32.8963 -0.681325 40.0776 1.53939 46.3717 6.71036C48.5106 8.4715 50.1624 10.6376 51.7367 12.8776C51.7948 13.0833 51.6528 13.1347 51.5044 13.199C51.0237 13.244 50.6979 12.9483 50.3624 12.6783C46.4414 9.49821 41.6901 7.50012 36.6676 6.91925C34.1896 6.62815 31.6823 6.69961 29.225 7.13136C28.625 7.23099 28.0282 7.45274 27.4023 7.30491C27.2476 7.22385 27.1107 7.11268 26.9999 6.97799C26.8891 6.84329 26.8065 6.68781 26.7571 6.52074C26.5764 5.95833 26.3829 5.39271 26.1861 4.83351C25.9893 4.27432 25.7731 3.83403 25.6183 3.31983C25.4021 2.58066 25.0569 1.89291 24.8376 1.16017C24.7569 0.832368 24.5795 0.517413 24.7763 0.179966Z" fill="#DD0000"/>
<path d="M184.216 17.9393C186.62 18.0295 188.989 18.5374 191.217 19.4401C192.056 19.7936 192.459 20.2114 192.023 21.1563C191.785 21.7864 191.584 22.4304 191.423 23.0845C191.372 23.2452 191.346 23.4959 191.101 23.4637C190.984 23.4637 190.872 23.2838 190.778 23.1649C190.689 23.0397 190.618 22.9022 190.568 22.7567C189.675 20.0122 187.423 19.2216 184.894 18.9709C181.022 18.6045 178.512 20.3882 177.538 24.1483C176.858 26.5568 176.88 29.1083 177.603 31.5046C179.129 36.3253 184.026 38.1957 188.413 35.6311C189.676 34.8554 190.772 33.8385 191.639 32.6391C191.814 32.4109 191.868 31.7489 192.365 32.1088C192.781 32.4045 192.446 32.8319 192.22 33.1565C190.433 35.7275 188.065 37.3344 184.845 37.6558C179.945 38.1153 175.49 35.3836 174.041 30.9647C173.563 29.5314 173.422 28.0077 173.63 26.5115C173.837 25.0154 174.387 23.5867 175.237 22.3361C176.087 21.0854 177.214 20.0463 178.532 19.2989C179.849 18.5516 181.322 18.1161 182.835 18.026L184.216 17.9393Z" fill="#4F4F4F"/>
<path d="M135.963 36.9198C138.222 35.975 138.057 34.0274 138.086 32.1956C138.135 28.94 138.057 25.6845 138.118 22.4321C138.144 21.0373 138.089 19.8129 136.289 19.4947L136.373 19.2698C137.686 18.9195 138.993 18.5467 140.312 18.2285C140.732 18.1289 140.596 18.5338 140.599 18.7331C140.599 20.0957 140.599 21.4584 140.599 23.0685C141.048 22.2157 141.558 21.3962 142.125 20.6163C142.732 19.8205 143.512 19.1712 144.405 18.7166C145.299 18.262 146.284 18.0139 147.287 17.9907C147.784 17.9682 147.987 17.9907 147.784 18.5499C147.461 19.379 147.174 20.2178 146.91 21.063C146.784 21.4616 146.664 21.603 146.309 21.2752C145.061 20.115 143.029 20.6324 142.086 22.2779C141.474 23.4183 141.109 24.6741 141.015 25.9641C140.719 28.68 140.689 31.4181 140.925 34.1399C141.032 35.3354 141.341 36.3895 142.777 36.6306C142.97 36.6627 143.151 36.7656 143.099 36.9873C143.067 37.1512 142.896 37.2026 142.732 37.2026C140.606 37.2026 138.48 37.2026 136.354 37.1769C136.289 37.1737 136.192 37.0612 135.963 36.9198Z" fill="#4F4F4F"/>
<path d="M251.954 36.9873C252.003 36.9038 252.029 36.7816 252.096 36.7559C253.416 36.2417 253.803 35.1201 253.871 33.8635C254.106 29.6342 253.948 25.3984 253.977 21.1659C253.978 20.872 253.891 20.5846 253.726 20.3406C253.562 20.0966 253.328 19.9072 253.054 19.7968C252.793 19.6618 252.445 19.6747 252.229 19.2601L256.048 18.2157C256.577 18.071 256.49 18.4567 256.49 18.7492C256.49 20.0925 256.49 21.4391 256.49 23.0685C256.961 22.0965 257.537 21.1793 258.21 20.3335C258.826 19.6032 259.593 19.0139 260.459 18.6057C261.325 18.1975 262.269 17.9801 263.226 17.9682C263.746 17.9457 263.82 18.0903 263.665 18.5242C263.317 19.4883 262.978 20.4814 262.604 21.5483C261.958 21.0759 261.387 20.5842 260.607 20.6292C259.384 20.6742 258.532 21.2977 257.942 22.3325C257.416 23.3057 257.087 24.3726 256.974 25.4724C256.587 28.3935 256.539 31.3493 256.832 34.2813C256.945 35.4061 257.281 36.412 258.639 36.6017C258.836 36.6274 259.013 36.7398 258.99 36.952C258.974 37.1094 258.813 37.1866 258.642 37.1834C256.487 37.1834 254.332 37.1609 252.19 37.1416C252.106 37.1544 252.035 37.0516 251.954 36.9873Z" fill="#4F4F4F"/>
<path d="M132.883 36.9391C131.668 37.1542 130.431 37.2104 129.202 37.1062C128.829 37.0781 128.477 36.9278 128.2 36.6789C127.923 36.43 127.736 36.0966 127.669 35.7307C127.472 34.831 127.392 33.9095 127.434 32.9894C127.434 29.1329 127.414 25.2506 127.45 21.3844C127.45 20.6806 127.25 20.4396 126.566 20.5199C126.165 20.5521 125.763 20.5521 125.363 20.5199C125.133 20.5199 124.811 20.5906 124.717 20.3014C124.624 20.0122 124.953 19.9093 125.156 19.8001C126.028 19.3413 126.829 18.7589 127.534 18.071C128.453 17.1598 129.12 16.0272 129.469 14.7834C129.547 14.5166 129.592 14.1567 129.934 14.2113C130.211 14.2595 130.134 14.6162 130.137 14.8541C130.137 16.2038 130.153 17.5536 130.137 18.9034C130.137 19.3726 130.263 19.5655 130.76 19.5462C131.56 19.5108 132.373 19.5462 133.163 19.5462C133.486 19.5462 133.808 19.5462 133.75 20.025C133.712 20.4203 133.515 20.5424 133.144 20.5392C132.344 20.5392 131.531 20.5392 130.74 20.5392C130.398 20.5392 130.137 20.581 130.147 21.0245C130.24 25.1285 129.863 29.2518 130.569 33.3333C130.837 34.8116 131.218 36.2771 132.883 36.9391Z" fill="#4F4F4F"/>
<path d="M248.747 36.9873C247.583 37.1545 246.405 37.2029 245.231 37.1319C244.811 37.1245 244.407 36.968 244.093 36.6905C243.778 36.413 243.573 36.0328 243.515 35.6182C243.367 34.8962 243.302 34.1598 243.321 33.4232C243.321 29.4285 243.302 25.437 243.321 21.4455C243.321 20.732 243.153 20.4267 242.405 20.5199C241.975 20.5519 241.544 20.5519 241.115 20.5199C240.911 20.5199 240.64 20.5617 240.582 20.2853C240.524 20.0089 240.776 19.9222 240.96 19.8258C243.163 18.6881 244.776 17.033 245.421 14.5841C245.467 14.4105 245.57 14.1888 245.773 14.2145C246.096 14.2563 245.967 14.5359 245.967 14.7384C245.967 16.0881 246.009 17.4411 245.967 18.7909C245.944 19.4337 246.167 19.5879 246.757 19.5462C247.401 19.5031 248.048 19.5031 248.693 19.5462C249.015 19.5654 249.596 19.2858 249.625 19.9414C249.657 20.6742 249.067 20.5167 248.628 20.5231C247.951 20.5231 247.27 20.5231 246.592 20.5231C246.27 20.5231 245.967 20.5232 245.973 20.9795C246.028 25.1188 245.754 29.2742 246.467 33.3782C246.831 35.4833 247.138 35.8657 248.747 36.9873Z" fill="#4F4F4F"/>
<path d="M16.1628 53.2554C12.6141 51.745 9.69124 49.3989 7.12972 46.6029C5.86078 45.1787 4.73186 43.6365 3.75846 41.9976C3.64877 41.2713 4.34238 41.3838 4.67789 41.1234C5.23923 40.921 5.81993 40.7763 6.36836 40.5321C6.85228 40.3746 7.30393 40.0725 7.85236 40.2107C8.30079 40.4646 8.40725 40.9306 8.55565 41.3613C9.75109 44.8283 11.6287 48.023 14.0787 50.7583C14.8507 51.6237 15.7958 52.3187 16.8532 52.7991C17.1758 52.9469 17.479 53.0787 17.55 53.4708C17.0145 53.9528 16.6467 53.2072 16.1628 53.2554Z" fill="#DD0000"/>
<path d="M53.9371 38.8481C51.8562 43.8937 48.4882 47.9045 44.0265 51.0283C43.8781 51.1311 43.7394 51.2501 43.5942 51.3497C42.8942 51.1697 42.949 50.6169 42.949 50.0835C43.1803 49.7552 43.4925 49.4918 43.8555 49.3186C46.5532 47.6218 48.7972 45.2981 50.3948 42.5472C51.618 40.5092 52.3993 38.2387 52.6886 35.8818C52.8176 34.7184 53.1047 33.5486 52.9757 32.3466C52.7015 29.8142 52.2821 27.3267 51.1626 25.0064C51.1101 24.8947 51.0826 24.773 51.082 24.6496C51.3175 24.0712 51.8207 24.0069 52.3531 23.9876C52.4565 24.0141 52.547 24.0769 52.6079 24.1644C54.3403 27.992 54.7145 31.9995 54.3048 36.1357C54.2242 37.0645 53.8241 37.9257 53.9371 38.8481Z" fill="#F60001"/>
<path d="M24.7765 0.179962L25.8056 3.28769C25.3733 3.64441 24.8378 3.60906 24.3184 3.69583C21.7296 4.09056 19.2024 4.8142 16.7984 5.84906C16.4476 6.04862 16.0399 6.12554 15.6402 6.0676L14.8627 4.20682C14.8346 4.18266 14.8115 4.15317 14.7949 4.12007C14.7783 4.08697 14.7684 4.05091 14.7659 4.01399C14.7433 3.81152 14.7659 3.59299 14.5369 3.47408C17.621 1.86719 20.8439 0.668457 24.3345 0.302087C24.4849 0.27339 24.6327 0.232545 24.7765 0.179962Z" fill="#FECACC"/>
<path d="M25.97 55.8361C24.403 55.8409 22.8457 55.5901 21.36 55.0937C21.3825 54.7723 21.1051 54.7723 20.918 54.7498C20.0083 54.577 19.1713 54.1372 18.5145 53.4868C17.8048 52.8151 16.9338 52.3138 16.2272 51.6325C13.2294 48.7823 10.9472 45.2692 9.56538 41.3773C9.39031 40.8559 9.11162 40.375 8.74595 39.9632C8.73677 39.9173 8.73779 39.8699 8.74893 39.8244C8.76008 39.7788 8.78108 39.7363 8.81047 39.6997C9.03729 39.5188 9.30209 39.391 9.58524 39.3259C9.86839 39.2608 10.1626 39.2601 10.4461 39.3237C10.8191 39.6485 11.0789 40.0829 11.1881 40.5642C13.298 46.6351 17.1886 51.1504 22.9149 54.1617C24.1247 54.8045 25.2829 55.2383 26.6378 55.2512C27.3121 55.2512 27.4476 55.4536 27.3314 55.91C26.8766 55.8811 26.4152 55.9903 25.97 55.8361Z" fill="#E70000"/>
<path d="M8.78453 39.9632C9.37168 40.0082 9.49427 40.4646 9.64267 40.9081C10.9646 44.8092 13.1867 48.347 16.1303 51.2372C17.1498 52.2591 18.3886 52.9855 19.4435 53.9882C19.9791 54.5056 20.834 54.4092 21.5179 54.6791C21.6469 54.7305 21.8857 54.7209 21.8405 54.9266C21.7953 55.1323 21.5405 55.0648 21.3695 55.0937C20.2081 54.9844 19.1532 54.5152 18.0789 54.1071C18.037 53.7568 17.6789 53.67 17.5111 53.4257C16.9401 53.1301 16.3465 52.873 15.8045 52.5355C13.643 51.189 12.3526 49.0646 10.9847 47.0335C9.61686 45.0024 8.7684 42.5985 7.86187 40.2846C7.84961 40.2416 7.84882 40.1962 7.85957 40.1528C7.87032 40.1094 7.89224 40.0696 7.92316 40.0372C8.1877 39.8476 8.46837 39.7126 8.78453 39.9632Z" fill="#E30000"/>
<path d="M53.9371 38.8481C53.4951 37.9418 53.9371 37.0323 54.0306 36.155C54.421 32.3531 54.1726 28.654 52.695 25.0899C52.549 24.7899 52.4782 24.4591 52.4885 24.1258C52.6337 23.708 53.0241 23.6373 53.3693 23.5023C53.4811 23.4521 53.6041 23.4317 53.7262 23.443C53.8483 23.4542 53.9654 23.4968 54.0661 23.5666C55.1307 25.527 55.6082 27.6738 56.0921 29.8206C56.116 29.9739 56.0924 30.1309 56.0243 30.2705C55.9858 32.0958 55.6681 33.9045 55.0823 35.6343C54.7597 36.7174 54.321 37.7811 53.9371 38.8481Z" fill="#F10000"/>
<path d="M4.75536 41.3034C4.5005 41.6248 3.8456 41.4062 3.78753 41.9976L2.7326 39.9665C2.93907 39.539 2.66485 39.192 2.50355 38.8513C2.13819 38.1254 2.02257 37.2999 2.17449 36.502C2.40031 35.194 2.21643 33.8314 2.24546 32.4912C2.24546 31.8099 2.32611 31.1382 3.04553 30.7751C3.38714 30.5717 3.76708 30.4404 4.16176 30.3894C4.46178 30.6915 4.40371 31.0611 4.35532 31.4243C3.99132 34.3361 4.13209 37.2885 4.77149 40.1529C4.86505 40.5385 5.00054 40.9274 4.75536 41.3034Z" fill="#FEDDDE"/>
<path d="M43.007 50.122C43.1813 50.5495 43.178 51.0572 43.5942 51.3722C40.4778 53.2812 37.1904 54.7691 33.5675 55.4344C33.4378 55.3173 33.3288 55.1793 33.2449 55.0263C33.1384 54.7788 33.0255 54.5281 33.2288 54.2742C34.5708 53.7311 36 53.4547 37.3194 52.8473C38.7787 52.1848 40.1531 51.3508 41.4134 50.3631C41.8466 50.0175 42.1805 49.5641 42.3812 49.0486C42.4097 49.0144 42.4458 48.9873 42.4867 48.9695C42.5276 48.9516 42.5721 48.9435 42.6167 48.9458C42.8328 49.0647 42.8812 49.2864 42.9619 49.4921C43.0412 49.6926 43.057 49.9124 43.007 50.122Z" fill="#FEEBEB"/>
<path d="M55.0823 20.6035C55.5597 21.3555 55.4887 22.2586 55.7823 23.062C55.3403 23.2774 54.9113 23.5345 54.3854 23.4509C52.8352 20.0849 50.6641 17.039 47.9849 14.4716C48.1268 14.0345 48.5075 13.9992 48.8785 13.9413C49.1984 13.9053 49.5223 13.9493 49.8209 14.0694C50.1194 14.1894 50.3832 14.3818 50.5883 14.6291C52.0374 16.1174 53.3005 17.7749 54.3499 19.5654C54.5596 19.9415 54.7113 20.3528 55.0823 20.6035Z" fill="#FED6D8"/>
<path d="M55.0822 20.6035C54.5337 20.6549 54.4369 20.1986 54.2401 19.8611C53.1868 18.0007 51.9 16.2814 50.4108 14.7448C50.2406 14.5288 50.0171 14.3605 49.762 14.2563C49.507 14.1521 49.2292 14.1155 48.9558 14.1502C48.9558 13.771 49.2978 13.771 49.5204 13.6393C50.2011 13.3982 50.8528 13.0672 51.598 13.064C51.7141 13.064 51.7496 12.9836 51.727 12.8776C53.3121 15.2259 54.4494 17.8448 55.0822 20.6035Z" fill="#FED2D4"/>
<path d="M3.05842 30.7751C2.6602 31.2833 2.46073 31.9182 2.49709 32.5619C2.51644 33.751 2.6971 34.9819 2.45192 36.1164C2.18093 37.3665 2.45192 38.3917 2.97455 39.4491C3.10682 39.7254 3.03907 39.9247 2.70033 39.9665C1.6022 37.557 0.803738 35.0229 0.322702 32.4205C0.292472 32.1786 0.278459 31.9348 0.280761 31.691L3.05842 30.7751Z" fill="#FED9DB"/>
<path d="M33.4192 55.0841L33.5676 55.4344C31.0512 55.8907 28.5284 56.2121 25.9701 55.8361L27.4896 55.8072C27.8122 55.4858 28.251 55.6754 28.6736 55.5244C25.283 54.7177 22.1924 53.3808 19.5018 51.2404C15.7466 48.2484 13.0496 44.5172 11.5979 39.9151C11.5076 39.629 11.3559 39.3366 11.5527 39.0313C12.2334 39.0313 12.2721 39.6098 12.4238 40.0372C13.6095 43.4775 15.6 46.5873 18.2307 49.1097C21.1076 51.8786 24.6898 53.8112 28.5897 54.6984C29.2349 54.8495 29.8479 55.2094 30.5447 55.2158C31.0899 55.2158 31.619 55.2962 32.1578 55.0937C32.5384 54.9587 33.0062 54.8173 33.4192 55.0841Z" fill="#EB0101"/>
<path d="M54.3435 23.3513C54.8435 23.3513 55.2435 22.8531 55.7888 23.062C56.1067 25.0574 56.2385 27.0779 56.1823 29.0975C56.163 29.4896 56.2243 29.8977 56.0243 30.2705C55.5756 28.3859 55.0187 26.5285 54.3564 24.7075C54.2144 24.3379 54.0983 23.9587 53.9692 23.5859C54.0273 23.3963 54.137 23.2967 54.3435 23.3513Z" fill="#EC0101"/>
<path d="M17.5014 53.4258C18.4176 53.6764 18.4176 53.6764 18.0692 54.1071C17.3989 53.9078 16.7579 53.6215 16.1626 53.2554C16.6433 53.0401 17.0143 53.7632 17.5014 53.4258Z" fill="#E20101"/>
<path d="M7.33618 29.1232C7.61994 26.7836 8.25845 24.5005 9.2299 22.3518C10.5365 19.334 12.456 16.718 14.6788 14.3174C15.3601 13.6568 16.0796 13.0365 16.8338 12.4598C17.1564 12.2027 17.479 11.9874 17.5242 11.531C17.8823 11.5664 17.9048 11.8877 18.0274 12.1223C18.1504 12.4215 18.2244 12.7383 18.2468 13.0608C18.1541 13.5775 17.8638 14.0383 17.4371 14.3463C13.34 17.8754 10.5143 22.6429 9.3912 27.9212C9.36288 28.1985 9.2372 28.4568 9.03633 28.6508C8.49112 28.8854 8.03302 29.4317 7.33618 29.1232Z" fill="#E20000"/>
<path d="M26.9379 6.4179L27.3218 7.15386C27.5896 7.4206 27.7702 7.70662 27.5379 8.08585C24.1436 8.22415 20.8141 9.05664 17.7564 10.5315C17.6218 10.6064 17.4717 10.6493 17.3177 10.6569C17.0375 10.156 16.8403 9.61343 16.7338 9.04998C16.6628 8.52935 17.0822 8.3783 17.4209 8.21762C20.1281 6.98691 23.0153 6.19491 25.9733 5.87157C26.1719 5.84554 26.3735 5.88482 26.5476 5.98343C26.7218 6.08205 26.8588 6.2346 26.9379 6.4179Z" fill="#FED8D9"/>
<path d="M17.3176 10.6569C18.4661 9.60596 19.9598 9.291 21.3728 8.87643C23.1172 8.3346 24.9165 7.98753 26.7378 7.84159C27.0236 7.81723 27.3087 7.89593 27.5411 8.06334C28.0766 8.20154 28.054 8.7061 28.2024 9.08211C28.2226 9.18063 28.2181 9.28256 28.1894 9.37894C28.1607 9.47533 28.1087 9.56321 28.0379 9.63488C27.4701 9.9177 26.8346 9.84378 26.2345 9.9177C23.6754 10.2325 21.1758 10.9167 18.8145 11.9488C18.5145 12.0806 18.2177 12.2927 17.8467 12.1384L17.5241 11.5406C17.4499 11.245 17.3821 10.9525 17.3176 10.6569Z" fill="#FEDDDE"/>
<path d="M7.88462 40.1593C7.86558 40.2008 7.85463 40.2455 7.85236 40.2911L6.38771 40.7057C5.81669 40.8953 5.77798 40.4132 5.70056 40.1015C5.08482 37.7609 4.87426 35.3329 5.07792 32.9219C5.12533 32.1905 5.21148 31.4621 5.33601 30.7397C5.37153 30.369 5.54536 30.0249 5.82315 29.7756C6.28311 29.5118 6.78681 29.3322 7.31037 29.2453C7.63298 29.5892 7.50071 29.9909 7.42651 30.3734C6.90614 33.053 6.88864 35.8054 7.3749 38.4914C7.49121 39.0622 7.66189 39.6207 7.88462 40.1593Z" fill="#FEE5E6"/>
<path d="M7.88456 40.1593C7.51678 40.1304 7.38129 39.9183 7.30709 39.568C6.76632 37.1604 6.62465 34.6809 6.8877 32.2277C7.00384 31.2314 7.29096 30.2609 7.31032 29.255C7.31991 29.2116 7.32638 29.1675 7.32967 29.1232C7.92973 29.0557 8.43622 28.7311 8.98466 28.5254C9.00751 28.5107 9.03385 28.5023 9.06102 28.5009C9.0882 28.4996 9.11525 28.5054 9.13945 28.5178C9.16365 28.5302 9.18416 28.5487 9.19889 28.5715C9.21363 28.5942 9.22208 28.6205 9.22339 28.6476C8.67184 30.8807 8.42872 33.1783 8.50074 35.4768C8.52578 36.5473 8.63363 37.6142 8.82335 38.6681C8.89433 39.0538 9.0395 39.4458 8.804 39.8315C8.80277 39.8772 8.79177 39.9221 8.77173 39.9633C8.44912 39.8572 8.20717 40.1914 7.88456 40.1593Z" fill="#FEE9EA"/>
<path d="M26.9378 6.41792C26.3313 5.73981 25.5796 6.16725 24.9537 6.27009C22.3728 6.68466 19.863 7.29206 17.5079 8.44581C17.2079 8.59043 16.8627 8.69006 16.7336 9.05C16.4614 8.58942 16.2766 8.08284 16.1884 7.5556C16.1013 7.14745 16.4143 7.01568 16.6853 6.89677C19.4826 5.6096 22.4773 4.80024 25.5441 4.50251C25.8344 4.47359 26.1893 4.38361 26.3538 4.7564C26.6157 5.2845 26.8117 5.84246 26.9378 6.41792Z" fill="#FED3D5"/>
<path d="M5.82319 29.7852C5.37799 32.0638 5.11345 34.3392 5.41025 36.6756C5.56187 37.855 5.73286 39.0216 5.99739 40.1818C6.05224 40.4228 6.04901 40.6832 6.38775 40.7057C5.87398 40.9892 5.31883 41.1909 4.74245 41.3034C3.85168 37.7311 3.65891 34.0214 4.17465 30.3766C4.69065 30.0968 5.2466 29.8974 5.82319 29.7852Z" fill="#FEE1E2"/>
<path d="M26.3701 4.75639C24.5764 4.65033 22.8698 5.13882 21.16 5.5534C19.5942 5.97355 18.0644 6.51732 16.5854 7.17956C16.5 7.21394 16.4224 7.2649 16.3571 7.32945C16.2917 7.39401 16.2399 7.47088 16.2047 7.55558C15.938 7.0944 15.7525 6.59114 15.6562 6.0676C18.8552 4.55532 22.296 3.61439 25.8217 3.28769L26.3701 4.75639Z" fill="#FECFD1"/>
<path d="M0.654967 29.2228C0.903376 29.4253 0.832401 29.6149 0.835627 29.7788C0.863924 30.1668 0.821294 30.5566 0.70981 30.9294C0.683628 30.7977 0.665316 30.6646 0.654967 30.5308C0.648515 30.1163 0.654967 29.7049 0.654967 29.2228Z" fill="#C81516"/>
<path d="M0.74836 27.1725C0.783994 27.1725 0.812881 26.7091 0.812881 26.1376C0.812881 25.5661 0.783994 25.1028 0.74836 25.1028C0.712725 25.1028 0.683838 25.5661 0.683838 26.1376C0.683838 26.7091 0.712725 27.1725 0.74836 27.1725Z" fill="#C91515"/>
<path d="M6.74585 10.7629C6.80985 10.59 6.90911 10.4323 7.03737 10.2995C7.16563 10.1668 7.32012 10.0619 7.49108 9.99161C7.44232 10.1724 7.34841 10.3379 7.2181 10.4728C7.08779 10.6077 6.92533 10.7075 6.74585 10.7629Z" fill="#D00D0E"/>
<path d="M14.756 4.01401L14.8528 4.20684L14.0527 4.55071C14.1398 4.07186 14.4818 4.07828 14.756 4.01401Z" fill="#D10C0D"/>
<path d="M11.0236 6.60432C10.9348 6.77619 10.8123 6.9285 10.6632 7.05218C10.5141 7.17586 10.3415 7.26837 10.1558 7.3242C10.2976 7.01555 10.5381 6.76241 10.8397 6.60432C10.9021 6.52504 10.9634 6.52504 11.0236 6.60432Z" fill="#CF0E0F"/>
<path d="M11.5752 6.06761C11.7268 5.72374 12.0398 5.66267 12.4043 5.50198C12.2882 5.92299 11.9688 5.91978 11.7591 6.06761C11.701 6.12546 11.6397 6.12867 11.5752 6.06761Z" fill="#D10C0C"/>
<path d="M11.5751 6.0676H11.7655C11.6268 6.38897 11.2945 6.46932 11.0235 6.62037H10.8396C10.9719 6.26685 11.3074 6.20257 11.5751 6.0676Z" fill="#D00D0D"/>
<path d="M1.01938 23.9619C1.02243 24.1207 1.00618 24.2794 0.97099 24.4343C0.741938 24.4632 0.867757 24.2608 0.8484 24.1579C0.829043 24.0551 0.880662 24.0004 0.900019 23.9201L1.01938 23.9619Z" fill="#C71717"/>
<path d="M4.33912 14.5488C4.27137 14.6677 4.20685 14.8701 4.13265 14.8894C3.88102 14.8894 4.01974 14.7159 4.05523 14.6163C4.09071 14.5166 4.16814 14.507 4.22621 14.4556L4.33912 14.5488Z" fill="#D00E0E"/>
<path d="M170.867 26.6615C170.237 21.1434 164.863 17.6372 159.688 17.9843C159.259 18.0261 158.827 18.0421 158.398 18.1128C157.941 18.1859 157.49 18.2934 157.049 18.4342C153.223 19.6715 150.526 22.0561 149.784 26.1119C149.11 29.8206 150.326 32.9669 153.313 35.3354C155.378 36.9288 157.931 37.7645 160.542 37.7019C163.152 37.6393 165.662 36.6821 167.647 34.9916C170.16 32.7805 171.241 29.9749 170.867 26.6615ZM166.563 32.7966C165.421 35.4415 163.266 36.7688 160.175 36.7334C157.152 36.7013 154.959 35.3419 153.955 32.6937C152.769 29.6265 152.742 26.234 153.881 23.1488C154.985 20.0572 157.459 18.701 161.166 18.9452C164.105 19.138 166.298 21.1209 167.057 24.2961C167.34 25.4604 167.474 26.6559 167.453 27.8538C167.431 29.5506 167.247 31.2186 166.563 32.7966Z" fill="#4F4F4F"/>
<path d="M283.089 20.3239C279.008 17.0716 272.901 17.1937 268.895 20.5392C267.023 22.0675 265.812 24.2536 265.511 26.6459C265.211 29.0383 265.845 31.4541 267.282 33.3943C269.456 36.2867 272.488 37.5915 276.073 37.7008C276.97 37.7162 277.866 37.6157 278.737 37.4019C282.773 36.3414 285.657 33.9921 286.567 29.8238C287.409 25.993 286.154 22.7792 283.089 20.3239ZM283.318 27.4296C283.302 29.5346 283.125 31.2025 282.438 32.7805C281.251 35.4993 279.054 36.8202 275.873 36.7334C272.866 36.6531 270.669 35.1844 269.714 32.4559C268.705 29.5941 268.659 26.4828 269.582 23.5923C270.621 20.25 273.04 18.7717 276.834 18.9324C279.921 19.0738 282.202 21.092 282.964 24.3701C283.202 25.3725 283.321 26.3994 283.318 27.4296Z" fill="#4F4F4F"/>
<path d="M27.9832 9.02748L27.538 8.06335C27.467 7.76125 27.3928 7.45916 27.3186 7.15386L32.8546 6.45326C34.145 6.28614 35.4354 6.52395 36.7033 6.66536C40.1562 7.05145 43.4977 8.11768 46.5332 9.802C47.9604 10.5809 49.3106 11.4923 50.5658 12.5241C50.8517 12.8036 51.2143 12.9926 51.6078 13.0672C50.9715 13.4115 50.2878 13.6606 49.5786 13.8064C49.056 13.9863 48.6979 13.6553 48.3301 13.3918C44.9334 10.9156 40.9685 9.32573 36.7969 8.76717C34.2601 8.44145 31.6878 8.51411 29.1736 8.98249C28.7736 9.04998 28.3864 9.19781 27.9832 9.02748Z" fill="#E30000"/>
<path d="M26.9087 0.671684H25.686V0.578491H26.9055L26.9087 0.671684Z" fill="#CF0E0F"/>
<path d="M31.1672 0.671684H29.9478V0.578491H31.1672V0.671684Z" fill="#CF0F0F"/>
<path d="M32.0479 0.800211C32.1473 0.737683 32.2625 0.704498 32.3801 0.704498C32.4978 0.704498 32.613 0.737683 32.7124 0.800211C32.5189 0.925548 32.3317 0.925548 32.0479 0.800211Z" fill="#CE1011"/>
<path d="M214.835 29.8142C214.306 29.6181 214.296 30.1645 214.19 30.4794C213.427 32.6463 211.902 34.4642 209.896 35.5958C206.383 37.5947 201.831 36.6338 199.895 33.4586C198.605 31.3054 198.33 28.9079 198.437 26.4461C198.472 25.6331 198.759 25.3181 199.65 25.3502C201.96 25.4306 204.276 25.376 206.589 25.376C209.028 25.376 211.464 25.3503 213.899 25.376C214.612 25.376 214.738 25.151 214.603 24.5243C214.419 23.5719 214.049 22.6649 213.513 21.8553C212.977 21.0458 212.286 20.3495 211.48 19.8065C209.222 18.2607 206.696 17.8172 204.008 17.9939C202.606 18.0909 201.241 18.4883 200.007 19.159C198.773 19.8297 197.699 20.7579 196.858 21.8801C196.017 23.0024 195.43 24.2923 195.135 25.6616C194.841 27.0309 194.847 28.4473 195.153 29.8142C196.517 35.6954 201.782 38.8127 207.783 37.2958C211.331 36.3863 213.861 34.291 214.948 30.6948C215.041 30.4152 215.235 29.962 214.835 29.8142ZM198.914 23.5859C199.187 22.6218 199.677 21.7328 200.349 20.9871C201.02 20.2414 201.854 19.6589 202.786 19.2843C203.718 18.9098 204.725 18.7531 205.727 18.8263C206.73 18.8996 207.702 19.2008 208.57 19.7069C209.257 20.0916 209.846 20.6295 210.289 21.2784C210.733 21.9274 211.02 22.6698 211.128 23.4477C211.248 24.1097 211.151 24.4504 210.322 24.4118C208.538 24.3443 206.747 24.3893 204.96 24.3893C203.173 24.3893 201.324 24.354 199.508 24.4086C198.756 24.4375 198.73 24.1997 198.914 23.5859Z" fill="#4F4F4F"/>
<path d="M122.204 29.7884C121.759 29.6631 121.73 30.1548 121.62 30.4569C120.849 32.6548 119.298 34.496 117.259 35.6343C113.794 37.5915 109.223 36.6209 107.348 33.4971C105.971 31.2025 105.684 28.6765 105.932 26.0412C105.987 25.4531 106.255 25.3695 106.758 25.3727C109.194 25.3952 111.626 25.3727 114.062 25.3727C116.497 25.3727 118.994 25.3727 121.462 25.3727C122.011 25.3727 122.166 25.2088 122.062 24.6818C121.786 23.0325 120.948 21.5281 119.691 20.4203C117.223 18.3024 114.297 17.74 111.145 18.0196C105.403 18.5274 101.299 24.1258 102.561 29.7274C103.909 35.6922 109.223 38.8513 115.294 37.2733C118.827 36.3542 121.295 34.2556 122.391 30.7108C122.475 30.4119 122.698 29.9266 122.204 29.7884ZM106.296 23.7433C106.548 22.7576 107.026 21.8437 107.694 21.0738C108.361 20.304 109.199 19.6994 110.141 19.3078C111.083 18.9163 112.104 18.7485 113.123 18.8177C114.142 18.887 115.13 19.1914 116.01 19.7068C116.712 20.1028 117.31 20.6586 117.756 21.3289C118.201 21.9991 118.48 22.7648 118.572 23.5634C118.665 24.1676 118.539 24.4375 117.833 24.4182C116.017 24.37 114.197 24.4022 112.378 24.4022C110.558 24.4022 108.677 24.4022 106.826 24.4022C106.316 24.4118 106.135 24.3636 106.296 23.7433Z" fill="#4F4F4F"/>
<path d="M10.5623 49.174C10.0816 49.2157 9.90095 48.8847 9.74609 48.5055L10.5623 49.174Z" fill="#CF0E0E"/>
<path d="M7.95546 46.7701C7.76564 46.7023 7.59332 46.5934 7.45103 46.4511C7.30874 46.3088 7.20003 46.1367 7.13281 45.9473C7.31811 46.0228 7.48635 46.1345 7.62764 46.2758C7.76892 46.4171 7.88039 46.5852 7.95546 46.7701Z" fill="#D00D0D"/>
<path d="M6.96182 45.6549C6.63921 45.4685 6.45532 45.3592 6.45532 45.0314C6.58647 45.0831 6.70201 45.1677 6.79074 45.2769C6.87947 45.3861 6.9384 45.5163 6.96182 45.6549Z" fill="#CF0F0F"/>
<path d="M52.3045 24.0904C51.9819 24.3604 51.4722 24.2897 51.1851 24.6496L51.0721 24.7236C50.9893 24.692 50.9198 24.633 50.8754 24.5564C49.9785 22.1558 48.4719 20.1471 46.7653 18.2767C45.9814 17.4154 45.0942 16.6506 44.2974 15.7989C44.3716 15.4004 44.749 15.3843 45.0168 15.2301C45.3176 15.0865 45.6557 15.0393 45.9846 15.0951C47.0584 15.9919 48.0486 16.9836 48.9429 18.0582C50.1772 19.4977 51.2473 21.0692 52.1335 22.7439C52.3561 23.152 52.6981 23.5891 52.3045 24.0904Z" fill="#FEDFE1"/>
<path d="M50.9949 24.7075L51.1852 24.6561C52.1917 26.7482 53.0047 28.8629 52.9725 31.27C52.9725 31.9513 53.2692 32.7258 53.2209 33.4714C52.8982 38.4046 51.3433 42.8235 47.7849 46.4294C46.3856 47.892 44.7753 49.1387 43.0071 50.1284C42.778 49.9934 42.878 49.7621 42.8425 49.5692C42.9393 49.2478 43.2426 49.1257 43.5039 48.9715C47.2624 46.6334 50.0793 43.0568 51.4645 38.8637C52.8496 34.6707 52.7154 30.1266 51.0852 26.0219C50.9239 25.617 50.4626 25.1703 50.9949 24.7075Z" fill="#FB0205"/>
<path d="M52.3046 24.0905C52.3046 22.9721 51.5561 22.1622 51.0141 21.3105C49.9428 19.4974 48.6078 17.8523 47.0525 16.4288C46.6428 16.0592 46.4363 15.5129 45.9363 15.2397C46.0782 14.7576 46.4621 14.7223 46.8686 14.7255C48.0849 15.1401 48.7172 16.2296 49.5011 17.1037C51.053 18.8135 52.3305 20.7517 53.2885 22.8499C53.4079 23.1167 53.637 23.3834 53.4014 23.7016L52.5014 24.1258L52.3046 24.0905Z" fill="#FEDCDD"/>
<path d="M11.5752 39.0602C14.298 47.9302 20.3308 53.3004 29.3186 55.5951C28.6928 55.9164 28.0863 55.7783 27.4991 55.8072C27.4172 55.6936 27.3075 55.6027 27.1805 55.5431C27.0535 55.4835 26.9133 55.4572 26.7733 55.4665C24.6602 55.7879 23.1117 54.5281 21.476 53.58C16.2465 50.5623 12.8204 46.0984 10.8848 40.455C10.7557 40.0822 10.5815 39.7287 10.4267 39.3655C10.4195 39.3246 10.4239 39.2826 10.4393 39.244C10.4547 39.2054 10.4804 39.1719 10.5138 39.147C10.7671 38.9863 11.066 38.9119 11.3655 38.9349C11.4473 38.9525 11.521 38.9966 11.5752 39.0602Z" fill="#EB0000"/>
<path d="M10.4622 39.2305C10.4462 39.2683 10.4364 39.3085 10.4332 39.3494L8.82016 39.8315C8.00632 36.3922 7.99198 32.8131 8.77822 29.3675C8.85956 29.0781 8.99292 28.8059 9.17181 28.564C9.33963 28.3191 9.57221 28.1252 9.8438 28.0038C10.1154 27.8824 10.4154 27.8383 10.7106 27.8763C10.7587 27.8931 10.8015 27.9221 10.8348 27.9605C10.8682 27.9988 10.891 28.0451 10.901 28.0948C10.8721 28.523 10.7786 28.9445 10.6235 29.345C9.69866 32.5688 9.64302 35.9785 10.4622 39.2305Z" fill="#FEEDED"/>
<path d="M53.4143 23.7016C51.9979 20.2845 49.7692 17.2615 46.9202 14.8926C46.9202 14.5134 47.2428 14.5166 47.4751 14.4073C47.5617 14.3788 47.6543 14.3727 47.744 14.3895C47.8338 14.4064 47.9177 14.4457 47.988 14.5038C48.9042 14.7769 49.4107 15.5643 49.9753 16.2103C51.6797 18.131 53.1085 20.2778 54.2208 22.5896C54.3337 22.8338 54.5434 23.062 54.3434 23.3513L53.9692 23.5794L53.4143 23.7016Z" fill="#FED9DB"/>
<path d="M11.5751 39.0602L11.3557 39.0313C11.3847 38.6681 11.7106 38.6521 11.9461 38.5267C12.2502 38.4092 12.5677 38.3293 12.8913 38.2889C13.6624 38.2889 13.9366 38.8192 14.1431 39.4266C15.4067 43.187 17.7336 46.504 20.844 48.9788C23.9544 51.4536 27.716 52.9811 31.6768 53.3776C32.1713 53.3816 32.652 53.5401 33.0512 53.8307C33.1193 53.8981 33.1699 53.9811 33.1985 54.0723C33.2272 54.1636 33.2331 54.2605 33.2157 54.3546L33.4189 55.0841C31.4833 55.804 29.6186 55.3123 27.7475 54.7627C24.1575 53.7693 20.8655 51.9173 18.1578 49.3677C15.45 46.8182 13.4084 43.6482 12.2106 40.1336C12.0719 39.7287 12.0364 39.2691 11.5751 39.0602Z" fill="#F00000"/>
<path d="M33.2159 54.3546C33.0062 54.3031 33.074 54.1039 33.0159 53.9753C32.8836 53.6861 32.5772 53.4386 32.7836 53.0626C32.9842 52.8262 33.2638 52.6699 33.5708 52.6223C36.7969 51.8253 39.5326 50.1863 42.0231 48.0652C42.1043 48.0226 42.1973 48.0079 42.2877 48.0234C42.3832 48.0884 42.4634 48.1732 42.523 48.2719C42.5826 48.3706 42.6201 48.481 42.6329 48.5955C42.6382 48.6636 42.6295 48.7321 42.6074 48.7968C42.5852 48.8614 42.5499 48.9209 42.5038 48.9715C42.5361 50.1767 41.536 50.617 40.7617 51.1472C38.521 52.7688 35.9416 53.8652 33.2159 54.3546Z" fill="#FEEFEF"/>
<path d="M50.9948 24.7075C50.8142 24.9999 51.0239 25.2281 51.1271 25.4756C52.1995 27.9724 52.721 30.6696 52.6563 33.3847C52.6186 36.2263 51.9231 39.0208 50.6238 41.5509C49.7737 43.2057 48.7062 44.7404 47.4494 46.1144C46.1363 47.5156 44.6588 48.7819 42.8425 49.5499C42.772 49.4778 42.7179 49.3914 42.684 49.2966C42.65 49.2017 42.637 49.1007 42.6457 49.0004C43.6748 48.0813 44.904 47.4128 45.9234 46.4808C48.7535 43.912 50.7016 40.5222 51.4924 36.7904C52.2832 33.0586 51.8767 29.1736 50.3303 25.6845C50.2462 25.5557 50.1911 25.4103 50.1689 25.2583C50.1466 25.1063 50.1576 24.9512 50.2012 24.8039C50.2403 24.7358 50.2932 24.6766 50.3566 24.6301C50.42 24.5836 50.4925 24.5509 50.5693 24.5339C50.6462 24.517 50.7258 24.5162 50.8029 24.5317C50.8801 24.5472 50.9532 24.5786 51.0174 24.6239L50.9948 24.7075Z" fill="#FE070A"/>
<path d="M50.2689 24.8843C50.9215 26.3292 51.4242 27.8368 51.769 29.3835C52.5433 33.1439 52.1122 37.0515 50.5366 40.5546C49.6775 42.5531 48.4485 44.3727 46.9137 45.9184C45.6685 47.1493 44.3683 48.393 42.6456 49.0133C42.597 49.0042 42.5494 48.9902 42.5037 48.9715V48.6308C42.6392 48.2484 42.9844 48.0877 43.2876 47.882C47.8622 44.7968 50.6044 40.545 51.2625 35.0816C51.6192 32.262 51.2621 29.3983 50.2237 26.7515C50.0172 26.2212 49.643 25.7198 49.7914 25.0899C49.8979 24.91 50.0301 24.7718 50.2689 24.8843Z" fill="#FE0E12"/>
<path d="M47.9849 14.5038L47.4881 14.5295C47.059 14.7576 46.7235 14.5295 46.3912 14.3045C42.7102 11.7721 38.5744 10.6505 34.1676 10.3773C32.8771 10.2969 31.5867 10.5573 30.3156 10.6697C29.7672 10.7147 29.2349 10.9493 28.6735 10.7951C28.2606 10.4737 27.8218 10.1845 28.0477 9.55134C28.0251 9.37779 28.0025 9.20104 27.9832 9.02749C28.8454 8.71119 29.7499 8.52384 30.6673 8.47152C37.2614 7.7752 43.2393 9.38208 48.6011 13.2922C48.8882 13.5011 49.1624 13.7839 49.5689 13.7967L48.956 14.1438C48.6049 14.1712 48.2685 14.2959 47.9849 14.5038Z" fill="#E90000"/>
<path d="M10.6493 27.9406L9.17173 28.564L8.98462 28.5287C9.50643 25.8635 10.4529 23.2986 11.7881 20.9313C13.2064 18.3541 15.0871 16.0579 17.337 14.1567C17.6996 13.8772 17.9576 13.4845 18.0693 13.0415C18.4629 13.0415 18.4596 13.3822 18.5822 13.6168C18.6705 13.9744 18.7362 14.3372 18.779 14.703C18.779 15.0501 18.55 15.2494 18.3209 15.4551C14.7701 18.5672 12.2363 22.6673 11.0461 27.2271C10.9951 27.5015 10.8558 27.7519 10.6493 27.9406Z" fill="#E80000"/>
<path d="M18.4081 13.6425L18.0597 13.0415L17.8564 12.1384C21.0244 10.5454 24.504 9.66238 28.0509 9.55133L28.6122 10.6569C28.6605 10.7146 28.6869 10.7874 28.6869 10.8626C28.6869 10.9377 28.6605 11.0105 28.6122 11.0682C27.796 11.441 26.9121 11.2354 26.0636 11.3543C23.4194 11.7676 20.844 12.5374 18.4081 13.6425Z" fill="#FEE1E2"/>
<path d="M28.6283 11.0232V10.6569C30.1736 10.4737 31.7157 10.178 33.2674 10.133C35.3821 10.101 37.4906 10.3694 39.5293 10.93C42.1574 11.5794 44.6344 12.7297 46.8235 14.3174C47.0186 14.4674 47.2613 14.5426 47.5074 14.5295L46.9364 14.8926C46.5877 14.9166 46.2526 15.0368 45.9685 15.2397L45.1007 15.439C44.1039 15.1851 43.3102 14.5134 42.3779 14.1149C38.2259 12.3409 33.9481 11.756 29.4961 12.6462C29.3975 12.6466 29.2998 12.6269 29.209 12.5884C29.0007 12.3874 28.8404 12.1425 28.7399 11.8716C28.6394 11.6007 28.6013 11.3108 28.6283 11.0232Z" fill="#EF0000"/>
<path d="M29.2734 12.5369C31.1886 12.0118 33.1851 11.8461 35.1611 12.0484C36.7142 12.171 38.2504 12.4532 39.7453 12.8904C41.6358 13.4882 43.5199 14.1342 45.0781 15.439L44.3393 15.8182C43.9909 16.3645 43.4424 16.3452 42.894 16.3324C41.1184 15.45 39.2438 14.7811 37.3096 14.3398C37.1271 14.2715 36.9336 14.2366 36.7386 14.237C35.5804 14.086 34.3932 14.1952 33.2577 13.8514C32.9351 13.53 33.1996 13.1604 33.1512 12.749C32.4712 12.87 31.8119 13.0864 31.193 13.3918C30.8349 13.5043 30.5026 13.681 30.1413 13.7774C29.2896 13.6425 29.1734 13.4753 29.2734 12.5369Z" fill="#F50001"/>
<path d="M42.878 16.2263L44.3427 15.8182C45.6105 16.461 46.4364 17.5986 47.3591 18.5949C48.7307 20.0818 49.8723 21.7639 50.7465 23.5859C50.9294 23.9058 51.023 24.2687 51.0175 24.6368C50.7478 24.637 50.4853 24.7238 50.269 24.8842C50.098 24.836 50.0109 24.9742 49.898 25.0546C49.8449 25.0966 49.7808 25.1225 49.7133 25.1294C49.6459 25.1362 49.5779 25.1236 49.5173 25.0932C48.0912 22.3171 46.1706 19.8223 43.8491 17.7304C43.3394 17.2612 42.6329 17.0298 42.2683 16.3999C42.4199 16.1685 42.649 16.1974 42.878 16.2263Z" fill="#FEE4E5"/>
<path d="M11.9657 38.6842L11.3559 39.0313L10.4623 39.2305C9.64934 38.6778 9.87516 37.7458 9.7687 37.0066C9.35899 34.2042 9.73644 31.4403 10.4978 28.7247C10.5854 28.465 10.6932 28.2124 10.8204 27.9695C10.9978 27.3267 11.6656 27.4874 12.0657 27.211C12.3044 27.1564 12.556 27.0343 12.7303 27.3267C12.7297 27.6342 12.6498 27.9364 12.498 28.2041C11.3991 30.9435 11.0345 33.9205 11.4398 36.8427C11.5261 37.4784 11.7032 38.0985 11.9657 38.6842Z" fill="#FEF1F2"/>
<path d="M12.1301 27.3974L10.8396 27.9695L10.6558 27.9405C11.4213 24.4004 13.0152 21.0904 15.3078 18.2799C16.2692 17.1235 17.3198 16.0436 18.45 15.0501C18.55 14.9601 18.5758 14.7866 18.6371 14.6516C18.7271 14.6466 18.8157 14.6752 18.8855 14.7319C19.2307 15.1594 19.2888 15.6961 19.4985 16.191C19.5856 16.5702 19.8469 16.9077 19.7791 17.3255C18.9436 18.0582 17.8435 18.1546 16.8563 18.5756C16.3885 18.7749 16.2466 18.942 16.6466 19.3244C16.3853 20.6099 15.5788 21.5484 14.6593 22.4161C14.469 22.4964 14.2529 22.5414 14.1335 22.7374C13.6141 24.0037 13.0269 25.241 12.6108 26.5458C12.5141 26.8608 12.3501 27.1514 12.1301 27.3974Z" fill="#EC0000"/>
<path d="M32.7867 53.0819L33.0158 53.9753C31.8286 53.3904 30.4962 53.5639 29.2477 53.2618C25.6571 52.3845 22.4439 50.8354 19.7082 48.3416C16.9876 45.8808 14.964 42.751 13.8399 39.2659C13.6754 38.7613 13.4173 38.4624 12.8721 38.4914C12.849 38.4527 12.8385 38.4078 12.842 38.3629C12.8454 38.3181 12.8627 38.2754 12.8914 38.2407C13.4196 37.9677 13.9799 37.7615 14.5593 37.6268C14.699 37.6049 14.842 37.6263 14.969 37.6879C15.4755 38.0703 15.5433 38.681 15.7433 39.2177C18.2758 45.9409 23.0794 50.0609 30.1091 51.6228C30.935 51.806 31.8512 51.6742 32.5415 52.3299C32.6497 52.4192 32.7302 52.5373 32.7736 52.6705C32.817 52.8036 32.8215 52.9463 32.7867 53.0819Z" fill="#F60001"/>
<path d="M12.8914 38.3628C12.8915 38.4073 12.8816 38.4512 12.8624 38.4914L11.9656 38.6842C11.8289 38.6871 11.696 38.6399 11.5919 38.5517C11.4878 38.4634 11.4199 38.3402 11.401 38.2053C10.659 34.4292 10.9655 30.7783 12.6914 27.2785C13.2592 26.6711 13.9044 26.3144 14.7755 26.5747C14.5948 27.3556 14.1303 28.0145 13.8464 28.7568C12.8352 31.3582 12.5184 34.1762 12.9269 36.9359C12.9914 37.4019 13.1915 37.884 12.8914 38.3628Z" fill="#FEF5F5"/>
<path d="M32.7868 53.0819L32.4868 52.5034C32.3835 52.301 32.2029 52.1403 32.1641 51.9025C32.1587 51.8331 32.1676 51.7634 32.1904 51.6976C32.2131 51.6318 32.2492 51.5713 32.2964 51.52C33.332 51.1472 34.4256 50.9673 35.4612 50.5559C37.7597 49.6559 39.8171 48.2368 41.4714 46.4101C41.5486 46.363 41.6401 46.3447 41.7295 46.3587C41.8922 46.5076 42.0049 46.7029 42.0521 46.9179C42.1166 47.1204 42.1811 47.3228 42.2392 47.5285C42.2648 47.6105 42.2693 47.6976 42.2524 47.7818C42.2355 47.866 42.1977 47.9447 42.1424 48.0106C41.7327 48.8526 40.881 49.219 40.2068 49.7428C38.0001 51.4365 35.458 52.4135 32.7868 53.0819Z" fill="#FEF3F3"/>
<path d="M42.152 48.0202L42.1003 47.5317C42.7746 46.8568 43.6295 46.4133 44.3586 45.7963C47.0765 43.5203 48.997 40.4419 49.842 37.0065C50.687 33.5711 50.4128 29.957 49.059 26.6872C48.8913 26.2565 48.6622 25.8452 48.8396 25.3631C48.8644 25.3038 48.9016 25.2505 48.9488 25.2067C48.996 25.163 49.052 25.1298 49.1131 25.1094C49.1743 25.089 49.2391 25.0819 49.3032 25.0885C49.3673 25.0951 49.4292 25.1153 49.4849 25.1478C52.6948 31.2539 51.6754 39.3623 47.1137 44.5108C45.9917 45.7733 44.7124 46.8878 43.3069 47.8274C43.0198 48.0202 42.7327 48.3448 42.3133 48.0812C42.2617 48.0555 42.2077 48.035 42.152 48.0202Z" fill="#FE191C"/>
<path d="M42.3005 48.0813C43.7143 47.4087 44.9865 46.4739 46.0492 45.3271C48.4585 42.8998 50.0996 39.8214 50.7688 36.4736C51.4381 33.1258 51.1061 29.6559 49.8141 26.4944C49.6528 26.0959 49.2947 25.7006 49.514 25.2089C49.4753 25.1735 49.4656 25.1414 49.485 25.1092C49.5044 25.0771 49.5173 25.0674 49.5334 25.0674H49.8947C50.2464 26.1376 50.669 27.1885 50.94 28.2812C52.4917 34.532 51.3174 40.1529 46.9654 45.0218C45.693 46.4679 44.1832 47.6883 42.5005 48.6308C42.4242 48.5628 42.3659 48.4771 42.331 48.3811C42.2961 48.2852 42.2856 48.1822 42.3005 48.0813Z" fill="#FE1216"/>
<path d="M18.7951 14.7159C18.7462 14.6831 18.693 14.6571 18.637 14.6387C18.3144 14.3656 18.4693 13.9799 18.408 13.6425C18.7951 12.9997 19.5242 12.9194 20.1339 12.6783C22.86 11.6178 25.657 10.8818 28.625 11.02C28.8898 11.4782 29.0701 11.98 29.1573 12.5016C27.2216 12.6848 25.2634 12.823 23.3665 13.3211C22.1516 13.6389 20.9648 14.0548 19.8178 14.5648C19.4984 14.7159 19.179 14.973 18.7951 14.7159Z" fill="#FEE5E6"/>
<path d="M18.7952 14.7159C20.6534 13.9028 22.5245 13.109 24.5376 12.7876C26.0635 12.5626 27.583 12.0388 29.1574 12.4952C29.195 12.5126 29.2354 12.5234 29.2767 12.5273C29.4832 12.9869 29.338 13.7839 30.2639 13.5525C30.1542 14.2467 29.5768 14.0345 29.1993 14.0281C26.9619 14.0164 24.7355 14.3415 22.5955 14.9923C21.476 15.3136 20.4792 15.9403 19.3371 16.1942C19.072 15.7364 18.8886 15.2362 18.7952 14.7159Z" fill="#FEE9EA"/>
<path d="M19.3372 16.2167C21.0309 15.0308 22.9955 14.5809 24.9699 14.1663C26.4056 13.8597 27.8738 13.7302 29.3413 13.7807C29.6639 13.7807 30.0284 13.9285 30.2639 13.5589C30.377 13.4416 30.5143 13.35 30.6664 13.2907C30.8184 13.2313 30.9816 13.2055 31.1446 13.215C31.5137 13.0873 31.8896 12.9801 32.2705 12.8937C32.7061 12.839 33.0609 12.9194 33.1384 13.4336C33.1607 13.7289 33.1257 14.0257 33.0351 14.3077C32.9319 14.5777 32.8996 14.8733 32.7835 15.1401C32.7365 15.2591 32.658 15.3633 32.5563 15.4414C32.4546 15.5195 32.3336 15.5686 32.206 15.5836C28.4212 14.9054 24.5185 15.4036 21.0276 17.0105C20.605 17.2001 20.2017 17.6083 19.6694 17.2676L19.3372 16.2167Z" fill="#FEEDED"/>
<path d="M42.878 16.2263C42.736 16.4095 42.5134 16.3838 42.3231 16.4449C42.2685 16.5225 42.1946 16.5846 42.1086 16.6252C42.0227 16.6658 41.9276 16.6834 41.8327 16.6763C40.4197 16.1728 39.0013 15.6843 37.5775 15.2108C37.2775 14.9151 37.0581 14.597 37.313 14.1599C39.2744 14.5584 41.2101 15.0437 42.878 16.2263Z" fill="#FD0509"/>
<path d="M32.8674 14.3463C32.8393 14.2239 32.8432 14.0964 32.8788 13.976C32.9144 13.8555 32.9805 13.7462 33.0706 13.6585C33.09 13.5621 33.1416 13.5364 33.2287 13.5846C34.4546 13.9478 35.7354 13.8192 36.9839 13.996C37.1226 14.4909 36.829 14.703 36.429 14.8509L33.7126 14.7834C33.39 14.7769 32.9545 14.8605 32.8674 14.3463Z" fill="#FC0408"/>
<path d="M36.5451 14.7127C36.6903 14.4748 36.9613 14.311 36.9839 13.996L37.3065 14.1599C37.3379 14.4953 37.4569 14.8166 37.6517 15.0919C37.9057 15.3548 38.0859 15.6795 38.1743 16.0335C38.1994 16.123 38.2028 16.2171 38.1843 16.3082C38.1658 16.3992 38.1259 16.4846 38.0679 16.5574C37.2517 16.8081 36.729 16.1332 36.058 15.9146C35.7967 15.5932 36.1161 15.3554 36.2161 15.0887C36.3155 14.9547 36.4255 14.829 36.5451 14.7127Z" fill="#FEEAEA"/>
<path d="M33.2288 13.5846C33.1784 13.6138 33.1255 13.6385 33.0708 13.6585C33.0159 13.0576 32.5933 13.0158 32.132 13.0608C31.8093 13.0833 31.4867 13.3018 31.1448 13.2183L33.5095 12.2541C33.6514 12.8165 33.1966 13.1379 33.2288 13.5846Z" fill="#FEE4E5"/>
<path d="M41.9296 16.5542C42.0812 16.5895 42.149 16.3228 42.3232 16.4449C42.7396 16.6283 43.1344 16.8568 43.5007 17.1262C45.7138 19.1637 47.7849 21.3298 49.2012 24.0262C49.4052 24.3324 49.5172 24.6903 49.5238 25.0578L49.5044 25.1992C49.3141 25.241 49.0947 25.2153 48.9592 25.4049C48.8837 25.5111 48.7801 25.5943 48.6599 25.6454C48.5398 25.6965 48.4077 25.7133 48.2785 25.6941C48.1944 25.6684 48.1165 25.6257 48.0495 25.5688C47.2494 24.3315 46.5558 23.0299 45.6493 21.8569C44.5329 20.3838 43.2171 19.0719 41.7393 17.9586C41.3642 17.7454 41.0353 17.4603 40.7714 17.1198C40.7541 17.0329 40.769 16.9427 40.8134 16.8659C41.1295 16.5831 41.5489 16.6377 41.9296 16.5542Z" fill="#FEE8E9"/>
<path d="M14.7207 26.5426L12.6882 27.2785L12.1301 27.3974C12.5269 25.6588 13.3496 24.0776 13.9948 22.4289C14.5013 22.4836 14.5658 22.9271 14.7045 23.271C14.9949 23.9683 15.1691 24.7075 15.4691 25.4017C15.7014 26.3754 15.6401 26.4654 14.7207 26.5426Z" fill="#F10101"/>
<path d="M19.6693 17.2773C20.8533 16.9559 21.9276 16.3581 23.0664 15.9467C25.7602 14.9826 28.5282 15.0726 31.3059 15.0758C31.7091 15.0758 31.9317 15.4679 32.3188 15.455C32.3815 15.5206 32.4261 15.6013 32.4481 15.6892C32.4702 15.777 32.469 15.8691 32.4447 15.9564C32.3934 16.1319 32.3276 16.3028 32.2479 16.4674C32.1188 16.7116 32.0414 17.0202 31.6607 16.9816C28.3679 16.4465 24.9899 16.8799 21.9405 18.2285C20.7149 18.7234 19.5717 19.4007 18.5499 20.2371C17.7111 20.3432 17.1111 19.9158 16.5723 19.3534C16.2271 19.3373 16.0497 19.0866 15.8013 18.7588L19.6693 17.2773Z" fill="#FEF0F1"/>
<path d="M16.5723 19.3534L18.4208 20.2596C18.5424 20.2468 18.6642 20.2815 18.7605 20.3565C18.8568 20.4315 18.9201 20.5408 18.937 20.6614C18.4757 21.7894 18.0757 22.9688 16.7336 23.3963C15.9271 23.1424 15.0173 23.0974 14.4753 22.3004C15.4238 21.4937 15.9884 20.4139 16.5723 19.3534Z" fill="#F40101"/>
<path d="M14.4787 22.3004C15.1939 22.6856 15.9518 22.9865 16.7369 23.197C16.7694 23.2253 16.7958 23.2598 16.8146 23.2984C16.8335 23.3371 16.8444 23.3791 16.8466 23.422C16.4309 24.1638 15.8958 24.8326 15.2626 25.4017C14.698 24.4729 14.6561 23.3159 13.9722 22.4289C14.1109 22.1622 14.3174 22.3422 14.4787 22.3004Z" fill="#FEF3F3"/>
<path d="M14.911 37.7811L14.54 37.7586C14.2174 37.945 14.0884 37.7586 13.9916 37.5015C13.8708 37.1859 13.7959 36.8548 13.769 36.5181C13.3754 32.1217 14.4432 28.1623 17.2661 24.6914C17.6209 24.2576 18.0016 23.8494 18.6501 23.9362C18.921 23.9876 19.192 24.0583 19.4663 24.1033C19.6765 24.1531 19.8801 24.2276 20.0728 24.3251C20.2566 24.4086 20.4502 24.4729 20.6406 24.5436C20.8309 24.6143 20.9373 24.6657 21.0857 24.73C21.3825 24.8521 21.6923 24.9485 21.9858 25.0803C22.2794 25.2121 22.5956 25.3053 22.8924 25.4402C23.1892 25.5752 23.4989 25.6652 23.7892 25.8034C23.9715 25.8835 24.1578 25.9543 24.3473 26.0155C24.499 26.0734 24.6441 26.1409 24.7925 26.2019C25.1151 26.3433 25.4797 26.4333 25.8184 26.5619C26.0754 26.6841 26.3394 26.7914 26.6088 26.8832C26.8085 26.9533 27.0026 27.0381 27.1895 27.1371C27.3766 27.256 27.5637 27.3749 27.567 27.6352C27.1153 28.969 26.2346 30.0873 25.6765 31.3696C25.3861 31.9353 24.9925 32.4463 24.7409 33.0376C24.5441 33.404 24.357 33.7768 24.1667 34.1496C23.9373 34.4864 23.7335 34.8398 23.5569 35.2069C23.3931 35.5373 23.2122 35.8592 23.015 36.171C22.8182 36.4714 22.6466 36.7874 22.502 37.1159C22.3568 37.3987 22.2149 37.6847 22.0762 37.9675C21.9374 38.2503 21.7019 38.5717 21.5277 38.8802C21.4503 39.0216 21.3729 39.1598 21.3051 39.3045C21.1894 39.571 21.0467 39.8252 20.8793 40.0629C20.7373 40.1754 20.5954 40.2686 20.4083 40.1561C19.9082 39.192 19.6727 38.1089 19.234 37.1095C19.1178 36.8459 19.0985 36.4667 18.6404 36.6081C18.4468 36.666 18.2532 36.727 18.0629 36.7945C17.7177 36.9038 17.3725 37.0066 17.037 37.1384C16.8918 37.1994 16.7499 37.2637 16.6047 37.3216C16.4595 37.3794 16.2337 37.4373 16.0531 37.5047C15.8724 37.5722 15.7563 37.6012 15.6079 37.659C15.5353 37.6939 15.461 37.7251 15.3853 37.7522C15.2361 37.8194 15.0673 37.8297 14.911 37.7811Z" fill="#FEFEFE"/>
<path d="M18.7338 24.1161C18.5186 24.087 18.2995 24.1207 18.103 24.2131C17.9066 24.3055 17.7414 24.4527 17.6272 24.6368C15.6755 27.0632 14.2237 29.7788 14.0527 32.8962C13.9721 34.3135 13.7301 35.7886 14.156 37.238C14.2269 37.4822 14.2108 37.7297 14.5399 37.7586C14.0217 38.0363 13.4667 38.2397 12.8913 38.3628C12.0521 34.6867 12.4853 30.8359 14.1205 27.436C14.285 27.0921 14.5463 26.8446 14.7205 26.5297C15.3658 26.3722 15.5819 26.0059 15.2786 25.3888C15.54 24.5243 16.3336 24.0422 16.782 23.3095C17.0401 23.3513 17.3046 23.3513 17.5595 23.4155C17.9789 23.5634 18.4563 23.5634 18.8112 23.8816C18.8232 23.9017 18.8307 23.9241 18.8333 23.9474C18.8358 23.9706 18.8334 23.9942 18.826 24.0164C18.8187 24.0386 18.8067 24.059 18.7907 24.0762C18.7748 24.0934 18.7554 24.107 18.7338 24.1161Z" fill="#FEFAFA"/>
<path d="M14.9109 37.7811C15.0915 37.7136 15.2077 37.4887 15.4464 37.5562C15.8755 37.6976 15.9207 38.1025 16.0239 38.4399C17.1618 42.2087 19.5059 45.5032 22.6987 47.8209C25.0489 49.5894 27.806 50.7439 30.7187 51.1793C31.3091 51.2661 31.9866 51.2468 32.2898 51.9474C32.4255 52.1002 32.4961 52.2996 32.4866 52.5034C32.072 52.1846 31.5706 51.9976 31.0478 51.9667C23.2761 50.7326 18.1434 46.3523 15.44 39.0474C15.2819 38.6199 15.0786 38.2053 14.9109 37.7811Z" fill="#FE060A"/>
<path d="M48.2171 25.6459L48.972 25.4049C48.9172 26.3112 49.5334 27.0118 49.7592 27.8249C50.4689 30.4377 50.7851 33.0183 50.3431 35.7564C49.7946 39.1202 48.2474 42.2432 45.9008 44.7229C44.8426 45.8766 43.6425 46.9725 42.1005 47.5317C42.0296 47.4609 41.9749 47.3758 41.9398 47.2821C41.9047 47.1884 41.8902 47.0883 41.8972 46.9886C42.0101 46.6319 42.3392 46.4937 42.607 46.2944C47.2751 42.8589 49.7592 38.3114 49.6463 32.4752C49.5805 30.5097 49.1427 28.5743 48.3558 26.7707C48.2107 26.4076 47.9268 26.0605 48.2171 25.6459Z" fill="#FE1F23"/>
<path d="M48.2172 25.6459C48.6527 27.0728 49.3141 28.4194 49.5915 29.9074C50.2207 33.1969 49.8201 36.5995 48.4439 39.6547C47.0677 42.7099 44.7824 45.27 41.8973 46.9886C41.7231 46.86 41.7328 46.6672 41.7199 46.4872C41.6134 45.9634 42.0618 45.8188 42.3651 45.6035C45.1412 43.6785 47.1973 40.8898 48.2107 37.6751C49.3161 34.3237 49.1892 30.6899 47.8527 27.4231C47.6234 26.9894 47.4747 26.518 47.4139 26.0316C47.4622 25.8617 47.5753 25.7175 47.7291 25.6298C47.8829 25.5421 48.0651 25.5179 48.2366 25.5624L48.2172 25.6459Z" fill="#FE282C"/>
<path d="M47.4913 25.9705C49.6495 30.4119 49.8044 34.9209 47.8139 39.4394C46.6417 42.0858 44.7315 44.3412 42.3102 45.9377C42.0844 46.0887 41.8134 46.1916 41.7198 46.4872C41.6655 46.4714 41.6135 46.4487 41.565 46.4197C41.4524 46.3173 41.3831 46.1759 41.3714 46.0244C41.3262 45.311 41.9037 45.0314 42.3618 44.6972C44.7937 42.9455 46.5918 40.4575 47.4881 37.6044C48.6112 34.2298 48.4552 30.5623 47.0493 27.2946C46.8848 26.9025 46.6428 26.5233 46.8267 26.0701C46.856 26.0112 46.8991 25.9602 46.9524 25.9215C47.0057 25.8827 47.0677 25.8574 47.1329 25.8476C47.1982 25.8378 47.2648 25.8439 47.3272 25.8653C47.3896 25.8867 47.4459 25.9228 47.4913 25.9705Z" fill="#FE2F33"/>
<path d="M41.5584 46.0694V46.4197C41.2358 47.265 40.526 47.7503 39.8647 48.2709C38.4323 49.3957 36.9096 50.3984 35.1546 50.9544C34.2094 51.2533 33.2673 51.6453 32.2511 51.5971C32.1569 51.5892 32.0669 51.5547 31.9915 51.4979C31.9161 51.441 31.8585 51.3639 31.8253 51.2758C31.8027 51.1828 31.8027 51.0859 31.8253 50.9929C31.8481 50.9015 31.8975 50.8188 31.9672 50.7551C32.7028 50.3566 33.548 50.2988 34.332 50.0449C36.6225 49.2993 38.5581 47.9913 40.368 46.4647C40.662 46.1546 40.9347 45.8249 41.1842 45.4781C41.6584 45.4363 41.3487 45.9184 41.5584 46.0694Z" fill="#FEF6F6"/>
<path d="M31.9124 51.2147L32.235 51.6068L32.2802 51.9474C31.8447 51.5586 31.2898 51.4879 30.751 51.4043C27.094 50.8409 23.6903 49.1988 20.9792 46.6897C18.2015 44.183 16.5433 41.0463 15.4368 37.5562C16.1723 37.3698 16.2368 37.974 16.3756 38.4046C16.9677 40.276 17.86 42.0396 19.0177 43.627C21.8954 47.5381 25.7441 49.8938 30.5155 50.7937C30.9962 50.8837 31.5059 50.8869 31.9124 51.2147Z" fill="#FE090D"/>
<path d="M292.038 30.5662C291.63 30.5465 291.221 30.6101 290.838 30.7532C290.455 30.8963 290.105 31.1159 289.81 31.3984C289.515 31.6809 289.281 32.0205 289.122 32.3963C288.963 32.7721 288.883 33.1762 288.887 33.5839C288.884 34.3906 289.202 35.1656 289.77 35.74C290.339 36.3143 291.113 36.6414 291.922 36.6499C292.324 36.6611 292.723 36.5918 293.097 36.4461C293.471 36.3005 293.811 36.0814 294.098 35.802C294.385 35.5225 294.613 35.1884 294.768 34.8195C294.923 34.4507 295.002 34.0545 295 33.6546C295.019 33.2556 294.957 32.8569 294.817 32.4826C294.676 32.1084 294.461 31.7664 294.184 31.4776C293.907 31.1887 293.574 30.959 293.205 30.8023C292.836 30.6456 292.439 30.5653 292.038 30.5662ZM291.984 36.0971C291.33 36.0874 290.704 35.8309 290.233 35.3793C289.761 34.9277 289.48 34.3148 289.445 33.6643C289.439 33.3325 289.498 33.0029 289.62 32.6941C289.742 32.3854 289.924 32.1035 290.155 31.8648C290.387 31.626 290.663 31.435 290.968 31.3026C291.274 31.1703 291.602 31.0991 291.935 31.0932C292.267 31.0871 292.597 31.1479 292.905 31.272C293.213 31.3961 293.493 31.5809 293.727 31.8153C293.962 32.0498 294.146 32.329 294.269 32.6362C294.393 32.9435 294.453 33.2724 294.445 33.6032C294.445 34.2574 294.187 34.8855 293.727 35.352C293.266 35.8186 292.64 36.0861 291.984 36.0971Z" fill="#4F4F4F"/>
<path d="M292.974 34.5995C292.738 34.1753 292.374 33.8828 292.974 33.3815C293.439 32.9958 293.071 32.2277 292.426 32.0478C291.042 31.6589 290.574 32.006 290.574 33.4232V33.6064C290.558 33.9126 290.558 34.2194 290.574 34.5256C290.6 34.7891 290.387 35.2455 290.896 35.2294C291.306 35.2294 291.08 34.7987 291.142 34.5641C291.203 34.3295 291 34.0274 291.319 33.9214C291.47 33.8811 291.63 33.8952 291.772 33.961C291.913 34.0268 292.027 34.1402 292.093 34.2813C292.235 34.4806 292.365 34.6877 292.484 34.9016C292.626 35.1876 292.884 35.3965 293.129 35.2229C293.535 34.9916 293.077 34.7827 292.974 34.5995ZM291.751 33.4297C291.351 33.465 291.125 33.3879 291.125 32.9572C291.125 32.5266 291.258 32.3916 291.654 32.4366C292.051 32.4816 292.48 32.4366 292.506 32.9123C292.532 33.3879 292.051 33.3847 291.751 33.4297Z" fill="#4F4F4F"/>
<path d="M32.2705 15.995L32.3189 15.455L32.6415 15.034C33.8932 14.6677 35.1321 15.0887 36.3773 15.0822L36.0547 15.8214C36.0539 15.8996 36.0319 15.9761 35.991 16.0429C35.9501 16.1096 35.8919 16.1641 35.8224 16.2006C34.6514 16.1621 33.4351 16.5092 32.2705 15.995Z" fill="#FE1619"/>
<path d="M36.3871 15.0822C36.0278 15.267 35.6179 15.3302 35.2193 15.2622C34.3644 15.2011 33.5095 15.1112 32.6384 15.034C32.69 14.7994 32.6384 14.5327 32.8546 14.3463C33.2869 14.703 33.7934 14.4877 34.2676 14.523C35.0225 14.5745 35.7935 14.433 36.5259 14.7126C36.5473 14.7808 36.5453 14.8542 36.5201 14.9211C36.495 14.9881 36.4482 15.0448 36.3871 15.0822Z" fill="#FE0C10"/>
<path d="M41.9295 16.5541C41.6109 16.7858 41.2351 16.9268 40.8423 16.9623C39.8539 16.7729 38.8935 16.4598 37.984 16.0303C37.7953 15.7525 37.684 15.4298 37.6614 15.0951C39.1361 15.4148 40.5685 15.9044 41.9295 16.5541Z" fill="#FE0E12"/>
<path d="M35.8418 16.0078L36.0741 15.8214C36.8257 15.8214 37.3322 16.4931 38.0678 16.5413L38.1517 16.6281C38.2743 16.8691 38.3001 17.1551 38.513 17.3512C38.6461 17.4948 38.8229 17.5908 39.0163 17.6244C39.2005 17.6421 39.3787 17.6991 39.5389 17.7915C42.592 19.7585 45.0764 22.486 46.746 25.7038C46.8007 25.8132 46.8242 25.9355 46.8137 26.0573C46.7897 26.1824 46.7237 26.2957 46.6266 26.3787C46.4413 26.4797 46.2482 26.5656 46.0491 26.6358C45.8589 26.7393 45.6464 26.7955 45.4297 26.7997C45.343 26.7836 45.2599 26.752 45.1845 26.7065C44.3877 25.6523 43.7876 24.4568 42.9489 23.4445C41.1533 21.2023 38.8248 19.4416 36.1741 18.3217C35.7983 18.1828 35.4417 17.997 35.1127 17.769C35.0507 17.7073 35.0033 17.6327 34.974 17.5504C34.9595 17.4664 34.9595 17.3806 34.974 17.2965C35.0772 16.9752 35.3579 16.7663 35.4901 16.4642C35.5966 16.3228 35.7256 16.1653 35.8418 16.0078Z" fill="#FEF1F2"/>
<path d="M37.9839 16.0303C39.0324 16.0303 39.9486 16.4513 40.8293 16.9655C40.824 17.013 40.812 17.0595 40.7938 17.1037C40.3908 17.415 39.9 17.5925 39.3905 17.6115C39.0302 17.5419 38.6823 17.4195 38.3581 17.2483C38.0355 17.1101 38.2097 16.7534 38.0516 16.5413L37.9839 16.0303Z" fill="#FE171B"/>
<path d="M39.3517 17.499C39.8486 17.4058 40.2841 17.0909 40.8067 17.1005C43.5069 18.7267 45.5136 21.0181 47.1589 23.6566C47.5428 24.2736 47.8783 24.926 48.2364 25.5623L47.4912 25.9705C47.3919 25.9447 47.2874 25.947 47.1894 25.9771C47.0914 26.0071 47.0037 26.0639 46.9363 26.1408C46.9235 26.1554 46.9071 26.1664 46.8886 26.1725C46.8702 26.1787 46.8505 26.1799 46.8314 26.176C46.8124 26.1721 46.7947 26.1632 46.7803 26.1502C46.7658 26.1373 46.7551 26.1207 46.7492 26.1023C45.7992 24.282 44.6114 22.595 43.2166 21.0856C42.0875 19.8772 40.7293 18.9163 39.3937 17.9361C39.2421 17.8268 38.9807 17.8686 38.7678 17.8364C38.7872 17.4219 39.1001 17.5151 39.3517 17.499Z" fill="#FEECED"/>
<path d="M18.8048 20.5939L18.4209 20.2725C18.7435 19.4466 19.55 19.2152 20.2081 18.8263C23.5439 16.8563 27.1991 16.3421 31.0059 16.5767C31.3285 16.5959 31.6188 16.6345 31.764 16.9687C31.8088 17.0134 31.8415 17.0687 31.859 17.1294C31.8765 17.1901 31.8782 17.2543 31.864 17.3158C31.8167 17.524 31.7531 17.7282 31.6737 17.9264C31.6074 18.0993 31.4891 18.2474 31.3349 18.3506C31.2475 18.3919 31.1537 18.418 31.0575 18.4278C27.0055 17.8975 23.3439 19.0063 19.9049 21.0567C19.8155 21.0913 19.7202 21.1088 19.6242 21.1081C19.4594 21.0834 19.3015 21.025 19.1605 20.9365C19.0194 20.848 18.8983 20.7313 18.8048 20.5939Z" fill="#FEF5F5"/>
<path d="M31.719 17.2837L31.7642 16.9623L32.1223 16.3838C33.2869 16.326 34.4612 16.0624 35.5968 16.5702C35.5219 16.8632 35.3532 17.1239 35.1161 17.3126C34.0225 17.7403 32.8051 17.73 31.719 17.2837Z" fill="#FE2529"/>
<path d="M35.5968 16.5542C34.4418 16.4513 33.2611 16.7791 32.1223 16.3678C32.1099 16.298 32.1173 16.2262 32.1435 16.1604C32.1697 16.0946 32.2137 16.0373 32.2707 15.995H35.842L35.5968 16.5542Z" fill="#FE1D20"/>
<path d="M18.805 20.5939C19.0899 20.6105 19.3566 20.7388 19.547 20.9506C19.5954 21.0631 19.5728 20.8992 19.6115 21.0149C19.8567 21.8119 18.3759 23.618 17.5339 23.5505C17.3994 23.5789 17.26 23.5728 17.1285 23.5329C16.9971 23.493 16.8779 23.4206 16.7822 23.3224C16.7822 23.2789 16.7723 23.2361 16.7532 23.197C16.9016 23.1681 17.1274 23.197 17.1855 23.107C17.7339 22.2747 18.5049 21.5837 18.805 20.5939Z" fill="#FE070B"/>
<path d="M16.9304 37.013C17.2719 36.807 17.6461 36.6603 18.037 36.5792C18.6144 37.3312 18.7015 38.2793 19.0661 39.1148C21.0824 43.733 24.5279 46.7315 29.3412 48.2066C30.0035 48.3576 30.6512 48.5662 31.2768 48.8301C31.3801 48.8976 31.458 48.9973 31.4983 49.1136C31.5385 49.2299 31.539 49.3562 31.4994 49.4728C31.465 49.5617 31.3965 49.6334 31.3091 49.6721C29.1992 49.5885 27.2765 48.8493 25.4796 47.8467C21.6002 45.7429 18.7103 42.2 17.4369 37.9868C17.3424 37.6289 17.1694 37.2963 16.9304 37.013Z" fill="#FE2226"/>
<path d="M31.2091 49.0004C29.8251 48.5087 28.3863 48.2162 27.0346 47.6024C24.1752 46.3016 21.7566 44.2015 20.0727 41.5573C19.0886 40.0395 18.4002 38.3507 18.0435 36.5792C18.1886 36.4024 18.4112 36.4635 18.5951 36.4056C19.0016 36.576 19.0177 36.9777 19.1242 37.3183C19.572 38.7811 20.2352 40.1696 21.0921 41.4384C21.3602 41.7648 21.6111 42.1049 21.8438 42.4572C22.0454 42.7992 22.3015 43.1064 22.6019 43.3667C22.8503 43.6206 23.102 43.8744 23.3601 44.1187C23.6253 44.4191 23.938 44.6742 24.2859 44.8739C25.3409 45.5745 26.3603 46.3362 27.5411 46.8311C27.8469 46.9964 28.172 47.1237 28.5089 47.2103C29.3703 47.6153 30.4445 47.5574 31.1349 48.348C31.2575 48.5537 31.3995 48.7562 31.2091 49.0004Z" fill="#FE2A2E"/>
<path d="M31.9739 50.8451L31.919 51.0251C31.5671 51.0882 31.2041 51.0232 30.8964 50.8419C30.5691 50.7248 30.2246 50.6629 29.8769 50.6587C27.5993 50.3373 25.5862 49.3443 23.6796 48.1166C23.1504 47.8159 22.6606 47.451 22.2214 47.0304C22.0661 46.7303 21.802 46.5005 21.4826 46.3876C21.0054 46.0962 20.6041 45.6964 20.3116 45.221C20.1846 44.9087 19.9804 44.6334 19.718 44.4208C18.325 42.7551 17.262 40.8412 16.5854 38.7806C16.4487 38.2814 16.2412 37.8042 15.9692 37.3633C16.1047 37.1834 16.2918 37.1866 16.5015 37.1737C16.5884 37.1383 16.6857 37.1383 16.7725 37.1737C17.3661 38.0832 17.5113 39.1695 17.9759 40.14C20.2954 45.0089 24.0441 48.1423 29.2252 49.6271C30.0769 49.8713 30.9899 49.9099 31.7867 50.347C31.8608 50.4049 31.9175 50.482 31.9505 50.5699C31.9835 50.6577 31.9916 50.753 31.9739 50.8451Z" fill="#FE1418"/>
<path d="M20.463 45.131C20.7568 45.5683 21.1338 45.9439 21.5727 46.2366C21.8308 46.4069 22.0502 46.6254 22.3147 46.7893C23.7061 48.0622 25.3334 49.0524 27.1055 49.7042C28.0088 50.0577 28.9024 50.4691 29.9025 50.4755C30.2445 50.7166 30.6735 50.4305 31.0155 50.6587C31.2445 50.9544 31.6607 50.7873 31.9188 51.0251V51.2147C28.2812 50.8647 24.8311 49.4413 22.0104 47.1265C19.1896 44.8118 17.1265 41.7111 16.0852 38.2214C15.9787 37.8807 15.8722 37.5786 15.4399 37.5562C15.5056 37.4843 15.5876 37.4292 15.6792 37.3956C15.7707 37.3621 15.869 37.351 15.9658 37.3633C16.34 37.3955 16.4691 37.6847 16.5562 37.974C17.2549 40.3079 18.3912 42.4889 19.9048 44.4015C20.0726 44.6522 20.2888 44.8771 20.463 45.131Z" fill="#FE0F13"/>
<path d="M16.7596 37.2059L16.5015 37.1737C16.5507 37.1096 16.617 37.0605 16.6929 37.0321C16.7687 37.0036 16.8511 36.9971 16.9305 37.013C17.3886 36.9648 17.4499 37.2573 17.5532 37.6172C18.319 40.3782 19.8024 42.889 21.8535 44.8964C24.2056 47.2666 27.2458 48.8405 30.5446 49.3957C30.8156 49.4407 31.0834 49.505 31.3544 49.5564C31.4089 49.6027 31.4464 49.6656 31.461 49.7355C31.4756 49.8053 31.4664 49.878 31.435 49.9421C31.3571 50.0164 31.2608 50.0686 31.1559 50.0935C31.051 50.1183 30.9413 50.1149 30.8382 50.0835C25.47 48.9844 21.3212 46.198 18.5597 41.4063C17.7887 40.0597 17.4144 38.5782 16.7596 37.2059Z" fill="#FE1A1E"/>
<path d="M21.3599 38.8481L21.8954 37.9129C22.1664 37.8036 22.3245 37.9997 22.4083 38.1732C22.9923 39.3719 24.002 40.3361 24.344 41.6634C25.7228 43.0538 27.3685 44.1533 29.1831 44.8964C29.5038 45.0016 29.8 45.1699 30.0542 45.3913C30.139 45.4733 30.1933 45.5817 30.208 45.6986C30.2226 45.8155 30.1968 45.9338 30.1348 46.0341C29.2218 46.1626 28.4927 45.6356 27.7378 45.2949C26.7549 44.8716 25.8267 44.3321 24.9731 43.688C24.4299 42.9858 23.8026 42.3522 23.1052 41.8016C22.7761 41.5331 22.5143 41.192 22.3406 40.8053C22.2419 40.4953 22.0913 40.2041 21.8954 39.944C21.8454 39.8794 21.8011 39.8106 21.7631 39.7383C21.6001 39.4553 21.4651 39.1571 21.3599 38.8481Z" fill="#FE484C"/>
<path d="M25.4861 31.315L27.4992 27.6192C28.0474 26.9734 28.6851 26.4086 29.3929 25.9416C29.7865 25.6941 30.1865 25.3599 30.7123 25.6395C30.822 26.0219 30.5543 26.2469 30.351 26.4944C29.3671 27.3942 28.2057 28.082 27.5024 29.3C26.6415 30.7515 26.3003 32.4509 26.5346 34.1206C26.6114 34.602 26.6449 35.0892 26.6346 35.5765C26.5862 35.8207 26.5604 36.0778 26.2507 36.1453C25.8442 35.9943 25.7861 35.6118 25.6667 35.2712C25.2448 33.9937 25.1823 32.6254 25.4861 31.315Z" fill="#FE8488"/>
<path d="M20.7825 39.944C20.8954 39.6869 20.9373 39.3912 21.1825 39.2048C21.2244 39.2241 21.2632 39.2466 21.3051 39.2626C22.2407 40.4582 22.9794 41.7887 24.1053 42.8589C25.5743 44.2458 27.3229 45.3052 29.2348 45.9666C29.6469 46.0825 30.0417 46.2521 30.4091 46.4711C30.6511 46.7122 30.8511 46.9661 30.6898 47.3356C28.7341 46.9833 26.8842 46.1932 25.2796 45.0249C23.373 43.6977 21.7535 42.1004 20.7825 39.944Z" fill="#FE3C3F"/>
<path d="M20.7823 39.944C20.9768 40.0343 21.1341 40.1887 21.2275 40.3811C23.0854 43.5434 26.103 45.8639 29.6444 46.8536C30.0008 46.9392 30.3322 47.1064 30.6122 47.3421C30.6715 47.3517 30.7275 47.3756 30.7754 47.4116C30.8234 47.4475 30.8619 47.4945 30.8876 47.5486C30.9133 47.6026 30.9254 47.6621 30.923 47.7218C30.9205 47.7816 30.9036 47.8399 30.8736 47.8916C27.0023 46.9275 23.7278 45.0571 21.3889 41.7501C21.1562 41.3911 20.8894 41.0553 20.592 40.7474C20.5081 40.5417 20.3178 40.3585 20.4759 40.1047L20.7823 39.944Z" fill="#FE3639"/>
<path d="M25.4861 31.315C25.9474 31.8613 25.5538 32.5041 25.5538 33.0569C25.5976 34.1089 25.8213 35.1457 26.2152 36.1228C26.3507 36.7463 26.3378 37.3087 25.6087 37.5722C25.0699 36.081 24.5699 34.5834 24.5667 32.9765L25.4861 31.315Z" fill="#FE7E80"/>
<path d="M23.3828 35.1523L23.9893 34.0725C24.2893 34.0371 24.3539 34.2781 24.3958 34.471C24.6668 35.6697 25.1894 36.7784 25.6217 37.9225C25.5475 38.2953 25.5862 38.7228 25.1378 38.9156C23.9764 38.0768 23.7248 36.7817 23.4183 35.5154C23.3925 35.403 23.4054 35.2744 23.3828 35.1523Z" fill="#FE6D6F"/>
<path d="M24.1667 41.8305C23.6667 40.3779 22.744 39.1663 21.9084 37.9129C22.0665 37.6172 22.2311 37.3216 22.3762 37.0227C22.4091 36.9895 22.4499 36.9652 22.4947 36.9519C22.5396 36.9387 22.5871 36.9369 22.6328 36.9468C22.6785 36.9568 22.721 36.9781 22.7562 37.0088C22.7914 37.0394 22.8183 37.0785 22.8343 37.1223C23.3021 38.3371 24.2732 39.3045 24.5764 40.5996C24.5623 40.9491 24.5225 41.2972 24.4571 41.6409C24.399 41.7694 24.3345 41.8755 24.1667 41.8305Z" fill="#FE5457"/>
<path d="M25.4765 37.9868C24.77 36.7624 24.4183 35.4158 23.9893 34.0724C24.1828 33.7061 24.3764 33.3429 24.5667 32.9765C24.6667 33.0515 24.7479 33.1486 24.8039 33.2601C24.8598 33.3717 24.8891 33.4946 24.8893 33.6193C24.799 34.6541 25.2636 35.5476 25.5346 36.5117C25.6224 36.8617 25.6679 37.221 25.6701 37.5819C25.7862 37.7972 25.7249 37.9322 25.4765 37.9868Z" fill="#FE7577"/>
<path d="M27.1217 27.2592L26.5732 27.0535C26.6378 26.1794 27.5024 26.0187 27.9669 25.5013C28.3121 25.3309 28.4121 24.8971 28.7734 24.7428C29.2993 24.5725 29.7638 24.2543 30.2897 24.1001C30.6671 23.9812 31.0478 23.8173 31.4285 24.1001C31.5963 24.4922 31.3543 24.7171 31.0898 24.9357C29.6122 25.4434 28.4379 26.4718 27.1217 27.2592Z" fill="#FE777A"/>
<path d="M24.386 40.7764C23.8905 39.4394 23.2096 38.1781 22.3633 37.0291C22.5278 36.7077 22.6859 36.4056 22.8504 36.0939C23.1343 36.0103 23.2666 36.2192 23.3408 36.4153C23.8021 37.5819 24.5151 38.6328 24.9248 39.8219C24.9054 40.214 24.8732 40.6189 24.386 40.7764Z" fill="#FE5C5F"/>
<path d="M20.4759 40.1143L20.6469 40.7056C20.9308 40.9499 21.2501 41.1781 21.0179 41.628C19.9178 40.2943 19.3177 38.7163 18.8048 37.0966C18.7338 36.8684 18.6596 36.637 18.5886 36.4056C18.8628 36.1999 19.1467 36.1003 19.279 36.5277C19.65 37.7329 20.2694 38.8481 20.4759 40.1143Z" fill="#FE3034"/>
<path d="M24.757 39.8347C24.1268 38.5835 23.4956 37.3344 22.8633 36.0875L23.3956 35.1523C23.9537 36.4121 24.2731 37.7843 25.128 38.9092C25.3377 39.3559 25.2248 39.6644 24.757 39.8347Z" fill="#FE6366"/>
<path d="M27.1218 27.2592C28.2058 26.1215 29.4317 25.2088 30.9931 24.8521C31.219 25.2795 30.9931 25.4659 30.6125 25.5881C29.6612 25.9448 28.8055 26.5156 28.1122 27.256C27.9477 27.4103 27.8671 27.7959 27.4896 27.6192L27.1218 27.2592Z" fill="#FE7E80"/>
<path d="M18.7339 24.1162L18.7726 23.9908C18.6081 23.5634 18.9694 23.3256 19.1436 23.0267C19.5049 22.4354 19.9824 21.9147 20.2921 21.288C20.7083 21.1498 20.9663 21.4166 21.2373 21.6512C21.2823 21.7277 21.3088 21.8135 21.3148 21.9019C20.8599 22.7953 20.1502 23.5088 19.5372 24.2833C19.2727 24.2768 18.95 24.3861 18.7339 24.1162Z" fill="#FE1A1E"/>
<path d="M21.9374 25.2249C21.5952 25.195 21.2686 25.0691 20.9954 24.8617C21.7503 24.219 22.3277 23.422 23.0665 22.7696C23.2303 22.75 23.3963 22.7811 23.5417 22.8587C23.6872 22.9363 23.8051 23.0567 23.8795 23.2034C23.6988 24.1901 22.7374 25.1863 21.9374 25.2249Z" fill="#FE3B3E"/>
<path d="M21.9375 25.2249C22.8698 24.8489 23.2796 23.9876 23.7925 23.2259C24.157 23.0685 24.3474 23.2581 24.4829 23.5634C24.3345 24.6496 23.6602 25.4916 22.8698 25.5913C22.5306 25.5592 22.2074 25.4322 21.9375 25.2249Z" fill="#FE4447"/>
<path d="M25.7732 26.7289C25.3946 26.6783 25.0327 26.5419 24.7151 26.3304C25.3603 25.8194 25.7991 25.1285 26.4056 24.5886C26.5634 24.5451 26.731 24.5528 26.8841 24.6106C27.0372 24.6684 27.1679 24.7732 27.2572 24.9099C27.3766 25.7391 26.7669 26.4815 25.7732 26.7289Z" fill="#FE6669"/>
<path d="M22.8633 25.5913C23.5601 25.0514 24.1795 24.4568 24.357 23.5409C24.8764 23.3481 25.1312 23.6759 25.3635 24.0487C25.1119 24.9035 24.4602 25.4338 23.7956 25.9577C23.4524 25.9431 23.1241 25.8141 22.8633 25.5913Z" fill="#FE4E51"/>
<path d="M20.5922 24.7075C20.4982 24.7173 20.4032 24.7047 20.3151 24.6706C20.227 24.6365 20.1484 24.5819 20.0857 24.5114C20.2599 23.4284 21.1051 22.7985 21.7697 22.0465C21.9118 22.0221 22.0579 22.0501 22.1808 22.1252C22.3037 22.2003 22.3949 22.3174 22.4375 22.4546C22.1214 23.422 21.6762 24.325 20.5922 24.7075Z" fill="#FE2B2E"/>
<path d="M21.7567 22.1365L20.0855 24.5082C19.9841 24.5191 19.8814 24.5059 19.7861 24.4695C19.6908 24.4332 19.6054 24.3749 19.5371 24.2993C19.7855 23.2838 20.663 22.6925 21.2082 21.8954C21.4953 21.7348 21.6663 21.8408 21.7567 22.1365Z" fill="#FE2226"/>
<path d="M20.592 24.7075C21.3171 24.0844 21.9047 23.3184 22.318 22.4579C22.7503 22.2618 22.9019 22.5639 23.0535 22.8692C22.489 23.6598 22.0406 24.5693 20.9953 24.8714C20.9195 24.8824 20.8422 24.873 20.7712 24.8442C20.7003 24.8154 20.6385 24.7682 20.592 24.7075Z" fill="#FE3135"/>
<path d="M25.7732 26.729C26.2926 26.2212 27.1282 25.9609 27.1282 25.0385C27.6959 24.8071 27.8863 25.1896 28.0508 25.6073C27.6734 26.2051 26.8959 26.3979 26.5733 27.0535C26.2791 27.0314 25.9992 26.9179 25.7732 26.729Z" fill="#FE7174"/>
<path d="M23.7891 25.9576C24.1472 25.2024 24.8763 24.7428 25.2989 24.0294C25.4135 23.9897 25.5389 23.994 25.6505 24.0416C25.7621 24.0891 25.8518 24.1764 25.9022 24.2865C25.786 25.2506 25.0956 25.7455 24.3117 26.1537C24.2156 26.1603 24.1191 26.1462 24.0289 26.1124C23.9387 26.0786 23.8569 26.0258 23.7891 25.9576Z" fill="#FE5659"/>
<path d="M24.3184 26.1633C24.7603 25.4981 25.5507 25.1221 25.8282 24.325C26.1798 24.1997 26.3056 24.4054 26.3863 24.6882C25.9411 25.3502 25.6604 26.173 24.7152 26.3304C24.6403 26.3371 24.565 26.3254 24.4958 26.2962C24.4266 26.2671 24.3657 26.2215 24.3184 26.1633Z" fill="#FE5D60"/>
<path d="M21.3601 38.8481C21.5291 38.9417 21.6714 39.0767 21.7736 39.2404C21.8757 39.404 21.9344 39.5908 21.944 39.7833C21.5149 39.8572 21.4343 39.4619 21.2149 39.2498L21.1826 39.2048C21.2084 39.0666 21.1826 38.9124 21.3601 38.8481Z" fill="#FE4245"/>
<path d="M20.2792 21.3427C20.5212 21.7765 20.1244 22.0111 19.9566 22.2875C19.5953 22.8756 19.1759 23.4252 18.7791 23.9908L17.5403 23.5505C17.7887 23.5505 18.0661 23.5505 18.1855 23.2966C18.5404 22.4546 19.5114 21.9694 19.5598 20.9506C19.6209 20.957 19.6826 20.957 19.7437 20.9506C19.9889 20.9731 20.3018 20.9313 20.2792 21.3427Z" fill="#FE1115"/>
<path d="M46.7491 26.1023L46.9363 26.1408C47.0459 27.0375 47.5815 27.7798 47.8137 28.6347C49.1945 33.8249 48.3848 38.5267 44.8651 42.7207C44.0263 43.7202 42.994 44.44 42.0165 45.2467C41.8742 45.3315 41.7569 45.4523 41.6764 45.5968C41.596 45.7412 41.5553 45.9043 41.5584 46.0694C41.439 45.8766 41.3164 45.687 41.197 45.4974C41.1502 45.4488 41.1179 45.3882 41.1036 45.3224C41.0894 45.2565 41.0938 45.1881 41.1164 45.1246C41.3035 44.8424 41.5677 44.6194 41.8777 44.4818C43.5698 43.4198 44.9254 41.9022 45.7878 40.1047C45.8384 39.9375 45.9242 39.7831 46.0394 39.6515C46.2516 39.4375 46.371 39.1489 46.3717 38.8481C47.0325 37.496 47.4684 36.0459 47.6621 34.5545C47.9847 32.067 47.4782 29.7338 46.5846 27.4617C46.4394 27.0889 46.0878 26.6968 46.5653 26.3015L46.7491 26.1023Z" fill="#FE373B"/>
<path d="M41.21 45.1278V45.4974C41.1229 46.6351 40.0744 46.9757 39.3776 47.5413C37.2591 49.288 34.7048 50.4298 31.9866 50.8451L31.7575 50.4755C31.6736 50.2698 31.4349 50.1541 31.4349 49.9163L31.3833 49.5435L31.4446 49.566C31.6736 49.2157 32.0511 49.1803 32.4124 49.1032C35.2611 48.4894 37.658 47.0593 39.7518 45.0764C40.0596 44.7769 40.3284 44.44 40.5518 44.0737C40.5803 44.0404 40.6153 44.0132 40.6547 43.9939C40.6941 43.9746 40.737 43.9634 40.7809 43.9612C40.862 43.9925 40.9354 44.0409 40.996 44.103C41.0567 44.1651 41.1033 44.2395 41.1325 44.3211C41.213 44.5099 41.2714 44.7072 41.3068 44.9092C41.3072 44.9504 41.2988 44.9913 41.2821 45.0289C41.2654 45.0666 41.2408 45.1003 41.21 45.1278Z" fill="#FEF9FA"/>
<path d="M35.0997 17.6629C39.6937 19.3084 43.0553 22.3325 45.2587 26.6615C45.2587 26.7 45.2297 26.7354 45.2167 26.7739C45.0055 26.9562 44.7643 27.1008 44.5038 27.2014C44.3113 27.2824 44.106 27.3292 43.8973 27.3396C43.8121 27.3214 43.7352 27.2763 43.6779 27.211C41.8005 23.5544 38.6189 20.7289 34.7578 19.2891C34.6125 19.2352 34.4765 19.1593 34.3545 19.0641C34.2936 19.0001 34.2503 18.9215 34.2287 18.8359C34.2165 18.659 34.2569 18.4824 34.3448 18.3282C34.5384 18.0357 34.7158 17.7336 35.0997 17.6629Z" fill="#FEF5F5"/>
<path d="M40.9747 44.4529C40.9131 44.404 40.8663 44.3391 40.8396 44.2654C40.8128 44.1916 40.8071 44.1119 40.823 44.0351C40.5972 43.3924 41.1747 43.2574 41.4941 43.0003C43.7286 41.2512 45.3096 38.8059 45.9839 36.0558C46.6583 33.3057 46.3871 30.4097 45.2138 27.8313C45.046 27.4745 44.6911 27.06 45.275 26.7225V26.655L45.4751 26.7097C45.9041 26.8768 45.988 27.3139 46.2009 27.6481C46.4243 28.1733 46.6203 28.7096 46.7881 29.255C47.5285 31.7381 47.5285 34.3821 46.7881 36.8652C46.2027 38.7638 45.2345 40.5233 43.9427 42.0361C43.0652 42.9714 42.178 43.913 40.9747 44.4529Z" fill="#FE474A"/>
<path d="M46.5557 26.3144C46.3815 26.6357 46.575 26.896 46.7041 27.1724C47.5886 29.0258 48.0355 31.0563 48.0107 33.1083C47.9719 34.9466 47.8106 36.817 46.7557 38.4496C46.6644 38.6434 46.6004 38.8489 46.5654 39.0602C46.4234 39.2948 46.3944 39.5872 46.1944 39.7961C46.1315 39.8338 46.0807 39.8886 46.0481 39.9541C46.0155 40.0196 46.0025 40.093 46.0105 40.1657C45.8782 40.3039 45.7685 40.5546 45.5524 40.2525C45.5075 39.9467 45.5838 39.6355 45.7653 39.3848C47.859 35.2519 47.8203 31.0997 45.8943 26.9282C45.8795 26.8522 45.881 26.774 45.8988 26.6986C45.9166 26.6233 45.9503 26.5525 45.9976 26.4911C46.1428 26.2919 46.3718 26.3465 46.5557 26.3144Z" fill="#FE3C3F"/>
<path d="M35.0998 17.6629L34.5223 18.3989C33.6448 18.8681 32.6738 18.6399 31.7479 18.7556C31.4898 18.7877 31.1962 18.6045 31.3866 18.2189C31.3748 18.1473 31.3833 18.0738 31.4113 18.0068C31.4392 17.9398 31.4854 17.8819 31.5447 17.8397C32.2609 17.409 33.0706 17.5826 33.8352 17.5183C34.2417 17.4926 34.6611 17.4572 35.0772 17.4637L35.0998 17.6629Z" fill="#FE3336"/>
<path d="M35.0804 17.4797C34.3868 18.1225 33.5093 17.5826 32.7383 17.8268C32.377 17.9425 31.9479 17.8268 31.5479 17.8268C31.593 17.6372 31.4898 17.4026 31.7221 17.2708H35.1191L35.0804 17.4797Z" fill="#FE292D"/>
<path d="M39.3519 17.499L38.768 17.8204L38.4131 17.4636C38.368 17.4189 38.3392 17.3606 38.331 17.2978C38.3228 17.235 38.3358 17.1712 38.3679 17.1165C38.7324 17.1171 39.0834 17.2535 39.3519 17.499Z" fill="#FE2528"/>
<path d="M45.9975 26.4783V26.88C46.0738 26.9882 46.1148 27.1173 46.1148 27.2496C46.1148 27.3819 46.0738 27.5109 45.9975 27.6192C45.7007 27.3813 45.6329 27.0085 45.4458 26.7097L45.9975 26.4783Z" fill="#FE4145"/>
<path d="M38.3679 17.1326L38.4131 17.4797C37.984 17.2805 38.0421 16.9012 38.0647 16.5381L38.3679 17.1326Z" fill="#FEEAEA"/>
<path d="M20.2791 21.3427L19.7307 20.9409C23.2504 18.6592 27.0443 17.544 31.2672 18.2446C31.3516 18.5997 31.3153 18.9727 31.164 19.3051C31.0449 19.6029 30.9025 19.8909 30.7381 20.1664C30.7172 20.1952 30.6906 20.2193 30.6599 20.2374C30.6293 20.2556 30.5952 20.2672 30.5599 20.2718C30.5245 20.2763 30.4886 20.2735 30.4543 20.2637C30.4201 20.2539 30.3882 20.2372 30.3607 20.2146C30.204 20.0475 30.0107 19.9187 29.7958 19.8384C29.5808 19.7582 29.3502 19.7285 29.1219 19.7518C26.8163 19.7263 24.5375 20.2462 22.4729 21.2687C22.0818 21.5167 21.6417 21.6779 21.1825 21.7412L20.2791 21.3427Z" fill="#FEF9FA"/>
<path d="M30.9446 19.3148C31.051 18.958 31.1607 18.6013 31.2672 18.2446C31.3079 18.241 31.348 18.2323 31.3866 18.2189C31.4317 18.6045 31.7285 18.6463 31.9898 18.5627C32.8254 18.2992 33.6771 18.4406 34.5223 18.3988L34.3352 18.7717C34.261 18.9066 34.1771 19.093 34.0126 19.093C32.9996 19.1766 31.9898 19.5044 30.9446 19.3148Z" fill="#FE393C"/>
<path d="M40.6681 43.9644C40.5391 45.0025 39.6584 45.4492 38.9841 46.0373C36.8334 47.8832 34.2156 49.1059 31.4157 49.5725C31.3576 49.3764 31.3963 49.1482 31.2028 49.0068C31.21 48.9062 31.1962 48.8051 31.1623 48.71C31.1285 48.6149 31.0752 48.5277 31.006 48.4541C30.9286 48.2741 30.7156 48.1327 30.8092 47.8981L30.6124 47.3485L30.3285 46.5933C30.2405 46.5371 30.1725 46.4546 30.1343 46.3577C30.0961 46.2607 30.0895 46.1542 30.1156 46.0534C30.1253 45.9524 30.1121 45.8506 30.0769 45.7555C30.0417 45.6604 29.9855 45.5743 29.9123 45.5038C29.7833 45.3367 29.6704 45.1567 29.5542 44.98C29.4078 44.6739 29.2796 44.3595 29.1703 44.0383C29.0803 43.6697 28.9527 43.3111 28.7897 42.9682C28.6703 42.605 28.5477 42.2418 28.4219 41.8819C28.1219 41.3902 28.267 40.3618 27.1605 40.8631C26.854 40.9949 26.5378 41.1042 26.2217 41.2166C25.9055 41.3291 25.512 41.432 25.17 41.5734C25.0191 41.6422 24.864 41.7013 24.7054 41.7501C24.6442 41.7681 24.5797 41.7723 24.5166 41.7623C24.4535 41.7523 24.3935 41.7283 24.3409 41.6923C23.9409 41.3709 24.4796 41.0881 24.3861 40.7764C24.5918 40.5046 24.716 40.1804 24.7441 39.8412C24.9553 39.575 25.0842 39.2534 25.1151 38.9156C25.4087 38.6746 25.1668 38.2246 25.4765 37.9932C25.537 37.9448 25.5846 37.8822 25.615 37.811C25.6454 37.7397 25.6577 37.6622 25.6507 37.5851C25.914 37.1321 26.1045 36.6409 26.2152 36.1292C26.2862 36.0629 26.3406 35.981 26.3742 35.8901C26.4078 35.7992 26.4196 35.7017 26.4088 35.6054C26.5055 35.2754 26.5798 34.9394 26.6314 34.5995C26.8411 34.1624 26.9831 33.7028 27.1669 33.2561C27.8315 31.7232 28.338 30.1227 29.0187 28.593C29.0613 28.5113 29.1216 28.44 29.1953 28.3844C29.2689 28.3289 29.3541 28.2903 29.4446 28.2716C29.7441 28.3212 30.0304 28.4305 30.2866 28.593C30.5027 28.7086 30.7156 28.834 30.9318 28.969C31.2728 29.1824 31.6298 29.3694 31.9996 29.5282C32.2545 29.6631 32.5222 29.782 32.7836 29.9106C33.945 30.6433 35.2193 31.1961 36.3968 31.8903C36.8388 32.1152 37.2549 32.3884 37.7098 32.5941C37.9252 32.7042 38.1342 32.8266 38.3357 32.9605C38.5712 33.0987 38.8131 33.2208 39.0583 33.3397C39.2293 33.4232 39.4035 33.5068 39.568 33.6C39.7496 33.7325 39.9392 33.8538 40.1358 33.9632C40.3326 34.0756 40.5358 34.1753 40.7391 34.2845L41.1682 34.4902C41.3633 34.5711 41.553 34.6645 41.736 34.7698C42.3618 35.3033 41.8908 35.5058 41.4456 35.7339C40.952 35.9493 40.4326 36.0939 39.9293 36.2835C39.3486 36.4281 38.8357 36.7945 38.2389 36.8138C38.5615 37.0934 38.5873 37.5401 38.755 37.9257C38.8714 38.2915 39.0071 38.6509 39.1615 39.0023C39.268 39.3237 39.3583 39.6451 39.4841 39.9408C39.5648 40.1272 39.6454 40.3136 39.7132 40.5064L39.9068 41.0752C40.0068 41.3741 40.0939 41.6794 40.2294 41.9687C40.2939 42.1133 40.3584 42.2547 40.4165 42.3993C40.4746 42.5439 40.5423 42.7721 40.6101 42.9553C40.6768 43.143 40.7338 43.3339 40.781 43.5273C40.7776 43.6797 40.7389 43.8293 40.6681 43.9644Z" fill="#FEFEFE"/>
<path d="M30.8091 47.8917C30.943 48.0454 31.0134 48.2442 31.0059 48.4476C30.2832 47.7567 29.2025 47.9013 28.425 47.3421C28.1347 47.175 27.7798 47.1268 27.4991 46.9725C26.2087 46.5708 25.1699 45.8027 24.1698 44.9446C23.8472 44.7357 23.5859 44.4111 23.2439 44.2087C22.9334 44.0359 22.6767 43.7813 22.5019 43.4727C22.2987 43.1288 21.9728 42.8846 21.7599 42.5504C21.3825 42.3479 21.2728 41.9301 21.0211 41.628C20.8986 41.3066 20.776 41.0142 20.6501 40.7057C21.3954 40.8631 21.5276 41.5991 21.9019 42.0779C23.8342 44.6033 26.5471 46.4249 29.6219 47.2617C30.0543 47.3944 30.4573 47.6082 30.8091 47.8917Z" fill="#FE3134"/>
<path d="M21.7568 42.5504C22.102 42.7785 22.4537 43.0035 22.4988 43.4727C22.1536 43.2413 21.8052 43.026 21.7568 42.5504Z" fill="#FE3034"/>
<path d="M23.2407 44.2087C23.7085 44.2537 23.9343 44.604 24.1666 44.9446C23.6956 44.8996 23.4665 44.5526 23.2407 44.2087Z" fill="#FE3034"/>
<path d="M27.4958 46.9725C27.6687 46.9547 27.8433 46.979 28.0046 47.0434C28.1659 47.1078 28.3091 47.2103 28.4217 47.3421C28.2489 47.3594 28.0745 47.3348 27.9133 47.2704C27.7521 47.2061 27.6089 47.1039 27.4958 46.9725Z" fill="#FE3034"/>
<path d="M31.406 49.9163C31.6963 49.9967 31.7286 50.2216 31.7286 50.4755C30.1736 50.0288 28.5573 49.791 27.0572 49.1482C23.302 47.5413 20.3566 45.041 18.3855 41.4352C17.6499 40.0918 16.995 38.7195 16.7434 37.193C17.2176 37.238 17.1789 37.6686 17.266 37.9547C18.6533 42.4539 21.4599 45.7738 25.5668 48.0331C27.3575 49.0653 29.3477 49.7072 31.406 49.9163Z" fill="#FE181C"/>
<path d="M20.4631 45.131C20.3106 45.0716 20.1778 44.971 20.0797 44.8403C19.9817 44.7097 19.9223 44.5544 19.9082 44.3918C20.0609 44.4509 20.1939 44.5515 20.292 44.6822C20.3901 44.8129 20.4494 44.9684 20.4631 45.131Z" fill="#FE0F13"/>
<path d="M22.3148 46.7894C22.1516 46.7754 21.9957 46.7161 21.8645 46.6185C21.7334 46.5208 21.6323 46.3885 21.5728 46.2366C21.736 46.2502 21.8921 46.3093 22.0233 46.407C22.1545 46.5047 22.2555 46.6372 22.3148 46.7894Z" fill="#FE0F13"/>
<path d="M31.0156 50.6587C30.6446 50.6009 30.2284 50.8098 29.9026 50.4755C30.2736 50.5366 30.6898 50.3245 31.0156 50.6587Z" fill="#FE0F13"/>
<path d="M30.1155 46.047C30.2929 46.1851 30.2929 46.394 30.3284 46.5869C28.3669 45.9666 26.499 45.1632 24.8957 43.8359C23.3514 42.5875 22.094 41.0236 21.2083 39.2498L21.9373 39.7833C22.1599 40.0693 22.26 40.4261 22.4922 40.7057C22.7245 40.9853 22.8536 41.4255 23.2342 41.628C23.7706 42.3166 24.3916 42.9352 25.0828 43.4695C26.3148 44.3663 27.6612 45.0958 29.0864 45.6388C29.4348 45.7706 29.7735 45.9184 30.1155 46.047Z" fill="#FE4145"/>
<path d="M29.7156 44.9543C29.7852 45.0277 29.8386 45.1148 29.8725 45.21C29.9064 45.3052 29.92 45.4063 29.9124 45.507C28.48 44.7518 26.9122 44.2215 25.6766 43.1289C25.183 42.6886 24.67 42.2676 24.1667 41.8433L24.341 41.7019L24.7055 41.6055C25.7637 42.0715 26.454 43.0549 27.4993 43.5499C27.9804 43.8214 28.4758 44.0671 28.9833 44.2858C29.2954 44.421 29.5532 44.6563 29.7156 44.9543Z" fill="#FE4C50"/>
<path d="M25.0795 43.4695C24.2601 43.0985 23.6034 42.4443 23.231 41.628C23.9199 42.1649 24.5406 42.7832 25.0795 43.4695Z" fill="#FE4245"/>
<path d="M22.4987 40.7057C22.3373 40.6092 22.2022 40.4746 22.1054 40.3137C22.0086 40.1528 21.9531 39.9706 21.9438 39.7833C22.1053 39.8798 22.2404 40.0144 22.3372 40.1753C22.434 40.3361 22.4895 40.5183 22.4987 40.7057Z" fill="#FE4245"/>
<path d="M30.6219 25.588C30.751 25.3438 31.0639 25.1928 31.0026 24.8521C31.1413 24.6079 31.451 24.46 31.4059 24.1194C31.2446 23.6791 31.6994 23.4927 31.8027 23.1552C31.941 22.9098 32.0576 22.6528 32.1511 22.3871C32.3447 21.979 32.7028 21.6737 32.8641 21.2462C33.0074 20.937 33.169 20.6366 33.348 20.3464C33.4321 20.2404 33.5436 20.1593 33.6706 20.1118C34.961 20.1857 35.9901 20.8574 37.0354 21.468C39.083 22.6651 40.8053 24.3434 42.052 26.3561C42.2124 26.5606 42.327 26.7968 42.3882 27.049C42.4495 27.3012 42.4558 27.5636 42.4068 27.8184C42.2778 28.3423 42.5617 28.7601 42.8682 29.1553C43.2585 29.9395 43.7392 30.6947 43.6747 31.6235C43.6338 31.679 43.5796 31.7234 43.517 31.7526C43.4545 31.7818 43.3855 31.7948 43.3166 31.7906C43.0967 31.7586 42.8805 31.7047 42.6714 31.6299C42.3447 31.5565 42.0268 31.4488 41.7229 31.3086C41.547 31.2097 41.361 31.13 41.168 31.0707C40.8605 30.9711 40.5589 30.8541 40.2647 30.7205C40.1195 30.6498 39.9776 30.579 39.8292 30.5148C39.5259 30.3894 39.213 30.2898 38.913 30.158C38.6129 30.0263 38.2678 29.9234 37.9645 29.7917C37.3677 29.5217 36.6741 29.4896 36.1256 29.1007C35.6977 28.8877 35.2491 28.7187 34.7868 28.5961C34.0125 28.2748 33.2544 27.918 32.4608 27.632C32.0962 27.481 31.7382 27.3106 31.3607 27.1949C31.0381 27.0342 30.6864 26.9539 30.3606 26.8029C30.3199 26.7808 30.2845 26.7502 30.2567 26.7132C30.2289 26.6762 30.2095 26.6337 30.1997 26.5886C30.1899 26.5434 30.19 26.4967 30.1999 26.4516C30.2099 26.4065 30.2295 26.3641 30.2574 26.3272C30.409 26.0958 30.6413 25.903 30.6219 25.588Z" fill="#FEFEFE"/>
<path d="M30.2641 26.3304C30.2834 26.4783 30.2866 26.6518 30.4576 26.7129C30.6867 27.1725 30.2737 27.3074 30.0221 27.4713C27.9832 28.85 27.0154 30.7944 27.0154 33.2304C27.0103 33.7193 26.9365 34.205 26.796 34.6734C26.7771 35.014 26.6468 35.3391 26.425 35.599C26.3669 34.0853 26.0024 32.5941 26.4928 31.0611C26.9831 29.5282 27.7025 28.2876 28.9736 27.3364C29.3962 27.0086 29.8285 26.6647 30.2641 26.3304Z" fill="#FE8C8E"/>
<path d="M21.2083 21.7412C22.8271 20.6823 24.6557 19.983 26.57 19.6908C27.6021 19.5345 28.6462 19.471 29.6896 19.5012C30.2284 19.5012 30.5123 19.6908 30.4768 20.25C30.5238 20.2955 30.559 20.3519 30.5792 20.414C30.5995 20.4762 30.6042 20.5423 30.5929 20.6067C30.515 20.9372 30.407 21.2599 30.2703 21.5708C30.08 22.04 29.88 22.5028 29.7122 22.9817C29.6509 23.1392 29.58 23.3031 29.5154 23.4509C29.2832 23.9073 29.2283 24.4568 28.8057 24.8168C28.5444 25.061 28.6347 25.6234 28.083 25.6009C27.7798 25.4049 27.5701 25.0578 27.1604 25.0321C27.0675 24.9261 26.9536 24.8403 26.826 24.78C26.6983 24.7197 26.5596 24.6863 26.4184 24.6818L25.8603 24.3186L25.3376 24.0326L24.3892 23.5344L23.8246 23.2131C23.6222 23.0179 23.3642 22.89 23.0858 22.8467C22.7374 22.8917 22.6923 22.4 22.3503 22.4353C22.2068 22.2659 22.0081 22.1522 21.7889 22.114C21.719 22.0385 21.6342 21.9781 21.5399 21.9366C21.4455 21.8952 21.3436 21.8735 21.2405 21.8729C21.2083 21.8408 21.2083 21.7926 21.2083 21.7412Z" fill="#FEFEFE"/>
<path d="M28.7734 24.8232C28.8815 24.3097 29.0745 23.8178 29.3445 23.3673C29.8445 23.4413 30.2897 23.2002 30.7607 23.107C31.164 23.0267 31.5834 22.8403 31.9576 23.2002C31.9092 23.5859 31.6092 23.8237 31.4059 24.1194C30.7607 24.0744 30.2284 24.3604 29.6638 24.5918C29.3864 24.7075 29.1509 25.0771 28.7734 24.8232Z" fill="#FE6E71"/>
<path d="M45.6395 40.3361L46.0105 40.1529C45.0053 42.2934 43.3175 44.0426 41.2101 45.1278C41.189 45.114 41.1735 45.0932 41.1664 45.069C41.1593 45.0449 41.1611 45.019 41.1714 44.9961C41.0714 44.5301 41.452 44.3726 41.7198 44.1412C42.5973 43.3924 43.5974 42.7689 44.1942 41.7341C44.7588 41.3677 44.8362 40.4711 45.6395 40.3361Z" fill="#FE3B3F"/>
<path d="M46.1943 39.7833C46.1999 39.6414 46.2359 39.5023 46.2999 39.3753C46.3639 39.2484 46.4544 39.1366 46.5653 39.0473C46.5815 39.3623 46.5331 39.6451 46.1943 39.7833Z" fill="#FE3B3F"/>
<path d="M40.668 43.9644L40.6228 43.5016C40.5776 42.8364 41.11 42.5375 41.5197 42.2161C45.8168 38.7484 46.8782 32.6873 44.7167 28.0369C44.5683 27.7156 44.2683 27.4167 44.507 27.015C44.7321 26.8514 44.9974 26.7514 45.2748 26.7257C45.02 27.0246 45.1942 27.2914 45.3329 27.5677C48.0202 32.9476 46.2814 39.7801 41.539 43.2574C41.268 43.4598 40.8615 43.598 40.8228 44.0383C40.7739 44.0085 40.722 43.9837 40.668 43.9644Z" fill="#FE4C4F"/>
<path d="M44.3426 41.8112C43.8361 42.9939 42.6941 43.5563 41.8004 44.3533C41.5714 44.5558 41.3036 44.7036 41.1552 44.996C41.0852 44.9249 41.0314 44.8396 40.9974 44.7458C40.9635 44.6521 40.9502 44.5522 40.9584 44.4529L43.7909 41.9976C43.9458 41.853 44.091 41.6762 44.3426 41.8112Z" fill="#FE4144"/>
<path d="M42.7199 29.2646C42.2295 28.8211 41.9779 28.3005 42.2134 27.6385C42.2594 27.5255 42.2776 27.4033 42.2664 27.2819C42.2551 27.1606 42.2148 27.0437 42.1489 26.9411C40.1487 23.6662 37.3968 21.3395 33.661 20.2468C33.4223 19.9254 33.7739 19.7229 33.8481 19.4626C33.8981 19.3462 33.9713 19.2411 34.0634 19.1538C34.1555 19.0665 34.2645 18.9988 34.3837 18.9548C38.5453 20.3528 41.623 23.0299 43.7393 26.8318C43.775 26.9483 43.7902 27.0701 43.7845 27.1917C43.7845 27.4006 43.6361 27.4971 43.4619 27.5806C43.3819 27.6132 43.3 27.6411 43.2167 27.6642C42.7392 27.7606 42.5715 28.0402 42.7231 28.5062C42.8231 28.7536 42.9134 29.0172 42.7199 29.2646Z" fill="#FEF9FA"/>
<path d="M44.5071 27.0117C45.1524 28.3294 45.7556 29.6696 45.9169 31.1447C46.2395 34.1335 45.8266 36.9295 44.1748 39.5744C43.207 41.1299 41.7166 42.1165 40.6261 43.5016C40.5566 43.4338 40.5033 43.3511 40.4703 43.2598C40.4374 43.1686 40.4256 43.071 40.4358 42.9746C40.2616 42.364 40.7004 42.094 41.081 41.7951C42.5604 40.6819 43.6816 39.163 44.3071 37.4244C44.6684 36.4829 44.9279 35.5058 45.0814 34.5095C45.404 32.2406 44.9297 30.142 44.091 28.0819C43.9781 27.8056 43.7522 27.5485 43.9716 27.2271C44.1186 27.0939 44.3085 27.0176 44.5071 27.0117Z" fill="#FE5457"/>
<path d="M43.9619 27.2174C44.891 29.1168 45.4975 31.1125 45.4427 33.2368C45.3835 36.3355 44.1383 39.2946 41.9617 41.5091C41.4746 42.0201 40.5487 42.0779 40.4326 42.9746C40.3626 42.9034 40.3087 42.8181 40.2748 42.7244C40.2408 42.6306 40.2275 42.5307 40.2358 42.4314C40.1616 41.9172 40.539 41.6569 40.852 41.3773C44.3135 38.2632 45.333 34.4291 44.2716 29.9749C44.1186 29.4141 43.8965 28.8743 43.6103 28.368C43.4651 28.0884 43.1618 27.8216 43.4199 27.4488L43.7877 27.1982L43.9619 27.2174Z" fill="#FE5A5D"/>
<path d="M34.3836 18.9548L33.9739 19.5076C33.9034 19.6422 33.795 19.7534 33.6621 19.8276C33.5292 19.9018 33.3774 19.9358 33.2254 19.9254C32.3641 19.8868 31.5317 20.385 30.6445 20.0604C30.5962 19.7551 30.7897 19.5462 30.9317 19.3148C31.7128 19.0626 32.5302 18.9399 33.3512 18.9516C33.6849 18.997 34.0243 18.9338 34.3191 18.7717L34.3836 18.9548Z" fill="#FE3F43"/>
<path d="M44.3425 41.8112L43.7876 41.9976C44.3328 41.162 44.92 40.3521 45.4006 39.4844C45.8458 38.6938 46.1781 37.8422 46.562 37.0195C47.4202 34.4458 47.4202 31.6647 46.562 29.0911C46.2929 28.6361 46.1052 28.1381 46.0071 27.6192V26.88C46.975 28.3423 47.3395 30.0038 47.475 31.7007C47.7041 34.5931 47.2427 37.3505 45.7684 39.899C45.707 40.0367 45.6626 40.1813 45.6361 40.3296C45.1038 40.7378 44.9813 41.4994 44.3425 41.8112Z" fill="#FE4145"/>
<path d="M46.5653 29.0911C47.5849 31.6363 47.5849 34.4742 46.5653 37.0194C46.5298 36.1871 46.8459 35.4126 46.975 34.5995C47.2556 32.893 47.0008 31.2732 46.5975 29.6406C46.5705 29.4587 46.5597 29.2748 46.5653 29.0911Z" fill="#FE4145"/>
<path d="M30.6575 20.0604C31.7318 19.694 32.8932 19.8418 33.974 19.5076C33.8707 19.7518 33.7643 19.9993 33.6513 20.2468L33.4287 20.4332C32.6158 21.1466 31.5899 20.9731 30.635 21.0759C30.3994 21.0984 30.2962 20.8477 30.4414 20.6003V20.2564L30.6575 20.0604Z" fill="#FE494D"/>
<path d="M42.7198 29.2646C42.6855 29.0555 42.6281 28.8507 42.5488 28.654C42.1488 27.8924 42.4327 27.5388 43.2263 27.4617C43.3167 28.1045 43.8135 28.5962 44.0135 29.2068C45.4362 33.5004 44.6103 37.3344 41.6101 40.6992C41.1367 41.1767 40.6253 41.6152 40.0809 42.0105C39.8663 41.743 39.7431 41.4142 39.7292 41.072C40.5003 40.2943 41.3423 39.5937 41.952 38.6585C43.3443 36.6082 43.9257 34.1172 43.5844 31.6653C43.3928 30.8338 43.1026 30.0279 42.7198 29.2646Z" fill="#FE6568"/>
<path d="M40.081 42.0105C40.0935 41.8568 40.1435 41.7085 40.2267 41.5786C40.3099 41.4486 40.4238 41.3409 40.5584 41.2649C42.5134 39.8187 43.6458 37.8165 44.162 35.525C44.7136 33.089 44.6169 30.653 43.3458 28.3873C43.1845 28.1012 42.9586 27.8088 43.2264 27.4617L43.42 27.4424C44.5789 29.4015 45.0954 31.672 44.8975 33.9374C44.7394 36.2931 43.8039 38.3307 42.3812 40.1979C41.736 41.0302 40.7681 41.522 40.2358 42.4315C40.1758 42.3805 40.13 42.315 40.1029 42.2412C40.0758 42.1675 40.0682 42.088 40.081 42.0105Z" fill="#FE5F62"/>
<path d="M43.5845 31.6653C44.3974 32.7805 43.8651 33.9728 43.6941 35.1009C43.3973 37.0516 42.3618 38.6778 41.0939 40.1657C40.7067 40.5584 40.2421 40.867 39.7293 41.072C39.5973 40.9186 39.5282 40.7212 39.5357 40.5193C39.6551 40.0854 40.0003 39.8154 40.2971 39.5101C42.2327 37.5465 43.0296 35.1651 42.9715 32.4398C42.9715 32.1699 42.7037 31.7714 43.236 31.6621L43.5845 31.6653Z" fill="#FE6D70"/>
<path d="M43.2359 31.6717C43.1972 32.8641 43.2359 34.0564 42.9424 35.2358C42.442 37.3313 41.2405 39.1946 39.5356 40.5193C39.4015 40.372 39.3308 40.1781 39.3388 39.9794C39.2614 39.5873 39.5292 39.3527 39.7582 39.1149C40.6182 38.2621 41.286 37.2367 41.7171 36.1068C42.1482 34.9769 42.3328 33.7685 42.2584 32.562C42.2584 32.1827 42.0294 31.6171 42.7036 31.4693C42.802 31.4602 42.9011 31.4737 42.9934 31.5088C43.0857 31.5439 43.1687 31.5997 43.2359 31.6717Z" fill="#FE7477"/>
<path d="M42.7038 31.4564C42.4037 31.6846 42.4844 32.0124 42.4973 32.3048C42.5939 34.0449 42.2255 35.7793 41.4295 37.3312C40.8971 38.3532 40.0003 39.0602 39.3389 39.9665C39.1397 39.6918 39.0182 39.3688 38.9873 39.0313C39.9003 37.9418 40.4874 36.6338 41.3811 35.5282C41.5972 35.3386 42.2134 35.2454 41.5456 34.8437C41.4897 34.7537 41.4553 34.6521 41.4452 34.5468C41.4352 34.4414 41.4496 34.3352 41.4875 34.2363C41.7296 33.4532 41.7296 32.6156 41.4875 31.8324C41.4069 31.5496 41.252 31.1736 41.7746 31.09L42.7038 31.4564Z" fill="#FE7C7F"/>
<path d="M34.8902 28.3744C35.3257 28.5544 35.816 28.5994 36.1967 28.9079C37.1836 29.5566 37.917 30.5232 38.2743 31.646C38.4324 32.1409 38.5969 32.6294 38.2388 33.1083L37.6775 32.7869C37.4728 32.6516 37.3222 32.4492 37.2517 32.2148C36.2838 29.7981 34.8869 29.0557 32.3899 29.6117C32.2396 29.6394 32.0877 29.6576 31.9351 29.6663C31.5238 29.5802 31.1436 29.3848 30.835 29.1007C31.8405 28.411 33.0798 28.1475 34.2804 28.368C34.4804 28.3937 34.6837 28.5126 34.8902 28.3744Z" fill="#FEADAF"/>
<path d="M31.9351 29.6567C33.8481 28.3198 36.5193 29.5346 37.3484 31.7392C37.4743 32.0606 37.5678 32.4302 37.671 32.7773C37.2007 32.6157 36.7635 32.3707 36.3806 32.0542C35.6128 30.5148 34.1223 30.3027 32.6609 30.0295C32.3821 29.9955 32.1246 29.8633 31.9351 29.6567Z" fill="#FEB5B7"/>
<path d="M26.7797 34.6702C26.6022 32.4205 26.8829 30.2898 28.4379 28.4837C28.9 27.9944 29.42 27.5628 29.9864 27.1981C30.18 27.06 30.451 27.0053 30.4574 26.6968C30.6285 26.6851 30.8002 26.7075 30.9625 26.7627C31.1248 26.8179 31.2744 26.9047 31.4027 27.0182C31.2377 27.3873 30.976 27.7053 30.645 27.9389C30.3141 28.1724 29.9261 28.3129 29.5219 28.3455L29.1992 28.5351C28.2531 29.99 27.6102 31.6195 27.3088 33.3268C27.2262 33.8059 27.0461 34.263 26.7797 34.6702Z" fill="#FE9294"/>
<path d="M29.7154 44.9542C28.8347 44.485 27.9443 44.0319 27.0765 43.5402C26.1827 43.035 25.3811 42.3831 24.7053 41.6119C24.7517 41.5562 24.8116 41.5134 24.8794 41.4875C24.9472 41.4616 25.0206 41.4535 25.0925 41.4641C25.2382 41.3804 25.4086 41.3496 25.5745 41.3772C25.7405 41.4047 25.8916 41.4888 26.0022 41.6151C26.8372 42.3639 27.7773 42.9875 28.7928 43.4663C29.0298 43.6009 29.2216 43.8021 29.3444 44.0447C29.552 44.3068 29.6806 44.6222 29.7154 44.9542Z" fill="#FE5256"/>
<path d="M41.381 35.5411C40.7713 36.8266 40.2196 38.1732 38.9873 39.0441C38.746 38.7294 38.6095 38.3473 38.5969 37.9515C38.9326 37.2693 39.3675 36.6401 39.8874 36.0843C40.352 35.8228 40.8566 35.6393 41.381 35.5411Z" fill="#FE888A"/>
<path d="M29.3445 44.0222C28.0831 43.2863 26.712 42.711 25.6958 41.6023C25.5345 41.4287 25.3055 41.4512 25.0925 41.4416C25.4126 41.2262 25.7821 41.0946 26.1668 41.0592C26.2607 41.0024 26.3709 40.9782 26.48 40.9904C26.5892 41.0026 26.6912 41.0506 26.7701 41.1267C27.4798 41.7694 28.4444 42.0715 28.9735 42.9167C29.2038 43.2408 29.3329 43.6254 29.3445 44.0222Z" fill="#FE5C5F"/>
<path d="M38.2388 33.1083C38.2001 31.4821 37.6743 30.1131 36.1741 29.2518C35.9548 29.1264 35.7741 28.9882 36.1967 28.8951C36.7484 29.3032 37.5097 29.1971 38.0517 29.631C38.7324 30.4184 38.9744 31.3793 39.1518 32.3627C39.2228 32.7451 39.2938 33.1469 38.9776 33.4779L38.2388 33.1083Z" fill="#FEA5A7"/>
<path d="M34.8903 28.3744C34.8161 28.4226 34.7354 28.519 34.6644 28.5094C33.3353 28.3616 32.0836 28.8018 30.8351 29.0911L30.2415 28.7408C30.8867 28.1141 31.8029 27.9727 32.4997 27.4553L34.8903 28.3744Z" fill="#FEA6A8"/>
<path d="M32.6577 30.0295C34.0482 29.9202 35.3192 30.1098 36.1871 31.3761C36.3294 31.5724 36.3969 31.8128 36.3774 32.0542C35.1192 31.4114 33.8127 30.8586 32.6577 30.0295Z" fill="#FEC0C2"/>
<path d="M41.7747 31.1029C41.7327 31.1239 41.6954 31.1531 41.665 31.1889C41.6346 31.2246 41.6118 31.2661 41.5979 31.3108C41.5841 31.3555 41.5794 31.4026 41.5843 31.4492C41.5892 31.4957 41.6035 31.5408 41.6263 31.5818C42.2005 32.6905 41.965 33.7736 41.5456 34.8566L41.0166 34.5899C40.7843 33.5197 41.0166 32.4238 40.8262 31.3504C40.7875 31.1415 40.8811 30.8426 41.2456 30.9037C41.4392 30.9262 41.6424 30.9262 41.7747 31.1029Z" fill="#FE8487"/>
<path d="M32.4996 27.4424C32.5183 27.5485 32.5248 27.6563 32.519 27.7638C31.7157 27.9888 31.0833 28.6026 30.2446 28.7279C29.9687 28.6859 29.7152 28.5522 29.5251 28.3487C30.2167 28.0049 30.851 27.5573 31.406 27.0214C31.7964 27.0827 32.1692 27.2263 32.4996 27.4424Z" fill="#FE9C9F"/>
<path d="M38.9777 33.4907C38.9325 32.2534 38.8357 31.0322 37.9873 30.0231C37.9602 29.9966 37.9401 29.964 37.9284 29.9281C37.9168 29.8921 37.914 29.8539 37.9203 29.8167C37.9266 29.7795 37.9419 29.7443 37.9648 29.7142C37.9877 29.6841 38.0175 29.66 38.0518 29.6438C38.3898 29.6828 38.712 29.8079 38.9873 30.007C39.4344 30.8494 39.7002 31.7754 39.7681 32.7258C39.7906 33.0858 39.839 33.4747 39.51 33.7543L38.9777 33.4907Z" fill="#FE9EA0"/>
<path d="M39.51 33.7543C39.6171 32.661 39.4323 31.559 38.9745 30.5598C38.8906 30.3734 38.7228 30.1837 38.9745 30.007C39.3093 30.0487 39.628 30.1748 39.9003 30.3734C40.0165 31.119 40.2229 31.8517 40.2971 32.6037C40.3423 33.1019 40.4617 33.6321 40.0713 34.0756C39.9605 34.0636 39.8535 34.0288 39.7569 33.9735C39.6602 33.9182 39.5762 33.8436 39.51 33.7543Z" fill="#FE979A"/>
<path d="M40.0841 34.0757C40.1385 33.1088 40.0295 32.1398 39.7615 31.209C39.6776 30.9229 39.6099 30.6112 39.9002 30.3734L40.3035 30.5341C40.6434 31.1119 40.8489 31.7584 40.9047 32.4258C40.9605 33.0933 40.8653 33.7647 40.6261 34.3906L40.0841 34.0757Z" fill="#FE9194"/>
<path d="M27.3186 33.3429C27.3186 31.5046 27.8606 29.8688 29.2059 28.5512C28.6682 30.1827 28.0381 31.7825 27.3186 33.3429Z" fill="#FE999C"/>
<path d="M40.6456 34.397C40.665 33.1115 40.6843 31.8003 40.323 30.5405L41.2489 30.9069C40.9263 31.1607 41.0231 31.4886 41.0908 31.8164C41.2927 32.7339 41.2695 33.6864 41.0231 34.5931L40.6456 34.397Z" fill="#FE8B8D"/>
<path d="M28.9734 42.9167L26.1667 41.0592C26.4478 40.8497 26.7842 40.7268 27.1346 40.7057C28.0217 40.545 28.1766 41.3484 28.5895 41.808C28.7885 42.1493 28.9189 42.5258 28.9734 42.9167Z" fill="#FE6669"/>
<path d="M39.8969 36.0843C39.6892 36.8332 39.2347 37.4908 38.6065 37.9515C37.9839 36.5599 37.7032 36.7559 39.8969 36.0843Z" fill="#FE9497"/>
<path d="M28.5863 41.808C28.0347 41.5284 27.8153 40.8117 27.1313 40.7057C28.1379 40.2236 28.1379 40.2236 28.5863 41.808Z" fill="#FE7174"/>
<path d="M30.451 20.5939C30.4865 20.7353 30.4962 20.9377 30.6962 20.9152C31.6124 20.7706 32.5254 20.5939 33.4384 20.4428C33.368 20.7784 33.2163 21.0918 32.9964 21.3555C32.2899 21.9983 31.3834 21.9983 30.5156 22.0754C30.1929 22.1108 29.8897 21.9694 30.08 21.5227C30.1178 21.1855 30.2459 20.8647 30.451 20.5939Z" fill="#FE5457"/>
<path d="M30.0801 21.513C30.1285 21.8922 30.3736 21.934 30.6833 21.8633L32.9965 21.3459C32.8472 21.7592 32.6144 22.1377 32.3125 22.4579C31.3995 22.7792 30.5091 23.2099 29.4929 23.001C29.5883 22.4713 29.7879 21.9656 30.0801 21.513Z" fill="#FE5D60"/>
<path d="M29.493 23.001C30.435 22.821 31.319 22.3582 32.3126 22.4579C32.3075 22.5992 32.2734 22.738 32.2124 22.8657C32.1513 22.9933 32.0647 23.1072 31.9578 23.2002C31.2898 23.1763 30.6258 23.313 30.0221 23.5987C29.6995 23.7305 29.4317 23.8623 29.3511 23.3674L29.493 23.001Z" fill="#FE6669"/>
</g>
<defs>
<clipPath id="clip0_73_1923">
<rect width="295" height="56" fill="white"/>
</clipPath>
</defs>
</svg>
