<svg width="200" height="100" viewBox="0 0 200 100" fill="none" xmlns="http://www.w3.org/2000/svg">
<g clip-path="url(#clip0_73_2128)">
<path d="M0.381104 7.78315C4.94364 2.41546 10.2308 -0.437468 17.1793 0.759526C21.1299 1.43854 24.7799 3.00859 27.7912 5.57166C31.7526 8.94525 36.3795 10.9394 41.0762 12.869C43.4917 13.8621 45.9071 14.8417 48.3226 15.9179C45.0322 16.0923 41.774 16.3849 38.6393 17.3859C31.1245 19.788 25.6227 24.7746 21.3151 31.205C20.4032 32.5924 19.8567 34.1877 19.7262 35.8427C19.4122 39.2539 21.5191 40.942 24.7182 39.7263C25.6173 39.3854 25.985 39.3774 26.2534 40.3972C26.4546 41.1487 26.9753 41.8143 27.3859 42.5819L28.8164 41.5083C29.1891 42.5063 29.7342 43.4311 30.4267 44.2405C32.2088 46.3312 34.0687 47.6973 37.2115 47.6141C43.3709 47.453 49.5196 48.1106 55.3704 50.3677C56.5366 50.8133 57.6603 51.363 58.7279 52.0102C63.3682 54.8309 64.8309 58.5078 63.3924 63.7413C62.1283 68.3414 59.1948 71.7418 55.5072 74.5867C54.2025 75.5997 52.8052 76.4875 51.3339 77.2383C47.9617 78.9945 44.844 81.2011 42.0666 83.7976C36.8438 88.5668 36.2426 93.1294 39.9678 99.5706C36.0413 97.606 33.7144 94.6699 32.9549 90.5475C32.0236 85.4777 33.1267 80.6414 35.1852 76.0816C36.6398 72.861 36.1889 69.9383 34.8604 66.9565C33.9579 64.9464 32.6216 63.161 30.9474 61.7284C30.2308 61.1084 30.1154 60.6039 30.4106 59.7155C31.3983 56.6345 32.0934 53.4971 31.3553 50.2416C30.6656 47.1873 28.8513 45.2469 25.7595 44.423C22.5603 43.6092 19.4559 42.4604 16.4976 40.9957C9.14922 37.2383 6.14332 30.2442 8.13473 21.9404C8.71086 19.5561 9.58554 17.2539 10.7381 15.0886C11.5996 13.4541 12.292 11.7606 11.8572 9.84434C11.3392 7.57381 9.76114 6.23994 7.43693 6.08696C4.85776 5.92056 4.10896 6.08964 0.381104 7.78315Z" fill="#017756"/>
<path d="M154.49 62.2008C153.653 61.664 153.417 60.8239 153.417 59.8927C153.417 57.3457 153.4 54.7934 153.417 52.2544C153.43 50.3382 154.686 49.0634 156.589 49.0338C159.181 49.0106 161.776 49.0106 164.372 49.0338C166.251 49.0499 167.577 50.3462 167.611 52.2249C167.656 54.7728 167.656 57.3189 167.611 59.8631C167.579 61.7418 166.361 62.9844 164.506 63.0193C161.782 63.0676 159.055 63.0193 156.331 63.0193C155.599 63.0193 154.922 62.8261 154.453 62.1793C154.801 61.715 154.63 61.1782 154.592 60.6951C154.53 59.8658 154.823 59.4713 155.666 59.4847C157.083 59.5948 158.033 58.9479 158.87 57.8127C160.196 56.0011 161.519 54.1707 163.065 52.5255C163.304 52.3645 163.581 52.2688 163.868 52.2481C164.155 52.2274 164.443 52.2823 164.702 52.4074C165.346 53.6393 165.276 53.964 164.106 54.1734C163.253 54.3264 163.076 54.7102 163.301 55.4536C163.433 55.8776 163.419 56.3312 163.57 56.7526C163.712 57.2732 163.658 57.8261 163.814 58.336C163.884 58.6331 163.88 58.943 163.8 59.2378C164.273 58.8728 164.761 58.8808 165.242 58.905C165.929 58.9399 165.964 58.5829 165.778 58.0703C165.71 57.6127 165.616 57.1593 165.497 56.7123C165.228 55.3704 165.15 53.9936 164.936 52.6436C164.667 52.5926 165.024 51.8814 164.372 52.1632C164.149 52.266 163.907 52.3217 163.661 52.3268C163.416 52.3318 163.171 52.2862 162.944 52.1927C162.222 51.8331 161.798 52.1927 161.35 52.6221C159.858 54.6484 158.28 56.6076 156.712 58.5749C156.382 58.9909 156.031 59.3935 155.456 59.482C154.882 59.5706 154.584 59.7504 154.597 60.3919C154.622 60.9957 154.783 61.6184 154.49 62.2008Z" fill="#A33C7D"/>
<path d="M98.5856 63.022C97.3376 63.022 96.0869 63.0381 94.8282 63.022C92.826 62.9925 91.5351 61.8197 91.4841 59.8202C91.4197 57.2813 91.4277 54.7209 91.5002 52.1927C91.5566 50.2362 92.9012 49.0472 94.8953 49.0392C97.4002 49.0284 99.8997 49.0284 102.394 49.0392C104.423 49.0392 105.655 50.2469 105.674 52.2598C105.697 54.7647 105.697 57.2634 105.674 59.7558C105.657 61.8197 104.498 62.9764 102.453 63.0274C101.785 63.0435 101.111 63.0274 100.445 63.0274L98.5856 63.022Z" fill="#019050"/>
<path d="M176.648 49.0311C177.941 49.0311 179.238 49.015 180.531 49.0311C182.469 49.066 183.72 50.2845 183.752 52.2034C183.779 54.7906 183.779 57.3779 183.752 59.9651C183.736 61.8196 182.563 63.1159 180.692 63.1696C177.973 63.2447 175.252 63.2447 172.531 63.1696C170.682 63.1159 169.538 61.8143 169.522 59.9275C169.501 57.385 169.501 54.8425 169.522 52.3C169.538 50.2898 170.759 49.0794 172.778 49.0392C174.061 49.0123 175.354 49.0311 176.648 49.0311Z" fill="#095EA2"/>
<path d="M122.598 56.0091C122.598 54.7155 122.574 53.4192 122.598 52.1283C122.636 50.3972 123.811 49.1224 125.505 49.0902C128.226 49.0392 130.95 49.0472 133.669 49.0902C134.393 49.0887 135.091 49.359 135.625 49.8475C136.159 50.336 136.491 51.0072 136.554 51.7284C136.822 54.6189 136.702 57.5228 136.53 60.416C136.444 61.876 135.226 62.9361 133.733 62.9656C130.969 63.0166 128.202 63.022 125.435 62.9656C123.766 62.9281 122.638 61.7096 122.59 60.0134C122.566 58.6849 122.598 57.3457 122.598 56.0091Z" fill="#EB7A2C"/>
<path d="M114.01 63.0166C112.668 63.0166 111.326 63.0569 109.984 63.0166C108.261 62.9495 107.032 61.7311 107.032 60.0188C106.998 57.3832 106.998 54.7459 107.032 52.1068C107.026 51.7037 107.101 51.3035 107.253 50.9302C107.406 50.5569 107.632 50.2181 107.918 49.934C108.204 49.6499 108.544 49.4264 108.918 49.2768C109.293 49.1273 109.693 49.0546 110.097 49.0633C112.735 49.0311 115.373 49.0365 118.009 49.0633C119.825 49.0794 121.162 50.3382 121.2 52.1551C121.256 54.745 121.251 57.3403 121.2 59.9383C121.165 61.7901 119.909 62.9925 118.038 63.0435C116.696 63.081 115.354 63.0435 114.012 63.0435L114.01 63.0166Z" fill="#E23931"/>
<path d="M53.1078 29.7504C53.5804 29.4022 54.0338 29.0286 54.4658 28.6312C55.4642 27.5577 55.8078 26.3285 55.3139 24.9275C54.8013 23.4836 53.6258 22.9039 52.2195 22.7268C50.1609 22.4584 48.4621 23.226 47.0155 24.6565C45.6736 25.9984 44.7476 27.6302 43.9049 29.3129C42.4637 32.182 41.3284 35.204 39.5007 37.8771C38.5372 39.2834 37.5549 40.6575 36.1781 41.7042C35.9097 41.9002 35.5447 42.0612 35.6628 42.5255C36.1083 42.7026 36.3284 42.351 36.57 42.131C38.1803 40.6441 40.059 40.4804 42.0799 40.9071C43.9049 41.2909 45.6682 41.9968 47.5979 41.8519C50.8507 41.6049 53.1024 39.329 53.1776 36.1219C53.2313 33.8191 51.5217 32.2625 49.2055 32.5335C47.4878 32.7348 46.2533 33.7064 45.2871 35.0832C44.8376 35.7752 44.3138 36.4159 43.7251 36.9941C44.1787 34.8953 45.4884 33.4165 47.3188 32.4316C48.9908 31.5432 50.7756 31.3795 52.3483 32.6999C53.9908 34.066 54.184 35.9206 53.6687 37.8422C52.8797 40.7944 49.5786 43.2099 46.3016 43.3629C44.4691 43.4523 42.6355 43.2114 40.8883 42.6516C39.3719 42.1659 37.8609 41.8465 36.4787 43.1052C36.0869 43.4648 35.4562 43.599 35.0241 43.1052C34.6269 42.6489 34.855 42.1793 35.2576 41.817C36.935 40.3006 37.7831 38.2716 38.6687 36.2775C40.0778 33.0998 41.2613 29.8121 43.301 26.9485C44.9785 24.5947 46.9779 22.6838 49.9355 22.08C53.1212 21.4305 55.746 22.8851 56.1728 25.5556C56.3053 26.5157 56.0598 27.4897 55.488 28.2723C54.9162 29.0549 54.0628 29.5849 53.1078 29.7504Z" fill="#245393"/>
<path d="M137.831 51.7123C138.414 49.7826 139.342 49.0607 141.267 49.0553C143.714 49.0553 146.161 49.0553 148.607 49.0553C150.655 49.0553 151.932 50.2764 152.008 52.343C152.069 53.9855 152.037 55.6334 152.048 57.2786C150.153 59.6001 147.657 59.9758 144.922 59.3908C143.532 59.0955 142.171 58.6635 140.77 58.3951C140.334 58.3057 139.889 58.2732 139.444 58.2984C137.732 58.4219 137.708 58.4246 137.738 56.774C137.767 55.1235 137.603 53.4085 137.831 51.7123Z" fill="#3A4289"/>
<path d="M106.712 42.2142C106.065 43.5132 104.506 43.7601 101.471 43.0999C104.442 41.2963 105.083 37.9334 106.806 35.3167C106.336 34.6967 105.733 35.5207 105.25 34.9302C106.345 34.1465 107.611 33.9211 108.851 33.7332C109.925 33.5722 108.996 34.431 109.278 34.7504C110.172 34.2271 110.985 33.5185 112.107 33.4407C113.433 33.3468 113.816 34.3451 114.289 35.3355C115.131 34.7531 115.816 34.0419 116.739 33.7037C117.797 33.3145 118.886 33.1992 119.769 33.9963C120.652 34.7934 120.786 35.9259 120.424 37.0746C119.995 38.438 119.066 39.4632 118.143 40.4992C117.77 40.9179 117.23 41.205 117.013 41.8653C118.03 42.3215 118.892 41.7633 119.823 41.4225C119.38 43.2555 118.666 43.4702 114.858 42.9764C115.625 42.0317 116.374 41.1675 117.058 40.255C117.864 39.1814 118.537 38.0193 118.572 36.6103C118.591 35.8669 118.481 35.1584 117.721 34.796C116.962 34.4337 116.326 34.7021 115.722 35.1503C114.882 35.773 114.291 36.6184 113.744 37.4879C112.939 38.7681 112.152 40.0698 111.396 41.3822C111.205 41.7096 110.982 42.1551 111.339 42.4933C111.637 42.7778 111.989 42.5765 112.324 42.4155C112.555 42.3054 112.861 41.8787 113.084 42.3403C113.25 42.7 112.845 42.8771 112.587 43.022C112.192 43.238 111.755 43.3666 111.306 43.399C110.857 43.4314 110.406 43.3669 109.984 43.2099C109.383 43.0005 108.548 43.8916 108.282 43.0059C108.17 42.6302 108.902 41.9995 109.248 41.4815C110.424 39.7966 111.414 37.9898 112.201 36.0923C112.399 35.5824 112.614 35.0376 112.126 34.6108C111.589 34.1331 111.02 34.4364 110.537 34.7746C108.121 36.4761 106.557 38.8433 105.556 41.5701C104.976 43.1428 106.288 42.0531 106.712 42.2142Z" fill="#235393"/>
<path d="M162.139 39.7746C160.88 41.7016 159.525 43.4756 156.86 43.3978C154.139 43.3199 152.44 41.1111 153.03 38.3307C153.731 35.0269 156.788 33.0811 160.604 33.5239C161.047 33.5776 161.508 33.7655 161.924 33.693C162.73 33.5534 163.535 33.175 163.594 34.5384C163.647 35.8213 162.92 36.9109 161.83 36.978C161.35 37.0075 160.757 37.0639 160.526 36.5325C160.295 36.0011 160.977 35.9957 161.229 35.7515C161.482 35.5073 161.809 35.1476 161.675 34.7048C161.576 34.3747 161.251 34.2995 160.929 34.2351C157.891 33.6044 154.756 36.2856 154.989 39.3344C155.18 41.9324 157.319 43.0569 159.573 41.774C160.54 41.2292 161.13 40.2577 162.139 39.7746Z" fill="#245393"/>
<path d="M137.823 42.5067C136.022 44.0982 133.838 42.8959 131.841 43.4461C131.833 43.2842 131.833 43.1221 131.841 42.9603C133.763 42.7348 134.283 41.1326 135.021 39.7397C135.827 38.2152 136.648 36.7016 137.458 35.1771C137.029 34.8336 136.589 35.5126 136.006 34.9087C137.222 34.209 138.576 33.7848 139.973 33.6661C140.357 33.6232 140.368 33.7359 140.089 34.7397C141.264 34.1063 142.41 33.5239 143.752 33.6661C144.702 33.7627 145.215 34.2834 145.207 35.2469C145.199 36.2104 144.702 36.7552 143.776 36.8921C143.086 36.9941 142.555 36.8921 143.011 35.993C143.218 35.5743 143.352 35.1422 142.958 34.7585C142.563 34.3747 142.045 34.4901 141.578 34.6538C140.585 35.0161 139.828 35.7139 139.125 36.4681C137.956 37.7023 137.021 39.1393 136.366 40.7085C136.143 41.2453 135.663 41.9055 136.162 42.4557C136.624 42.9737 137.225 42.453 137.823 42.5067Z" fill="#255393"/>
<path d="M137.832 51.7123C137.848 53.591 137.869 55.4482 137.88 57.3161C137.88 57.7805 137.834 58.2528 138.562 58.0891C140.234 57.716 141.863 58.0488 143.392 58.6259C146.567 59.8363 149.394 59.2136 152.043 57.2705C152.043 58.854 152.552 60.5207 151.31 61.9082C149.061 62.9817 146.766 62.8744 144.437 62.2088C142.892 61.7856 141.285 61.6385 139.689 61.774C139.251 61.8035 138.803 61.9082 138.395 61.6371C138.218 61.589 138.065 61.4751 137.968 61.3186C137.872 61.1621 137.838 60.9747 137.875 60.7944C138.164 60.526 138.511 60.2872 138.363 59.796C138.025 59.796 138.095 60.2308 137.826 60.2979C137.306 58.5749 137.649 56.8089 137.617 55.0725C137.598 53.964 137.324 52.8073 137.832 51.7123Z" fill="#E1E0E2"/>
<path d="M101.465 22.7375C99.1466 24.474 96.4896 25.102 93.6179 24.7343C92.1606 24.5491 90.7381 24.1224 89.2889 23.8674C85.086 23.132 81.546 25.8642 81.7741 29.6672C81.817 30.3543 82.0425 31.0333 82.0774 31.7445C81.0763 30.7407 80.8562 29.5035 81.1219 28.1616C81.7473 25.008 85.1745 22.4101 88.8648 22.241C90.0266 22.2143 91.1871 22.3343 92.3189 22.598C97.0291 23.5722 97.064 23.5802 101.465 22.7375Z" fill="#265594"/>
<path d="M180.301 43.3978C178.647 43.3978 177.493 42.7402 177.021 41.5727C176.916 41.3752 176.869 41.152 176.885 40.9289C176.901 40.7058 176.98 40.4917 177.112 40.3113C177.182 40.1957 177.29 40.1086 177.418 40.0658C177.546 40.023 177.685 40.0273 177.81 40.0778C178.304 40.2603 178.43 40.6898 178.519 41.1326C178.621 41.6291 178.06 42.3833 178.98 42.555C179.992 42.7429 181.049 42.8798 181.884 42.0451C182.163 41.7811 182.351 41.4348 182.419 41.0568C182.488 40.6789 182.434 40.2889 182.265 39.9437C182.043 39.4577 181.794 38.9846 181.519 38.5266C181.213 37.9898 180.835 37.4745 180.582 36.9163C179.946 35.4938 180.411 34.1841 181.683 33.6635C183.025 33.1106 185.212 33.8111 185.709 34.9437C185.883 35.3516 185.913 35.7488 185.526 36.0172C185.361 36.1409 185.155 36.1968 184.951 36.1734C184.746 36.1499 184.558 36.0489 184.426 35.891C184.164 35.5905 183.97 35.2372 183.857 34.8551C183.588 33.9453 182.912 34.1331 182.346 34.2995C181.712 34.4847 181.589 35.0913 181.855 35.6119C182.279 36.4412 182.826 37.2061 183.312 38.0059C184.02 39.1734 184.667 40.3623 183.905 41.7633C183.309 42.8207 182.002 43.4004 180.301 43.3978Z" fill="#255493"/>
<path d="M70.7272 43.379C69.2994 43.4461 68.2071 42.92 67.563 41.5942C67.4375 41.38 67.3812 41.1322 67.4019 40.8848C67.4225 40.6374 67.5191 40.4025 67.6784 40.212C67.7437 40.1194 67.838 40.0512 67.9463 40.0182C68.0547 39.9852 68.171 39.9891 68.2769 40.0295C68.5144 40.1148 68.7135 40.2825 68.8376 40.5023C68.9618 40.722 69.0028 40.9791 68.9532 41.2265C68.6848 42.5174 69.4202 42.6436 70.381 42.6436C71.7605 42.6436 72.5657 42.0532 72.6945 40.9313C72.7992 40.0188 72.3402 39.3022 71.9054 38.5695C71.4089 37.7268 70.7863 36.9404 70.7192 35.9045C70.6387 34.6162 71.3204 33.6983 72.5227 33.489C73.8459 33.2501 75.534 33.9721 75.8668 34.9275C76.0037 35.3274 76.0573 35.7676 75.6548 36.0199C75.2522 36.2722 74.7745 36.1326 74.4846 35.7193C74.3033 35.4645 74.1721 35.1776 74.0981 34.8739C73.9129 34.0446 73.3198 34.1036 72.7428 34.2512C71.9833 34.4445 71.9081 35.0832 72.1792 35.6388C72.6301 36.5566 73.2527 37.3913 73.7466 38.285C75.3434 41.1138 74.0203 43.3655 70.7272 43.379Z" fill="#255493"/>
<path d="M149.528 42.8905C147.764 43.803 145.862 43.0703 143.986 43.2609C146.978 41.7123 147.067 38.3199 148.945 36.1245C148.325 35.5556 147.759 36.4412 147.083 35.781C148.504 34.9031 150.039 34.224 151.645 33.7628C152.327 33.5668 152.061 34.2163 151.884 34.5438C150.974 36.2265 150.048 37.9012 149.128 39.5786C148.935 39.9275 148.739 40.2791 148.559 40.6334C147.735 42.2518 147.826 42.4584 149.528 42.8905Z" fill="#245393"/>
<path d="M125.081 77.5067C124.523 78.085 123.853 78.5419 123.111 78.8486C122.874 78.9614 122.542 79.168 122.37 79.0848C121.296 78.5641 120.271 78.4058 119.187 79.0526C118.986 79.1734 118.79 78.8996 118.774 78.6554C118.757 78.4112 118.816 78.1186 118.774 77.8503C118.701 77.2518 119.434 76.4385 118.774 76.1299C118.07 75.7998 117.595 76.7203 117.075 77.1551C116.436 77.6919 115.867 78.2931 115.156 78.9748C114.828 78.1992 115.073 77.6624 115.156 77.1229C115.212 76.7982 115.483 76.3715 115.07 76.1782C114.657 75.985 114.431 76.4278 114.222 76.6855C113.655 77.3779 113.148 78.1025 112.595 78.8137C112.359 79.1251 112.126 79.6726 111.72 79.4928C111.184 79.2539 111.675 78.8111 111.782 78.4783C112.126 77.4047 112.499 76.3661 112.874 75.3167C112.984 75.0027 113.035 74.4471 113.468 74.5947C113.953 74.7638 113.572 75.1825 113.468 75.4885C113.199 76.1836 112.764 76.8304 112.703 77.7241C113.296 77.08 113.776 76.5083 114.313 75.9769C114.624 75.6656 115.005 75.3113 115.486 75.5529C116.023 75.8213 115.816 76.3124 115.725 76.7445C115.66 77.037 115.502 77.3242 115.706 77.7348C116.449 77.0719 117.161 76.4117 117.904 75.7917C118.272 75.4858 118.709 75.0752 119.211 75.3435C119.767 75.6361 119.509 76.1997 119.458 76.6855C119.391 77.2813 118.953 78.2314 119.458 78.3924C120.166 78.6152 120.985 77.9844 121.439 77.343C122.023 76.4997 122.758 75.7718 123.607 75.1959C124.002 74.8951 124.488 74.7388 124.984 74.7531C125.365 74.7799 125.789 74.89 125.687 75.3408C125.534 75.942 125.242 75.3784 125.005 75.3408C124.061 75.1476 121.793 77.0585 121.793 78.0837C121.793 78.7279 122.206 78.6608 122.617 78.5776C123.422 78.4112 124.031 77.8395 124.745 77.4799C124.765 77.4529 124.792 77.4315 124.822 77.4176C124.853 77.4037 124.887 77.3978 124.92 77.4005C124.954 77.4032 124.986 77.4143 125.014 77.4329C125.042 77.4515 125.065 77.4769 125.081 77.5067Z" fill="#DF4D46"/>
<path d="M170.907 77.3135C170.199 78.0945 169.351 78.4192 168.417 78.2206C167.389 78.0005 167.566 77.0504 167.593 76.0977C166.202 77.0531 165.064 78.0623 163.68 78.6876C162.874 79.0472 162.042 79.4176 161.307 78.7332C160.521 78.0005 160.988 77.1229 161.385 76.3956C162.324 74.7031 163.799 73.3702 165.577 72.606C165.816 72.4814 166.076 72.4052 166.344 72.3817C166.612 72.3582 166.883 72.3879 167.139 72.4691C167.641 72.649 167.893 73.0972 167.676 73.5427C167.391 74.0794 167.118 73.599 166.871 73.3736C166.734 73.2542 166.564 73.1807 166.383 73.1634C166.202 73.146 166.021 73.1858 165.864 73.277C164.117 74.0821 162.644 75.2147 161.839 77.0156C161.68 77.3645 161.516 77.8019 161.839 78.1481C162.161 78.4944 162.585 78.4165 162.971 78.2931C164.672 77.7262 166.186 76.7053 167.348 75.3408C167.66 74.9678 167.974 74.4364 168.529 74.8041C169.01 75.1261 168.505 75.526 168.39 75.8615C168.207 76.3849 168.001 76.8975 168.417 77.3672C168.833 77.8368 169.332 77.5577 169.793 77.4342C170.129 77.3323 170.427 77.0719 170.907 77.3135Z" fill="#E14038"/>
<path d="M138.4 61.6479C140.432 61.0977 142.426 61.2748 144.434 61.8465C146.559 62.4557 148.68 62.8234 150.784 61.7526C150.996 61.6452 151.208 61.6371 151.32 61.919C150.974 62.297 150.548 62.5935 150.073 62.787C149.599 62.9806 149.087 63.0663 148.575 63.0381C146.082 63.0059 143.586 63.022 141.09 63.0381C139.941 63.0354 138.991 62.6973 138.4 61.6479Z" fill="#3F4389"/>
<path d="M160.354 76.986C159.6 78.3521 156.954 79.6269 155.59 79.2941C155.17 79.2141 154.786 79.0007 154.496 78.6855C154.206 78.3704 154.025 77.9702 153.98 77.5443C153.618 75.2737 155.505 72.3806 157.708 71.8277C159.165 71.46 160.174 72.2839 159.882 73.5937C159.818 73.862 159.716 74.1599 159.423 74.1573C159.082 74.1573 159.034 73.8218 159.061 73.5507C159.2 72.0451 158.328 72.2544 157.483 72.6785C155.872 73.4836 154.823 74.7826 154.691 76.6398C154.587 78.0998 155.467 78.8191 156.887 78.4729C157.761 78.2672 158.584 77.8825 159.302 77.343C159.592 77.1122 159.879 76.7794 160.354 76.986Z" fill="#E13F37"/>
<path d="M140.781 76.9216C139.34 78.3709 137.939 79.176 136.256 79.3371C134.973 79.4498 134.152 78.6205 134.05 77.3564C133.851 74.8792 135.679 72.2732 137.947 71.7955C139.232 71.5271 140.204 72.3322 139.979 73.4917C139.92 73.7976 139.836 74.1653 139.442 74.1546C139.047 74.1438 139.096 73.7761 139.122 73.5373C139.278 72.1766 138.548 72.2329 137.66 72.6275C136.872 72.9542 136.185 73.4828 135.666 74.1599C135.148 74.8369 134.817 75.6386 134.707 76.4841C134.463 77.9898 135.513 78.8674 137.005 78.4541C137.593 78.2536 138.169 78.0169 138.728 77.7456C139.291 77.5067 139.651 76.876 140.781 76.9216Z" fill="#E13E36"/>
<path d="M128.714 32.1256C128.827 31.3661 129.307 31.2238 129.624 30.9474C130.634 30.1263 131.343 28.9937 131.64 27.7268C131.718 27.3804 131.822 27.0403 131.951 26.7096C132.195 26.0708 132.633 25.5367 133.349 25.8051C134.106 26.0869 134.155 26.774 133.91 27.4986C133.578 28.4259 133.01 29.2508 132.262 29.8926C131.264 30.8132 130.236 31.7042 128.714 32.1256Z" fill="#285694"/>
<path d="M149.705 75.4885C150.593 74.8578 151.108 73.9855 152.013 73.5722C152.504 73.3495 152.982 73.0999 153.54 73.2582C153.755 73.3199 153.951 73.4353 153.918 73.7198C153.886 74.0043 153.682 73.9614 153.516 73.9694C150.757 74.0929 150.027 76.3473 148.988 78.2636C148.911 78.472 148.859 78.6893 148.835 78.9104C148.73 79.3613 148.414 79.4471 148.03 79.3478C147.584 79.219 147.705 78.846 147.807 78.5776C148.569 76.6834 149.196 74.7383 149.686 72.7563C149.75 72.4879 149.938 72.2625 150.255 72.3403C150.572 72.4182 150.588 72.7375 150.523 72.9871C150.266 73.8057 149.992 74.5894 149.705 75.4885Z" fill="#E13E36"/>
<path d="M113.486 18.183C113.366 17.6463 113.019 17.2652 112.373 16.7311C115.365 16.6801 114.673 19.5491 116.13 20.5529C116.704 20.0161 116.787 19.0633 117.601 18.0998C117.466 19.9785 116.412 21.0896 115.915 22.6812C114.976 21.409 114.573 20.1583 113.948 19.0204C113.645 18.8245 113.417 18.5856 113.486 18.183Z" fill="#235293"/>
<path d="M171.044 16.8841C172.678 16.6693 172.681 16.6693 172.681 18.226C172.681 19.16 172.681 20.1047 172.681 21.0252C172.681 21.5325 172.633 22.0531 173.449 22.4799H170.971C171.712 21.3983 171.712 17.861 171.044 16.8841Z" fill="#235293"/>
<path d="M168.301 22.4503H165.757C166.543 21.8599 166.369 21.1084 166.379 20.416C166.379 19.6108 166.345 18.8057 166.398 18.0193C166.428 17.5658 166.055 16.8277 166.935 16.7901C167.815 16.7525 167.528 17.5013 167.547 17.9576C167.585 18.9775 167.547 20 167.547 21.0225C167.566 21.5405 167.555 22.0585 168.301 22.4503Z" fill="#235293"/>
<path d="M162.016 20.5743C162.046 20.7386 162.102 20.897 162.182 21.044C162.515 21.4681 162.719 22.088 162.348 22.3672C161.771 22.7966 161.581 22.0021 161.299 21.6935C160.258 20.5421 159.267 19.3451 158.255 18.1643C158.137 18.1362 158.03 18.0727 157.948 17.982C157.866 17.8914 157.815 17.778 157.799 17.657L156.868 16.9753C158.255 16.6157 158.21 16.6452 159.157 17.6221C160.105 18.599 160.813 19.8685 162.045 20.6012L162.016 20.5743Z" fill="#235293"/>
<path d="M146.149 16.9216C144.506 19.0687 144.388 20.9635 147.169 22.4557C146.789 22.5464 146.394 22.555 146.01 22.4808C145.626 22.4066 145.263 22.2514 144.944 22.0256C144.625 21.7997 144.358 21.5084 144.161 21.1712C143.964 20.8339 143.841 20.4584 143.8 20.0698C143.575 18.4595 144.627 17.0531 146.149 16.9216Z" fill="#235293"/>
<path d="M179.831 16.8035C177.684 19.1975 178.038 21.0547 180.711 22.4584C180.356 22.5571 179.984 22.5824 179.618 22.5327C179.252 22.483 178.9 22.3593 178.584 22.1692C178.267 21.9791 177.993 21.7266 177.777 21.427C177.562 21.1274 177.409 20.7871 177.33 20.4267C176.924 18.6124 177.866 17.1578 179.831 16.8035Z" fill="#235293"/>
<path d="M181.025 22.4181C183.21 20.2711 182.904 18.4219 180.196 16.7606C181.927 16.409 183.322 17.3886 183.588 19.1385C183.854 20.8883 182.853 22.2249 181.025 22.4181Z" fill="#235293"/>
<path d="M172.99 16.8814C173.822 16.6801 174.554 16.6693 174.989 17.3671C175.424 18.0649 175.309 18.8218 174.597 19.3612C174.155 19.6967 174.444 19.9758 174.638 20.255C175.137 20.9689 175.649 21.672 176.159 22.3886C175.059 22.5255 173.188 20.934 173.094 19.7906C173.09 19.7332 173.098 19.6755 173.118 19.6216C173.139 19.5678 173.171 19.5191 173.213 19.4793C174.745 18.54 174.184 17.7134 172.99 16.8814Z" fill="#235293"/>
<path d="M130.448 16.8384C129.788 17.9119 129.868 21.3795 130.615 22.4047H128.371C129.114 21.3526 129.152 17.9388 128.371 16.8384H130.448Z" fill="#235293"/>
<path d="M120.886 16.7955H123.164C122.249 17.7134 122.705 18.7869 122.598 19.7799C122.477 20.9206 122.832 21.8465 124.098 22.394C122.488 22.6785 121.653 22.1122 121.524 20.7676C121.468 19.9225 121.457 19.075 121.492 18.2287C121.506 17.7322 121.503 17.2571 120.886 16.7955Z" fill="#235293"/>
<path d="M150.829 16.8706C152.11 16.4869 152.552 16.919 152.424 18.124C152.346 18.8701 152.424 19.6323 152.424 20.3865C152.424 21.1406 152.327 21.8814 153.527 22.4289H150.88C151.479 21.35 151.471 17.8717 150.829 16.8706Z" fill="#235293"/>
<path d="M140.33 16.8062H141.857C141.589 18.7091 141.32 20.5636 142.045 22.4262H140.276C140.669 20.5752 140.687 18.6644 140.33 16.8062Z" fill="#235293"/>
<path d="M193.72 75.1476C192.995 75.824 192.109 76.2212 191.758 77.1498C191.565 77.6624 191.32 78.1938 191.785 78.6366C192.249 79.0795 192.716 78.7413 193.148 78.5319C193.511 78.3614 193.851 78.1459 194.16 77.8905C195.282 76.9351 195.215 76.2399 193.835 75.5797C194.801 75.2684 195.647 75.043 196.661 75.3113C195.507 75.416 195.523 76.2104 195.37 77.0209C195.177 78.0542 193.245 79.3666 192.198 79.3586C191.95 79.3583 191.709 79.2823 191.505 79.1408C191.302 78.9993 191.146 78.799 191.06 78.5668C190.499 77.3618 192.182 75.1235 193.72 75.1476Z" fill="#E04942"/>
<path d="M137.27 22.445H134.927C135.765 21.5942 135.381 20.6092 135.44 19.694C135.488 18.9372 135.464 18.1777 135.44 17.4208C135.44 16.9753 135.585 16.7713 136.055 16.7874C136.524 16.8035 136.54 17.0746 136.54 17.4101C136.54 18.5266 136.557 19.6404 136.54 20.7568C136.532 21.3741 136.527 21.9699 137.27 22.445Z" fill="#235293"/>
<path d="M117.23 22.4396C118.094 21.8492 117.928 21.0628 117.936 20.3248C117.978 19.5658 117.978 18.8051 117.936 18.0462C117.81 16.8545 118.306 16.5164 119.316 16.7928C118.61 18.6983 119.047 20.5502 119.316 22.4289L117.23 22.4396Z" fill="#235293"/>
<path d="M188.226 78.5829L191.178 74.4122C191.669 74.9195 191.342 75.1691 191.178 75.3865C190.26 76.6479 189.318 77.8905 188.382 79.1438C188.223 79.3505 188.084 79.6457 187.778 79.5867C187.472 79.5276 187.493 79.1787 187.472 78.9265C187.388 77.8529 187.312 76.7856 187.244 75.7246C187.225 75.4563 187.289 75.1261 187.619 75.1422C188.006 75.1583 187.888 75.5046 187.888 75.7595C187.888 76.6747 187.888 77.5899 187.888 78.5078L188.226 78.5829Z" fill="#DF5049"/>
<path d="M130.679 74.2915C130.129 75.1235 129.206 75.2147 128.58 75.7354C128.011 76.205 128.078 76.46 128.709 76.774C130.416 77.6221 130.456 78.2931 128.867 79.4579C128.419 79.788 127.979 80.2174 127.206 80.0644C127.638 79.3344 128.451 79.2217 128.956 78.7225C129.64 78.0381 129.761 77.5765 128.674 77.2383C128.191 77.088 127.482 77.037 127.472 76.3768C127.472 75.8105 128.051 75.4858 128.502 75.2335C129.152 74.8792 129.63 74.0741 130.679 74.2915Z" fill="#DF5049"/>
<path d="M196.355 79.9785C196.981 79.533 197.611 79.1358 198.175 78.6608C198.738 78.1857 198.929 77.7187 197.99 77.3189C196.218 76.5727 196.186 76.2453 197.77 75.1718C198.349 74.7826 198.843 74.066 199.825 74.3183C199.289 75.1235 198.341 75.1986 197.729 75.7488C197.362 76.0789 196.997 76.3205 197.686 76.7123C198.25 77.0344 199.348 76.868 199.219 77.8664C199.101 78.7896 198.277 79.3532 197.501 79.8175C197.209 80.0107 196.854 80.3596 196.355 79.9785Z" fill="#E04841"/>
<path d="M153.54 27.7939C154.294 27.8798 154.689 28.3494 154.656 29.0338C154.624 29.7182 154.181 30.2147 153.454 30.1771C152.727 30.1396 152.34 29.6592 152.362 28.9399C152.383 28.2206 152.837 27.8449 153.54 27.7939Z" fill="#2D5A96"/>
<path d="M124.455 22.4047C125.891 21.0628 126.334 18.4273 125.335 16.825H126.892C126.039 17.9549 126.506 19.2405 126.379 20.4563C126.232 21.8331 125.757 22.3537 124.455 22.4047Z" fill="#235293"/>
<path d="M157.799 17.657L158.255 18.1642C157.768 19.5547 157.816 21.0771 158.39 22.4342H156.766C157.595 21.7525 157.338 20.8695 157.383 20.0456C157.429 19.2217 157.155 18.3655 157.799 17.657Z" fill="#235293"/>
<path d="M125.081 77.5067L124.74 77.4799C124.869 77.2999 125.015 77.132 125.175 76.978C125.497 76.7096 125.693 76.0467 126.181 76.2856C126.669 76.5244 126.133 76.9807 126.122 77.343C126.084 78.6098 127.053 77.8341 127.569 78.0086C126.672 78.8942 126.122 78.8406 125.585 77.7858C125.55 77.6857 125.479 77.602 125.386 77.5506C125.293 77.4992 125.184 77.4836 125.081 77.5067Z" fill="#DF5C56"/>
<path d="M162.05 20.6012C162.016 19.9383 161.962 19.2754 161.948 18.6098C161.935 17.9442 162.016 17.3054 161.106 16.8223H163.022C162.241 17.7107 162.665 18.701 162.515 19.6216C162.456 19.9758 162.826 20.5931 162.021 20.5743L162.05 20.6012Z" fill="#235293"/>
<path d="M149.168 18.4273C148.902 17.9716 148.519 17.5956 148.058 17.3384C147.597 17.0811 147.076 16.952 146.549 16.9646C148.296 16.197 149.216 16.7284 149.168 18.4273Z" fill="#235293"/>
<path d="M113.714 21.9404C113.602 22.1551 114.573 22.1766 113.833 22.4477C113.443 22.5899 112.96 22.4745 112.319 22.4745C112.944 21.8948 112.925 21.256 112.95 20.628C113.218 19.9329 112.856 19.1465 113.325 18.124C113.83 19.5706 113.323 20.8159 113.714 21.9404Z" fill="#235293"/>
<path d="M137.829 60.3086C138.054 59.89 137.501 59.0955 138.277 59.0177C138.776 58.9667 138.814 59.6753 138.881 60.059C139.063 60.8964 138.409 60.8078 137.88 60.8051C137.864 60.6388 137.845 60.4724 137.829 60.3086Z" fill="#5A504C"/>
<path d="M153.599 22.2437C154.259 21.9753 154.903 21.7204 155.234 20.7837C155.397 22.6033 155.341 22.657 153.599 22.2437Z" fill="#235293"/>
<path d="M147.391 22.3618C148.221 21.9611 148.886 21.2834 149.27 20.4455C149.334 22.2759 149.098 22.5148 147.391 22.3618Z" fill="#235293"/>
<path d="M154.839 18.1374C154.466 17.2007 153.672 17.1444 152.767 17.0934C154.428 16.3339 154.979 16.613 154.839 18.1374Z" fill="#235293"/>
<path d="M154.49 18.7225V20.3516C154.02 19.8148 153.446 19.7585 152.721 19.6055C153.293 19.0553 154.163 19.4123 154.49 18.7225Z" fill="#235293"/>
<path d="M135.102 16.9995C134.383 17.1122 134.007 17.6516 133.553 18.285C133.553 16.4788 133.623 16.4251 135.102 16.9995Z" fill="#235293"/>
<path d="M131.001 22.2517C131.688 21.991 132.29 21.5474 132.743 20.9689C132.633 22.6275 132.609 22.6436 131.001 22.2517Z" fill="#235293"/>
<path d="M138.239 18.3092C138.193 17.9735 138.05 17.6585 137.829 17.4019C137.607 17.1453 137.317 16.958 136.991 16.8626L138.602 16.6479C138.747 17.2356 138.451 17.649 138.239 18.3092Z" fill="#235293"/>
<path d="M124.871 73.2421C125.244 72.7993 125.612 72.3564 125.985 71.9163C126.181 71.6855 126.406 71.307 126.72 71.5781C127.034 71.8492 126.677 72.1337 126.452 72.3135C125.982 72.6973 125.483 73.0435 124.995 73.4058L124.871 73.2421Z" fill="#DE615B"/>
<path d="M166.189 16.9941C165.365 17.1524 164.936 17.6329 164.49 18.2501C164.56 16.503 164.579 16.4869 166.189 16.9941Z" fill="#235293"/>
<path d="M169.173 18.1428C169.085 17.3833 168.586 17.0934 167.77 17.1095L167.968 16.7445C168.473 16.7445 169.12 16.5513 169.444 16.7928C169.834 17.0827 169.434 17.649 169.173 18.1428Z" fill="#235293"/>
<path d="M79.6269 40.4563C79.3853 40.5582 79.4015 40.7837 79.3585 40.993C78.9237 40.3892 78.6661 39.7531 78.9613 38.8459C79.3575 39.2929 79.5919 39.86 79.6269 40.4563Z" fill="#235293"/>
<path d="M163.089 52.7966L158.189 59.2056C157.555 60.0295 156.683 59.7585 155.862 59.7263C155.668 59.6135 155.408 59.5384 155.561 59.219C157.375 57.6221 158.586 55.5234 160.15 53.7171C160.497 53.3172 160.829 52.912 161.168 52.4987C161.855 52.3081 162.587 51.7982 163.089 52.7966Z" fill="#FDFDFD"/>
<path d="M163.36 56.8062C162.853 56.4278 163.119 55.8239 162.939 55.3382C162.582 54.3881 162.732 53.7279 164.026 53.8433C165.252 53.964 165.035 53.2394 164.708 52.5013H164.89C165.487 53.853 165.785 55.3179 165.762 56.7955L165.582 56.8304C164.936 56.1621 164.286 55.5448 163.502 56.6747L163.36 56.8062Z" fill="#BC91AC"/>
<path d="M164.89 52.5147L164.799 52.4959H164.707C164.139 52.4342 163.575 52.3832 163.097 52.7858C162.528 52.2276 161.812 52.6221 161.176 52.4879C161.315 51.4949 162.107 51.8089 162.622 51.8814C163.234 51.9699 163.884 52.088 164.42 51.9136C165.346 51.6237 164.842 52.241 164.89 52.5147Z" fill="#E1D3DC"/>
<path d="M163.628 58.4138C163.137 57.9442 163.403 57.3403 163.36 56.8035H163.344C164.149 56.4573 164.954 56.8894 165.778 56.8035H165.762C166.248 57.1712 165.966 57.6919 166.03 58.1455L165.853 58.1803C165.131 57.6999 164.415 57.2786 163.773 58.2904L163.628 58.4138Z" fill="#BC91AC"/>
<path d="M166.028 58.1589C166.565 58.9936 166.489 59.3881 165.357 59.2324C164.82 59.1627 164.208 59.0338 163.763 59.5679C163.494 59.1976 163.655 58.795 163.628 58.4112L163.612 58.4246C164.418 58.4004 165.311 58.9345 166.028 58.1562V58.1589Z" fill="#BC91AC"/>
<path d="M155.561 59.219L155.861 59.7262C154.906 59.6457 154.694 60.1288 154.713 61.0037C154.713 61.3553 155.319 61.9699 154.474 62.1846L154.49 62.2007C154.517 61.6831 154.517 61.1644 154.49 60.6468C154.418 59.8202 154.702 59.3129 155.561 59.219Z" fill="#C5A4B8"/>
<path d="M163.137 51.0601C163.264 50.4992 163.674 50.6549 163.916 50.5234C164.157 50.3919 164.624 50.255 164.638 50.7139C164.657 51.3768 164.232 50.5341 163.996 50.8293C163.857 50.993 163.473 50.993 163.137 51.0601Z" fill="#B785A4"/>
<path d="M96.9431 58.5319C97.6383 57.4316 97.8905 56.7337 96.4788 56.2399C95.2121 55.7944 95.4375 53.8701 96.7311 52.81C97.5014 52.1793 98.5803 52.3161 99.3452 51.6076C99.6941 51.2829 101.806 52.9254 101.868 53.4863C101.895 53.7252 101.868 54.007 101.624 54.0231C101.004 54.0606 100.357 54.4632 99.7639 53.9828C99.6324 53.8755 99.5653 53.6983 99.3613 53.7144C98.8406 54.5894 99.05 55.0563 100.051 55.4267C101.272 55.8722 101.567 56.8438 100.988 58.0139C100.747 58.4947 100.402 58.9154 99.9775 59.2452C99.553 59.575 99.06 59.8054 98.5347 59.9195C98.0221 60.0483 97.4611 60.0563 97.3645 60.7515C97.3574 60.8074 97.3374 60.8609 97.3061 60.9078C97.2749 60.9547 97.2331 60.9937 97.1843 61.0218C97.1354 61.0499 97.0807 61.0662 97.0244 61.0696C96.9681 61.073 96.9118 61.0633 96.8599 61.0413C96.7633 61.0172 96.5916 60.8481 96.6184 60.8159C97.072 59.8228 96.1112 60.0805 95.7462 59.8229C95.6653 59.7856 95.5819 59.7541 95.4966 59.7289C94.7827 59.372 94.3935 58.744 94.5035 57.9952C94.6028 57.3135 95.3087 57.708 95.7381 57.5496C96.495 57.2625 96.9512 57.5013 96.9431 58.5319Z" fill="#FDFDFD"/>
<path d="M178.959 58.8647C178.309 57.9952 177.638 57.5228 176.64 57.5604C176.149 57.5368 175.661 57.483 175.177 57.3994C172.037 57.131 172.072 57.131 171.817 54.0553C171.75 53.2501 172.045 53.1535 172.695 53.1589C174.573 53.1804 176.452 53.1374 178.331 53.183C179.055 53.1991 179.563 53.0274 179.705 52.2732C179.973 50.8266 180.977 50.789 182.12 50.9608C182.088 51.0735 182.067 51.2292 182.045 51.2292C180.609 51.1997 180.145 52.1793 179.772 53.3253C179.476 54.2128 179.124 55.0805 178.717 55.9232C178.282 56.8357 178.089 57.5523 179.157 58.2689C179.879 58.7547 179.56 59.7343 179.364 60.4348C179.192 61.0574 178.043 60.9716 177.923 60.3086C177.772 59.4552 177.311 59.5035 176.723 59.5035C176.052 59.5035 175.381 59.5035 174.713 59.5035C174.248 59.5035 173.875 59.4659 173.822 60.1396C173.776 60.7354 173.264 60.9447 172.719 60.7703C172.131 60.5904 172.158 60.0617 172.142 59.5545C172.115 58.7735 172.7 58.9882 173.078 58.9828C174.863 58.9587 176.648 58.9828 178.446 58.9828C178.62 58.9582 178.791 58.9187 178.959 58.8647Z" fill="#F7F9FA"/>
<path d="M125.505 56.1648C125.505 55.8105 125.491 55.4536 125.505 55.0912C125.55 53.8513 125.003 52.3161 127.185 52.2598C128.094 52.2356 128.325 51.1245 129.007 50.6495C130.392 49.6752 131.46 50.0215 131.608 51.6881C131.685 52.5631 131.924 53.0301 132.799 53.0301C133.559 53.0301 133.781 53.4192 133.763 54.1331C133.725 55.5582 133.714 56.986 133.763 58.4112C133.8 59.533 132.579 60.0215 132.499 61.095C132.209 61.138 131.916 61.138 131.626 61.095C129.887 60.73 128.156 60.3113 126.412 59.9678C125.676 59.8202 125.354 59.5169 125.429 58.7225C125.507 57.8824 125.445 57.0317 125.445 56.1836L125.505 56.1648Z" fill="#FCF9F7"/>
<path d="M117.187 59.2029C115.704 59.9585 113.994 60.1437 112.383 59.7236C112.169 59.219 111.64 59.117 111.248 58.8433C108.918 57.233 109.101 54.5706 111.651 53.328C112.166 53.0784 112.772 53.0086 113.196 52.5684C114.981 52.4181 116.685 52.6328 118.121 53.8218C118.105 53.9078 118.107 53.9963 118.127 54.0814C118.148 54.1665 118.186 54.2464 118.239 54.3156C119.495 56.1943 119.342 57.2678 117.577 58.6903C117.406 58.826 117.272 59.0023 117.187 59.2029Z" fill="#FEFEFE"/>
<path d="M113.204 52.5684C113.406 53.395 112.668 53.2099 112.305 53.3736C110.564 54.0955 109.791 55.0832 109.978 56.5244C110.139 57.7643 111.039 58.4031 112.045 58.956C112.313 59.1009 113.119 59.1143 112.394 59.737C112.305 59.7505 112.214 59.7505 112.126 59.737C109.817 59.1277 108.368 57.6704 108.457 56.0708C108.553 54.2888 110.521 52.8395 113.204 52.5684Z" fill="#DBD8D9"/>
<path d="M111.007 51.774C110.585 51.5969 110.07 51.3714 110.368 50.8373C110.719 50.204 111.53 49.8148 112.085 50.1583C113.749 51.1916 115.43 50.4992 117.107 50.4589C117.284 50.4589 117.461 50.4214 117.644 50.4267C117.88 50.4267 118.105 50.5287 118.14 50.7783C118.191 51.1514 117.893 51.205 117.625 51.205C116.468 51.205 115.311 51.205 114.155 51.1862C113.618 51.1862 113.081 51.1138 112.668 51.57C112.067 51.2748 111.565 51.7445 111.007 51.774Z" fill="#F8F1F1"/>
<path d="M113.741 61.0467C114.614 61.358 115.502 61.2158 116.393 61.1701C117.258 61.0848 118.13 61.1182 118.986 61.2694L119.002 61.7015L111.616 62.1309C112.064 61.2372 112.724 60.781 113.741 61.0467Z" fill="#F2DDDB"/>
<path d="M117.187 59.2029C116.887 58.6661 117.33 58.5641 117.636 58.3145C119.028 57.182 119.136 55.9554 118.019 54.541C117.805 54.2727 117.214 53.9399 118.121 53.8218C120.381 55.5099 119.968 57.8851 117.187 59.2029Z" fill="#E8E2E2"/>
<path d="M113.741 61.0467C112.748 60.8481 112.458 62.0344 111.616 62.1203C111.111 61.6909 111.213 61.3151 111.769 61.0816C112.418 60.8213 113.086 60.6146 113.741 61.0467Z" fill="#DC9693"/>
<path d="M111.006 51.774C111.543 51.5056 111.946 50.2926 112.662 51.5701C112.171 52.1417 111.618 52.1927 111.006 51.774Z" fill="#D2D0D0"/>
<path d="M105.293 22.7617C105.094 22.3806 104.756 22.6141 104.461 22.6704C103.145 22.9435 101.909 23.5095 100.843 24.3264C99.4482 25.3735 98.1864 26.5866 97.0853 27.9388C94.4605 31.0548 92.4342 34.5894 90.0644 37.869C88.9667 39.3988 87.7885 40.8615 86.1514 41.8572C83.7574 43.3146 81.1648 42.7429 79.6242 40.4429C79.1277 40.4187 79.2002 40.6737 79.3559 40.9796C80.0402 42.5524 81.358 43.1804 82.9576 43.3495C85.2764 43.591 87.2517 42.7563 89.007 41.3178C90.8316 39.7972 92.3955 37.9886 93.6366 35.9635C94.2297 35.0242 94.9141 34.584 96.052 34.7531C99.38 35.255 99.2539 34.6592 97.9093 37.9469C97.1551 39.7907 96.0735 41.4681 94.8604 43.1482C99.6296 43.3951 99.6296 43.3951 100.271 42.182C99.6269 42.233 99.0231 43.0972 98.4621 42.3591C98.0113 41.7687 98.4621 41.138 98.7305 40.6039C100.271 37.4638 101.197 34.1117 102.187 30.7783C102.936 28.2582 103.588 25.7005 105.003 23.4353C105.123 23.2314 105.435 23.0381 105.293 22.7617ZM99.6269 32.9066C99.27 34.0741 98.752 34.6055 97.5255 34.1492C97.3104 34.0888 97.0886 34.0554 96.8653 34.0499C95.0349 33.8674 95.0188 33.8594 95.9957 32.2061C97.3453 29.9461 98.8585 27.7879 100.523 25.7488C101.448 24.5184 102.76 23.6354 104.249 23.2421C101.704 26.2561 100.639 29.576 99.6269 32.9066Z" fill="#235293"/>
<path d="M146.299 57.606C146.209 57.6115 146.119 57.624 146.031 57.6436C143.996 58.3145 142.542 58.0139 141.723 56.7472C140.904 55.4804 141.218 53.4729 142.469 52.0746C144.275 50.0537 146.543 49.8202 148.443 51.4573C149.753 53.1589 149.203 55.8159 147.244 57.1229C146.962 57.3413 146.641 57.5052 146.299 57.606Z" fill="#FBFBFB"/>
<path d="M146.299 57.606C147.212 56.9163 148.105 56.2131 148.591 55.1208C148.875 54.5468 149.011 53.9109 148.986 53.271C148.961 52.631 148.777 52.0075 148.449 51.4573C148.599 51.4871 148.74 51.5551 148.856 51.6547C148.973 51.7544 149.062 51.8823 149.114 52.0263C150.11 54.1439 148.631 57.0934 146.299 57.606Z" fill="#544D50"/>
<path d="M173.733 39.7397C174.438 38.1008 175.315 36.5417 176.35 35.0886C176.908 34.2834 176.618 33.9775 175.845 33.8433C174.705 33.611 173.532 33.5819 172.381 33.7574C169.275 34.3264 166.613 35.6951 164.938 38.4675C163.382 41.0682 164.753 43.3709 167.73 43.4005C168.502 43.4005 169.361 42.8637 169.93 43.1133C171.213 43.65 172.467 43.3172 173.72 43.3629C174.911 43.4031 175.526 42.5577 175.416 40.985C174.818 41.8224 174.638 43.0837 173.637 42.5336C172.724 42.0344 173.325 41.0252 173.535 40.2362C173.591 40.0668 173.657 39.901 173.733 39.7397ZM171.444 40.3623C170.907 41.5325 170.013 42.2705 168.94 42.335C167.203 42.3698 166.315 41.2614 166.613 39.7531C166.821 38.788 167.324 37.9112 168.052 37.2437C169.587 35.7542 171.363 34.6994 173.521 34.4096C174.01 34.3425 174.648 34.3264 174.106 35.1476C173.03 36.7875 172.265 38.5856 171.444 40.3623Z" fill="#235393"/>
<path d="M66.0199 36.452C66.4144 35.6898 67.5067 34.8819 67.0532 34.1841C66.5405 33.3977 65.2442 33.6044 64.2754 33.6473C60.5851 33.8379 57.6114 35.408 55.8266 38.6849C54.4659 41.1836 55.883 43.5158 58.6232 43.3146C60.5019 43.183 62.3457 43.5105 64.2083 43.3736C65.4536 43.2823 65.9877 42.7322 65.7891 41.1299C65.7598 41.2628 65.7194 41.393 65.6683 41.5191C65.3999 42.0719 65.1745 42.861 64.3827 42.5577C63.591 42.2544 63.846 41.4546 64.0124 40.8078C64.423 39.2432 65.2845 37.8771 66.0199 36.452ZM62.3081 40.1074C61.927 41.0413 61.3607 41.8143 60.3462 42.1578C58.7359 42.6946 57.5684 41.8894 57.5631 40.212C57.5338 39.5843 57.7039 38.9633 58.0489 38.438C59.431 36.256 61.4359 34.9678 63.9345 34.4122C64.2405 34.3451 64.6135 34.2432 64.8282 34.482C65.0966 34.7692 64.7746 35.0617 64.6243 35.314C63.7275 36.8484 62.953 38.4512 62.3081 40.1074Z" fill="#235393"/>
<path d="M126.46 39.5974C126.593 39.5798 126.726 39.5744 126.86 39.5813C129.512 39.3317 131.535 38.1428 132.617 35.6334C133.199 34.2914 132.695 33.2984 131.42 33.1132C128.664 32.7134 124.173 35.1127 122.96 37.6302C122.155 39.3076 122.52 41.2909 123.792 42.4235C125.558 43.9935 129.965 43.7654 131.651 41.0816C130.972 40.9044 130.738 41.4036 130.381 41.6183C128.674 42.6275 126.951 42.5953 125.789 41.4868C125.327 41.0494 124.761 40.5099 124.946 39.9061C125.164 39.1841 125.95 39.7504 126.46 39.5974ZM125.078 37.3779C126.028 35.6092 127.375 34.278 129.533 34.1975C130.784 34.1519 131.184 34.788 130.607 35.9071C129.659 37.7643 128.108 38.7574 126.312 38.8593C124.681 38.8593 124.445 38.5561 125.078 37.3779Z" fill="#245393"/>
<path d="M147.746 60.1718C148.575 59.8417 149.356 59.3666 149.82 60.6065C149.981 61.0386 149.941 61.205 149.485 61.3929C148.205 61.9243 148.137 60.8884 147.746 60.1718Z" fill="#4E443E"/>
<path d="M141.213 60.2442C139.804 60.738 139.238 60.0644 139.044 58.811C140.311 58.4085 141.044 58.8701 141.213 60.2442Z" fill="#4B413B"/>
<path d="M151.954 59.7933C151.718 60.4697 151.28 60.8239 150.759 60.832C150.121 60.832 149.893 60.1342 149.839 59.7155C149.756 59.0875 150.537 58.9479 150.95 58.8674C151.583 58.744 151.495 59.6108 151.954 59.7933Z" fill="#4A403A"/>
<path d="M141.516 59.0016C142.756 59.0016 143.438 59.5223 143.62 60.679C142.458 60.7676 141.653 60.3704 141.516 59.0016Z" fill="#4C413B"/>
<path d="M147.907 61.5378C146.586 61.8814 146.229 61.0789 145.961 60.1342C147.255 59.6726 147.558 60.5663 147.907 61.5378Z" fill="#534944"/>
<path d="M143.921 59.6296C145.113 59.6135 145.719 60.1422 145.875 61.2399C144.71 61.3285 144.163 60.7059 143.921 59.6296Z" fill="#4D423D"/>
<path d="M143.132 76.935C144.742 76.6076 146.084 75.9393 146.868 74.4176C147.115 73.9372 147.311 73.3897 146.898 72.9146C146.697 72.6963 146.426 72.555 146.132 72.5153C145.838 72.4756 145.539 72.54 145.287 72.6973C143.725 73.5024 142.335 74.5598 141.559 76.2024C140.754 77.9415 141.691 79.3666 144.026 79.3532C144.506 79.3532 145.344 79.0633 146.13 78.6205C146.385 78.4783 146.817 78.328 146.608 77.963C146.398 77.5979 146.044 77.9388 145.819 78.0784C145.043 78.5641 144.241 78.8969 143.304 78.8003C142.448 78.7144 141.975 78.1616 141.983 77.3886C141.991 76.6157 142.727 77.0263 143.132 76.935ZM142.633 75.5099C143.364 74.559 144.307 73.7917 145.387 73.2689C145.883 73.0381 146.366 73.1267 146.409 73.7601C146.369 74.9275 143.881 76.6559 142.829 76.3258C142.332 76.1594 142.359 75.8561 142.633 75.5099Z" fill="#E13F37"/>
<path d="M180.403 70.4509C180.558 70.0483 181.001 69.6457 180.497 68.9077C179.423 70.8723 178.98 72.8986 178.21 74.9275C177.308 74.1653 176.6 74.5062 175.955 75.1959C175.224 75.9847 174.707 76.9474 174.453 77.9925C174.329 78.4648 174.184 78.9882 174.632 79.3666C175.169 79.8068 175.639 79.4122 176.106 79.1868C176.299 79.074 176.484 78.9475 176.659 78.8084C177.04 78.54 177.437 77.9469 177.732 78.9104C177.797 79.1251 178.129 79.1358 178.331 79.0231C178.725 78.8003 178.422 78.6661 178.269 78.4461C177.963 78.0113 178.129 77.504 178.213 77.029C178.621 74.7289 179.555 72.606 180.403 70.4509ZM177.84 76.4895C177.799 77.4745 176.549 78.8218 175.55 78.9721C174.909 79.066 174.882 78.6125 174.946 78.2179C175.095 77.3337 175.478 76.5053 176.055 75.8186C176.385 75.4214 176.718 74.8336 177.34 75.0859C177.963 75.3382 177.858 75.9528 177.84 76.4895Z" fill="#E0463F"/>
<path d="M180.859 77.7429C181.852 77.4745 182.689 77.0209 183.159 76.0655C183.317 75.7381 183.392 75.3597 183.121 75.0537C183.002 74.9155 182.837 74.8235 182.657 74.7936C182.477 74.7637 182.291 74.7978 182.134 74.89C181.047 75.4563 180.056 76.1675 179.562 77.3296C179.208 78.1643 179.35 79.0016 180.335 79.2781C181.32 79.5545 182.23 79.3156 182.831 78.3736C182.27 78.6137 181.69 78.8084 181.098 78.956C180.593 79.0446 180.075 78.8433 180.005 78.2314C179.922 77.5201 180.542 77.8315 180.859 77.7429ZM181.245 75.9367C181.661 75.6415 182.222 74.8631 182.676 75.5502C183.025 76.0655 182.287 76.5379 181.833 76.8733C181.63 77.0522 181.383 77.173 181.118 77.2231C180.852 77.2732 180.578 77.2506 180.325 77.1578C180.346 76.5218 180.837 76.2212 181.245 75.9367Z" fill="#DD5A54"/>
<path d="M165.778 56.8116C164.973 57.2813 164.168 57.1498 163.344 56.8116C163.414 56.3822 163.172 55.8213 163.948 55.7381C164.866 55.6307 165.539 55.7998 165.778 56.8116Z" fill="#A33C7D"/>
<path d="M164.246 55.467C163.709 55.467 163.116 55.4938 163.113 54.7182C163.111 53.9426 163.757 54.1627 164.187 54.1466C164.616 54.1305 165.204 53.9989 165.228 54.7772C165.252 55.5556 164.734 55.4643 164.246 55.467Z" fill="#A33C7D"/>
<path d="M166.041 58.1509C165.674 59.1841 164.724 59.2915 163.626 58.4192C163.693 57.9845 163.449 57.3833 164.235 57.3457C164.965 57.3242 165.727 57.2142 166.041 58.1509Z" fill="#A43F7E"/>
<path d="M98.2073 58.4622C98.0731 57.9093 98.1428 57.4316 98.5723 57.1203C98.7601 56.9914 98.9802 57.2706 99.0097 57.4879C99.0849 58.073 98.8165 58.3897 98.2073 58.4622Z" fill="#139A5D"/>
<path d="M132.179 57.4476C132.131 60.6495 132.131 60.6495 128.959 59.9517C126.036 59.3075 126.036 59.3075 126.044 56.2829C126.044 53.1374 126.044 53.1374 129.093 53.752C129.138 53.752 129.179 53.7761 129.224 53.7842C132.225 54.3639 132.225 54.3639 132.179 57.4476Z" fill="#EB7A2C"/>
<path d="M132.832 54.533C133.328 55.7488 133.274 58.022 132.832 59.2512V54.533Z" fill="#EA7D32"/>
<path d="M130.204 52.5255C129.595 52.3027 128.951 52.547 128.757 51.8841C128.743 51.8058 128.745 51.7254 128.764 51.6481C128.783 51.5709 128.819 51.4987 128.869 51.4365C128.918 51.3744 128.981 51.3237 129.052 51.2879C129.123 51.2521 129.201 51.2321 129.281 51.2292C130.016 51.1889 130.075 51.774 130.204 52.5255Z" fill="#EA8138"/>
<path d="M131.095 52.7912C130.558 51.8921 130.419 51.1809 129.882 50.7219C131.143 50.7085 131.229 51.4895 131.095 52.7912Z" fill="#EA823B"/>
<path d="M133.043 53.6527C132.077 53.9211 131.506 53.6661 130.628 53.2501C131.621 53.0649 132.211 53.226 133.043 53.6527Z" fill="#E88E50"/>
<path d="M130.451 53.0676C129.726 53.4836 129.262 53.1213 128.79 52.8529C129.065 52.7612 129.357 52.7328 129.645 52.77C129.932 52.8072 130.208 52.9089 130.451 53.0676Z" fill="#E88C4C"/>
<path d="M145.679 54.9436C146.296 54.9436 147.193 54.9114 147.327 55.4536C147.507 56.1889 146.664 56.6103 146.074 56.9726C145.752 57.1686 145.352 57.4852 144.965 57.241C144.445 56.927 144.949 56.4359 144.882 56.0333C144.96 55.5556 144.987 55.0188 145.679 54.9436Z" fill="#4C5083"/>
<path d="M147.034 53.3468C146.396 53.4702 145.827 53.4192 145.891 52.7644C145.955 52.1095 146.178 51.3205 146.927 51.2507C147.813 51.1675 148.097 51.9968 148.167 52.6919C148.264 53.6769 147.362 53.1696 147.034 53.3468Z" fill="#494D80"/>
<path d="M143.779 55.2094C143.715 55.3732 143.634 55.5297 143.537 55.6764C143.239 56.0387 143.269 56.8868 142.528 56.5969C142.042 56.401 141.855 55.7918 141.881 55.2335C141.922 54.3156 142.665 54.8175 143.097 54.6967C143.226 54.6692 143.357 54.6539 143.489 54.6511C143.579 54.7132 143.653 54.7966 143.704 54.894C143.754 54.9914 143.78 55.0997 143.779 55.2094Z" fill="#555884"/>
<path d="M144.45 51.2614C144.766 51.2453 144.815 51.4681 144.796 51.6962C144.795 52.187 144.603 52.658 144.259 53.0086C143.722 53.5212 143.186 53.3172 142.834 52.9764C142.415 52.5738 143.011 52.3081 143.229 52.0451C143.55 51.6699 143.975 51.3974 144.45 51.2614Z" fill="#535681"/>
<path d="M146.452 54.3505C146.484 54.219 146.479 54.1653 146.5 54.1492C146.757 53.9764 147.055 53.873 147.364 53.849C147.673 53.825 147.983 53.8813 148.263 54.0124C148.459 54.0956 148.408 54.4498 148.229 54.5974C147.523 55.1745 147.048 54.4445 146.452 54.3505Z" fill="#606288"/>
<path d="M143.779 55.2093C143.476 55.1234 143.494 54.8765 143.489 54.643V54.0177C143.854 55.3033 144.74 55.1691 145.666 54.9436L144.86 56.044C144.855 55.3113 144.12 55.5153 143.779 55.2093Z" fill="#B7B5B5"/>
<path d="M144.152 55.8239C144.187 56.3607 144.608 56.9538 143.964 57.3027C143.915 57.3319 143.861 57.3499 143.804 57.3555C143.748 57.3611 143.691 57.3542 143.637 57.3352C143.583 57.3163 143.535 57.2857 143.494 57.2458C143.454 57.2058 143.423 57.1575 143.403 57.1041C143.242 56.4842 143.827 56.2426 144.152 55.8239Z" fill="#615F75"/>
<path d="M145.271 52.4182C145.236 51.8304 145.003 51.1943 145.717 50.9071C145.8 50.8723 146.041 50.9796 146.05 51.0413C146.135 51.6801 145.644 52.0156 145.271 52.4182Z" fill="#7E7A7F"/>
<path d="M145.126 53.2233C144.691 53.7601 145.805 53.9372 145.395 54.3693C145.292 54.4056 145.183 54.4155 145.076 54.3981C144.969 54.3807 144.868 54.3367 144.783 54.27C144.52 53.8782 144.917 53.5883 145.126 53.2233Z" fill="#B4B2B0"/>
</g>
<defs>
<clipPath id="clip0_73_2128">
<rect width="200" height="100" fill="white"/>
</clipPath>
</defs>
</svg>
