<svg width="111" height="95" viewBox="0 0 111 95" fill="none" xmlns="http://www.w3.org/2000/svg">
<path d="M4.4209 44.4559H18.8703V34.8575L4.71173 35.5655C4.64795 38.4461 4.551 41.4096 4.4209 44.4559Z" fill="#FF7622"/>
<path d="M18.878 29.2086C20.6306 29.1652 23.2225 29.1448 26.6537 29.1474C34.8963 29.1474 42.7333 29.2903 50.1646 29.576V17.5742C42.7333 17.8293 35.4269 17.9569 28.2456 17.9569C24.0822 17.9569 20.9596 17.9365 18.878 17.8957V11.4508H52.1697V3.05176e-05H4.4209C4.74744 7.90941 4.91071 15.3187 4.91071 22.2279C4.91071 25.9938 4.86097 29.9128 4.76148 33.9849C9.16467 33.6251 13.8676 33.2501 18.8703 32.8597L18.878 29.2086Z" fill="#FF7622"/>
<path d="M93.6928 3.05176e-05H71.1653L59.6318 29.9013C73.5034 28.9713 88.4656 28.0375 104.247 27.1649L93.6928 3.05176e-05ZM75.941 26.1469C78.7166 18.6356 80.8187 13.0224 82.2473 9.30759L83.7129 13.2878C85.3481 17.5742 86.9413 21.8605 88.4924 26.1469H75.941Z" fill="#FF7622"/>
<path d="M54.0215 44.456H69.3893L72.4506 35.6996H91.9665C93.2726 39.2103 94.3135 42.1292 95.089 44.456H110.947L105.536 30.5291L58.468 32.8828L54.0215 44.456Z" fill="#FF7622"/>
<path d="M36.1656 78.5432C36.1656 79.2831 35.4717 79.9656 34.0839 80.5907C32.6961 81.2158 30.3083 81.5284 26.9204 81.5284C23.2999 81.486 19.6995 80.9831 16.2058 80.032C13.1873 79.2736 10.2727 78.149 7.52702 76.6832L5.79354 76.7712C5.11218 78.7249 4.32789 80.6412 3.44398 82.5119C2.40963 84.6323 1.25991 86.6944 0 88.6889C3.98893 90.8154 8.25264 92.3801 12.67 93.3388C17.204 94.38 21.84 94.9114 26.4919 94.9233C34.9411 94.9233 41.2474 93.5914 45.4108 90.9278C49.5742 88.2641 51.6571 83.8961 51.6597 77.8237C51.6657 76.702 51.5137 75.5849 51.2081 74.5056L32.8709 75.4203C35.0674 76.0811 36.1656 77.1221 36.1656 78.5432Z" fill="#FF7622"/>
<path d="M45.7782 68.1717C41.8597 66.0693 35.5738 65.0181 26.9205 65.0181C23.4128 65.0181 20.7341 64.7043 18.8846 64.0767C17.035 63.449 16.1077 62.6147 16.1026 61.5737C16.1026 60.5327 16.7761 59.7444 18.1193 59.2009C19.4624 58.6575 22.0798 58.3896 25.96 58.3896C29.1821 58.3896 32.8965 58.9853 37.1032 60.1768C41.31 61.3683 44.4517 62.852 46.5282 64.6278C46.6915 64.1966 46.8956 63.5472 47.1405 62.6798C48.4492 58.5618 49.6954 55.0727 50.8791 52.2126C47.0649 50.1309 42.9998 48.5464 38.7831 47.4976C34.5157 46.3756 30.1237 45.797 25.7113 45.7754C18.4075 45.7754 12.4686 47.1621 7.89445 49.9355C3.32034 52.7088 1.03456 57.022 1.03711 62.8749C1.03711 66.9929 2.91471 69.973 6.66992 71.8151C7.77638 72.3407 8.92934 72.7623 10.1139 73.0742C22.914 72.4389 36.1351 71.8495 49.6355 71.3367C48.5936 70.0152 47.2776 68.9354 45.7782 68.1717Z" fill="#FF7622"/>
<path d="M76.6128 75.0447V93.2159H91.9194V74.2793L76.6128 75.0447Z" fill="#FF7622"/>
<path d="M91.9194 60.2518C97.9578 60.29 104.182 60.4176 110.593 60.6345V47.7754H58V60.6345C64.3242 60.4278 70.5284 60.3003 76.6128 60.2518V71.2126C81.6895 71.0647 86.7917 70.9282 91.9194 70.8031V60.2518Z" fill="#FF7622"/>
</svg>
